<svg width="24" height="24" viewBox="0 0 24 24" fill="none" xmlns="http://www.w3.org/2000/svg">
  <path d="M14.6508 12.1573L15.711 11.097C15.7881 11.3856 15.8333 11.6874 15.8333 12C15.8333 13.93 14.2633 15.5 12.3333 15.5C12.0207 15.5 11.7189 15.4548 11.4303 15.3777L12.4905 14.3175C13.0509 14.2794 13.5785 14.0396 13.9757 13.6424C14.3729 13.2453 14.6127 12.7176 14.6508 12.1573ZM21.5932 11.7167C21.5214 11.5876 20.5038 9.80452 18.5146 8.29339L17.6657 9.14229C19.1162 10.2088 20.0352 11.4526 20.397 12.0009C19.7056 13.0537 16.9934 16.6667 12.3333 16.6667C11.6345 16.6667 10.9847 16.5773 10.3732 16.4347L9.41461 17.3933C10.2959 17.6635 11.2645 17.8334 12.3333 17.8334C18.4398 17.8334 21.4673 12.5099 21.5932 12.2834C21.6414 12.1967 21.6667 12.0992 21.6667 12C21.6667 11.9009 21.6414 11.8033 21.5932 11.7167ZM19.1624 5.99579L6.32907 18.8291C6.21517 18.943 6.06584 19 5.91665 19C5.76746 19 5.61813 18.943 5.50424 18.8291C5.45003 18.775 5.40704 18.7107 5.3777 18.6399C5.34836 18.5692 5.33326 18.4933 5.33326 18.4167C5.33326 18.3401 5.34836 18.2643 5.3777 18.1935C5.40704 18.1227 5.45003 18.0584 5.50424 18.0043L7.13699 16.3715C4.4974 14.778 3.15617 12.4323 3.07348 12.2834C3.02529 12.1967 3 12.0992 3 12C3 11.9008 3.02529 11.8032 3.07348 11.7165C3.19934 11.4902 6.22684 6.1667 12.3333 6.1667C13.9123 6.1667 15.2799 6.52691 16.449 7.0595L18.3376 5.17095C18.5655 4.94302 18.9346 4.94302 19.1624 5.17095C19.3902 5.39889 19.3903 5.768 19.1624 5.99579ZM8.00688 15.5016L9.48374 14.0248C9.07584 13.4525 8.83332 12.7547 8.83332 12C8.83332 10.0701 10.4034 8.50004 12.3333 8.50004C13.088 8.50004 13.7858 8.74256 14.3581 9.15031L15.5523 7.95608C14.6088 7.57823 13.5366 7.33337 12.3333 7.33337C7.67322 7.33337 4.96101 10.9464 4.26976 11.9992C4.70871 12.6645 5.97046 14.3485 8.00688 15.5016ZM10.3306 13.1778L13.5111 9.99731C13.1641 9.79241 12.7647 9.66671 12.3333 9.66671C11.0468 9.66671 9.99999 10.7135 9.99999 12C9.99999 12.4314 10.1257 12.8309 10.3306 13.1778Z" fill="#D2628C" />
</svg>