<svg xmlns="http://www.w3.org/2000/svg" width="144" height="120" viewBox="0 0 144 120" fill="none">
<g clip-path="url(#clip0_137_9899)">
<path d="M90 1.5H30C14.2599 1.5 1.5 14.2599 1.5 30V90C1.5 105.74 14.2599 118.5 30 118.5H90C105.74 118.5 118.5 105.74 118.5 90V30C118.5 14.2599 105.74 1.5 90 1.5Z" stroke="#E6ECFF" stroke-width="3"/>
<path d="M73.9064 37.5822C77.5657 41.5331 79.374 46.8726 78.9461 52.6595C78.0824 64.3627 69.2287 73.5535 59.5961 73.5535C49.9625 73.5535 41.0947 64.3598 40.2443 52.6577C39.8213 46.8063 41.623 41.4564 45.253 37.5427C48.8459 33.6698 53.9215 31.5117 59.5961 31.5117C65.2323 31.5117 70.2916 33.6794 73.9064 37.5822Z" stroke="#E6ECFF" stroke-width="3"/>
<path d="M65.5151 92.9798C64.8095 92.5528 64.0168 92.4342 63.2161 92.6477C61.916 92.9956 60.8061 94.158 60.061 95.1465C59.7201 94.3241 59.1652 93.3989 58.2931 92.8612C57.4449 92.3314 56.4223 92.2365 55.3362 92.5844C53.6873 93.1142 52.6329 94.1897 52.2841 95.7C51.4121 99.4799 55.2094 105.102 57.3418 107.135C57.6589 107.443 58.0791 107.593 58.4913 107.593C58.8718 107.593 59.2444 107.467 59.5536 107.214C62.2807 104.968 67.267 99.2269 66.9975 95.4707C66.9182 94.3874 66.4109 93.5254 65.5151 92.9798ZM58.5468 105.996C58.5468 105.996 58.4675 106.027 58.4358 105.996C56.4619 104.114 53.1324 99.0371 53.822 96.0559C54.044 95.0912 54.6941 94.4427 55.8198 94.0869C56.0972 93.9999 56.3509 93.9524 56.5808 93.9524C56.8979 93.9524 57.1912 94.0315 57.4528 94.1976C58.4596 94.8223 58.9115 96.5303 59.0066 97.1392C59.0542 97.4793 59.3158 97.7481 59.6567 97.8035C59.9896 97.8588 60.3305 97.7007 60.489 97.4002C60.9092 96.6252 62.2886 94.5455 63.6442 94.1818C64.0247 94.079 64.3576 94.1264 64.6985 94.332C65.1583 94.6088 65.3882 95.0121 65.4279 95.5814C65.6181 98.3254 61.4879 103.584 58.5547 105.996H58.5468Z" fill="#E6ECFF"/>
<path d="M59.3472 109.317C59.2679 109.183 59.1649 109.064 59.0301 108.977C58.8953 108.89 58.7447 108.843 58.5703 108.843C58.3245 108.843 58.1026 108.914 57.9044 109.056C57.7062 109.198 57.5397 109.38 57.3891 109.602C57.2464 109.815 57.1354 110.052 57.0641 110.305C56.9927 110.559 56.9531 110.796 56.9531 111.009C56.9531 111.167 56.9689 111.333 57.0086 111.5C57.0403 111.666 57.1037 111.816 57.183 111.958C57.2623 112.093 57.3653 112.211 57.5001 112.306C57.6349 112.401 57.7934 112.448 57.9757 112.448C58.2215 112.448 58.4435 112.369 58.6416 112.219C58.8398 112.069 59.0063 111.879 59.1411 111.658C59.2758 111.436 59.3868 111.191 59.4582 110.938C59.5295 110.685 59.5692 110.448 59.5692 110.234C59.5692 110.092 59.5533 109.934 59.5137 109.768C59.474 109.602 59.4185 109.451 59.3393 109.309L59.3472 109.317Z" fill="#E6ECFF"/>
<path d="M98 116C95.625 98.8792 80.9868 85 60 85C39.0132 85 24.375 98.8792 22 116" stroke="#E6ECFF" stroke-width="3"/>
<path d="M144 73.1999C144 59.9451 133.255 49.2 120 49.2C106.745 49.2 96 59.9451 96 73.1999C96 86.4548 106.745 97.1999 120 97.1999C133.255 97.1999 144 86.4548 144 73.1999Z" fill="#F2F5FF"/>
<path d="M120 89.6999C129.113 89.6999 136.5 82.3126 136.5 73.1999C136.5 64.0872 129.113 56.7 120 56.7C110.887 56.7 103.5 64.0872 103.5 73.1999C103.5 82.3126 110.887 89.6999 120 89.6999Z" stroke="#E6ECFF" stroke-width="3"/>
<path d="M120 61.9998V83.9998" stroke="#E6ECFF" stroke-width="3" stroke-linecap="round"/>
<path d="M131 72.9998H109" stroke="#E6ECFF" stroke-width="3" stroke-linecap="round"/>
</g>
<defs>
<clipPath id="clip0_137_9899">
<rect width="144" height="120" fill="white"/>
</clipPath>
</defs>
</svg>