<svg  xmlns="http://www.w3.org/2000/svg" xmlns:xlink="http://www.w3.org/1999/xlink" viewBox="0 0 300 300">
    <style>:root>svg{display:none}:root>svg:target{display:block}</style>
    <svg id="heart" viewBox="0 0 25 24" xmlns="http://www.w3.org/2000/svg">
        <path d="M12.2 20.4163C12.2635 20.4721 12.3429 20.5 12.4223 20.5C12.5016 20.5 12.581 20.4721 12.6448 20.4163C13.0028 20.1027 21.3993 12.695 21.4136 8.50229C21.4191 8.41011 21.4226 8.31759 21.4226 8.22422C21.4226 5.63718 19.3279 3.53265 16.7533 3.53265C14.8018 3.53265 13.1257 4.74207 12.429 6.45406C11.7404 4.72472 10.0556 3.5 8.09161 3.5C5.51711 3.5 3.42261 5.6047 3.42261 8.19156C3.42261 8.83649 3.55107 9.46186 3.80427 10.0503C5.45127 14.4727 11.925 20.1755 12.2 20.4163Z"/>
    </svg>
    <svg id="dropdown" xmlns="http://www.w3.org/2000/svg" width="25" height="24" viewBox="0 0 25 24">
        <path d="M3.04077 5.76526L21.5435 5.76526L21.9584 5.76526C22.2107 5.76526 22.3503 6.05778 22.1916 6.25394L12.7328 17.9464C12.6127 18.0948 12.3864 18.0948 12.2663 17.9464L2.80753 6.25394C2.64884 6.05778 2.78846 5.76526 3.04077 5.76526Z"/>
    </svg>
    <svg id="profile" xmlns="http://www.w3.org/2000/svg" viewBox="0 0 32 32" fill="none">
       <g clip-path="url(#clip0_2680_9832)">
       <mask id="mask0_2680_9832" style="mask-type:luminance" maskUnits="userSpaceOnUse" x="0" y="0" width="32" height="32">
       <path d="M32 0H0V32H32V0Z" fill="white"/>
       </mask>
       <g mask="url(#mask0_2680_9832)">
       <path xmlns="http://www.w3.org/2000/svg" d="M16 31.5C24.5604 31.5 31.5 24.5604 31.5 16C31.5 7.43959 24.5604 0.5 16 0.5C7.43959 0.5 0.5 7.43959 0.5 16C0.5 24.5604 7.43959 31.5 16 31.5Z"/>
       <path d="M20.4234 7.37601C21.554 8.5967 22.1134 10.2469 21.981 12.0369C21.7135 15.6614 18.9724 18.5 16.0002 18.5C13.0277 18.5 10.2822 15.6605 10.0189 12.0364C9.88805 10.2262 10.4455 8.57278 11.5668 7.36377C12.6767 6.16731 14.2452 5.5 16.0002 5.5C17.7432 5.5 19.3066 6.1702 20.4234 7.37601Z"/>
       <path d="M25.6213 28.4483C24.513 24.1712 20.627 21.0127 16.0034 21.0127C11.376 21.0127 7.48745 24.1764 6.38281 28.4588"/>
       </g>
       </g>
       <defs>
       <clipPath id="clip0_2680_9832">
       <rect width="32" height="32" fill="white"/>
       </clipPath>
       </defs>
    </svg>
</svg>