<svg width="24" height="24" viewBox="0 0 24 24" fill="none" xmlns="http://www.w3.org/2000/svg">
  <path d="M21.5514 11.5866C21.3846 11.3585 17.4105 6 12.3349 6C7.25932 6 3.28508 11.3585 3.11847 11.5864C3.04149 11.6919 3 11.8191 3 11.9497C3 12.0803 3.04149 12.2075 3.11847 12.3129C3.28508 12.5411 7.25932 17.8996 12.3349 17.8996C17.4105 17.8996 21.3846 12.541 21.5514 12.3131C21.6285 12.2077 21.67 12.0805 21.67 11.9499C21.67 11.8193 21.6285 11.6921 21.5514 11.5866ZM12.3349 16.6686C8.5962 16.6686 5.35808 13.1121 4.39952 11.9494C5.35684 10.7857 8.58818 7.23098 12.3349 7.23098C16.0734 7.23098 19.3114 10.7869 20.2703 11.9502C19.313 13.1139 16.0817 16.6686 12.3349 16.6686Z" fill="#D2628C" />
  <path d="M12.3356 8.25696C10.2993 8.25696 8.64258 9.91367 8.64258 11.9499C8.64258 13.9862 10.2993 15.6429 12.3356 15.6429C14.3718 15.6429 16.0286 13.9862 16.0286 11.9499C16.0286 9.91367 14.3718 8.25696 12.3356 8.25696ZM12.3356 14.4119C10.978 14.4119 9.8736 13.3075 9.8736 11.9499C9.8736 10.5924 10.978 9.48798 12.3356 9.48798C13.6931 9.48798 14.7975 10.5924 14.7975 11.9499C14.7975 13.3075 13.6932 14.4119 12.3356 14.4119Z" fill="#D2628C" />
</svg>