<svg xmlns="http://www.w3.org/2000/svg" width="144" height="120" viewBox="0 0 144 120" fill="none">
<rect x="1.5" y="1.5" width="117" height="117" rx="28.5" stroke="#E6ECFF" stroke-width="3"/>
<path d="M78.946 52.6595L78.946 52.6593C79.3739 46.8724 77.5656 41.5331 73.9063 37.5822C70.2915 33.6794 65.2322 31.5117 59.596 31.5117C53.9214 31.5117 48.8458 33.6698 45.2529 37.5427L78.946 52.6595ZM78.946 52.6595C78.0823 64.3627 69.2286 73.5535 59.596 73.5535C49.9624 73.5535 41.0946 64.3598 40.2442 52.6577L78.946 52.6595ZM40.2442 52.6572C39.8212 46.8058 41.6228 41.4565 45.2528 37.5428L40.2442 52.6572Z" stroke="#E6ECFF" stroke-width="3"/>
<path d="M65.5151 92.9798C64.8095 92.5528 64.0168 92.4342 63.2161 92.6477C61.916 92.9956 60.8061 94.158 60.061 95.1465C59.7201 94.3241 59.1652 93.3989 58.2931 92.8612C57.4449 92.3314 56.4223 92.2365 55.3362 92.5844C53.6873 93.1142 52.6329 94.1897 52.2841 95.7C51.4121 99.4799 55.2094 105.102 57.3418 107.135C57.6589 107.443 58.0791 107.593 58.4913 107.593C58.8718 107.593 59.2444 107.467 59.5536 107.214C62.2807 104.968 67.267 99.2269 66.9975 95.4707C66.9182 94.3874 66.4109 93.5254 65.5151 92.9798ZM58.5468 105.996C58.5468 105.996 58.4675 106.027 58.4358 105.996C56.4619 104.114 53.1324 99.0371 53.822 96.0559C54.044 95.0912 54.6941 94.4427 55.8198 94.0869C56.0972 93.9999 56.3509 93.9524 56.5808 93.9524C56.8979 93.9524 57.1912 94.0315 57.4528 94.1976C58.4596 94.8223 58.9115 96.5303 59.0066 97.1392C59.0542 97.4793 59.3158 97.7481 59.6567 97.8035C59.9896 97.8588 60.3305 97.7007 60.489 97.4002C60.9092 96.6252 62.2886 94.5455 63.6442 94.1818C64.0247 94.079 64.3576 94.1264 64.6985 94.332C65.1583 94.6088 65.3882 95.0121 65.4279 95.5814C65.6181 98.3254 61.4879 103.584 58.5547 105.996H58.5468Z" fill="#E6ECFF"/>
<path d="M59.3479 109.317C59.2686 109.183 59.1656 109.064 59.0308 108.977C58.896 108.89 58.7454 108.843 58.571 108.843C58.3252 108.843 58.1033 108.914 57.9051 109.056C57.7069 109.198 57.5404 109.38 57.3898 109.602C57.2471 109.815 57.1361 110.052 57.0648 110.305C56.9934 110.559 56.9538 110.796 56.9538 111.009C56.9538 111.167 56.9696 111.333 57.0093 111.5C57.041 111.666 57.1044 111.816 57.1837 111.958C57.263 112.093 57.366 112.211 57.5008 112.306C57.6356 112.401 57.7941 112.448 57.9764 112.448C58.2222 112.448 58.4442 112.369 58.6423 112.219C58.8405 112.069 59.007 111.879 59.1418 111.658C59.2765 111.436 59.3875 111.191 59.4589 110.938C59.5302 110.685 59.5699 110.448 59.5699 110.234C59.5699 110.092 59.554 109.934 59.5144 109.768C59.4747 109.602 59.4192 109.451 59.34 109.309L59.3479 109.317Z" fill="#E6ECFF"/>
<path d="M98 116C95.625 98.8792 80.9868 85 60 85C39.0132 85 24.375 98.8792 22 116" stroke="#E6ECFF" stroke-width="3"/>
<rect x="96" y="49.2" width="48" height="48" rx="24" fill="#F2F5FF"/>
<circle cx="120" cy="73.2" r="16.5" stroke="#E6ECFF" stroke-width="3"/>
<path d="M120 61.9998L120 83.9998" stroke="#E6ECFF" stroke-width="3" stroke-linecap="round"/>
<path d="M131 72.9998L109 72.9998" stroke="#E6ECFF" stroke-width="3" stroke-linecap="round"/>
</svg>