<svg width="36" height="34" viewBox="0 0 36 34" fill="none" xmlns="http://www.w3.org/2000/svg">
  <path d="M17.5549 33.8326C17.6818 33.9442 17.8406 34 17.9993 34C18.1581 34 18.3168 33.9442 18.4445 33.8326C19.1604 33.2054 35.9533 18.39 35.9821 10.0046C35.9929 9.82022 36 9.63517 36 9.44843C36 4.27436 31.8107 0.0653092 26.6613 0.0653092C22.7584 0.0653092 19.4061 2.48414 18.0129 5.90812C16.6355 2.44944 13.266 0 9.338 0C4.189 0 0 4.20939 0 9.38312C0 10.673 0.256925 11.9237 0.763329 13.1007C4.05732 21.9453 17.0048 33.351 17.5549 33.8326Z" fill="#B71351" />
</svg>