<svg  xmlns="http://www.w3.org/2000/svg" xmlns:xlink="http://www.w3.org/1999/xlink" viewBox="0 0 300 300">
    <style>:root>svg{display:none}:root>svg:target{display:block}</style>
    <svg id="heart" viewBox="0 0 25 24" xmlns="http://www.w3.org/2000/svg">
        <path d="M12.2 20.4163C12.2635 20.4721 12.3429 20.5 12.4223 20.5C12.5016 20.5 12.581 20.4721 12.6448 20.4163C13.0028 20.1027 21.3993 12.695 21.4136 8.50229C21.4191 8.41011 21.4226 8.31759 21.4226 8.22422C21.4226 5.63718 19.3279 3.53265 16.7533 3.53265C14.8018 3.53265 13.1257 4.74207 12.429 6.45406C11.7404 4.72472 10.0556 3.5 8.09161 3.5C5.51711 3.5 3.42261 5.6047 3.42261 8.19156C3.42261 8.83649 3.55107 9.46186 3.80427 10.0503C5.45127 14.4727 11.925 20.1755 12.2 20.4163Z"/>
    </svg>
    <svg id="dropdown" xmlns="http://www.w3.org/2000/svg" width="25" height="24" viewBox="0 0 25 24">
        <path d="M3.04077 5.76526L21.5435 5.76526L21.9584 5.76526C22.2107 5.76526 22.3503 6.05778 22.1916 6.25394L12.7328 17.9464C12.6127 18.0948 12.3864 18.0948 12.2663 17.9464L2.80753 6.25394C2.64884 6.05778 2.78846 5.76526 3.04077 5.76526Z"/>
    </svg>
    <svg id="profile" xmlns="http://www.w3.org/2000/svg" viewBox="0 0 32 32" fill="none">
       <g clip-path="url(#clip0_2680_9832)">
       <mask id="mask0_2680_9832" style="mask-type:luminance" maskUnits="userSpaceOnUse" x="0" y="0" width="32" height="32">
       <path d="M32 0H0V32H32V0Z" fill="white"/>
       </mask>
       <g mask="url(#mask0_2680_9832)">
       <path xmlns="http://www.w3.org/2000/svg" d="M16 31.5C24.5604 31.5 31.5 24.5604 31.5 16C31.5 7.43959 24.5604 0.5 16 0.5C7.43959 0.5 0.5 7.43959 0.5 16C0.5 24.5604 7.43959 31.5 16 31.5Z"/>
       <path d="M20.4234 7.37601C21.554 8.5967 22.1134 10.2469 21.981 12.0369C21.7135 15.6614 18.9724 18.5 16.0002 18.5C13.0277 18.5 10.2822 15.6605 10.0189 12.0364C9.88805 10.2262 10.4455 8.57278 11.5668 7.36377C12.6767 6.16731 14.2452 5.5 16.0002 5.5C17.7432 5.5 19.3066 6.1702 20.4234 7.37601Z"/>
       <path d="M25.6213 28.4483C24.513 24.1712 20.627 21.0127 16.0034 21.0127C11.376 21.0127 7.48745 24.1764 6.38281 28.4588"/>
       </g>
       </g>
       <defs>
       <clipPath id="clip0_2680_9832">
       <rect width="32" height="32" fill="white"/>
       </clipPath>
       </defs>
    </svg>
    <svg id="prev" xmlns="http://www.w3.org/2000/svg" viewBox="0 0 16 16">
        <path fill-rule="evenodd" clip-rule="evenodd" d="M8.00601 1.04878L1.03331 7.70732C0.864041 7.86896 0.864038 8.13104 1.03331 8.29269L8.00601 14.9512L8.38913 14.5854L1.49305 8L8.38913 1.41464L8.00601 1.04878Z"/>
        <path fill-rule="evenodd" clip-rule="evenodd" d="M15.0936 7.92423H1.30149V8.44163H15.0936L15.0936 7.92423Z"/>
        <path fill-rule="evenodd" clip-rule="evenodd" d="M15.5 7.53618L2.55342 7.53618L8.9638 1.41463L8.00601 0.5L0.745972 7.43293C0.418013 7.74611 0.418007 8.25389 0.745972 8.56707L0.895134 8.70951V8.82967H1.02096L8.00601 15.5L8.9638 14.5854L2.93654 8.82967H15.5L15.5 7.53618Z"/>
    </svg>
    <svg id="next" xmlns="http://www.w3.org/2000/svg" viewBox="0 0 16 16">
        <path fill-rule="evenodd" clip-rule="evenodd" d="M7.99399 1.04878L14.9667 7.70732C15.136 7.86896 15.136 8.13104 14.9667 8.29269L7.99399 14.9512L7.61087 14.5854L14.5069 8L7.61087 1.41464L7.99399 1.04878Z"/>
        <path fill-rule="evenodd" clip-rule="evenodd" d="M0.906353 7.92423H14.6985V8.44163H0.906353L0.906353 7.92423Z"/>
        <path fill-rule="evenodd" clip-rule="evenodd" d="M0.5 7.53618L13.4466 7.53618L7.0362 1.41463L7.99399 0.5L15.254 7.43293C15.582 7.74611 15.582 8.25389 15.254 8.56707L15.1049 8.70951V8.82967H14.979L7.99399 15.5L7.0362 14.5854L13.0635 8.82967H0.5L0.5 7.53618Z"/>
    </svg>
    <svg id="doc" xmlns="http://www.w3.org/2000/svg" viewBox="0 0 32 32">
        <path fill-rule="evenodd" clip-rule="evenodd" d="M25 1H7C5.34315 1 4 2.34315 4 4V28C4 29.6569 5.34315 31 7 31H25C26.6569 31 28 29.6569 28 28V4C28 2.34315 26.6569 1 25 1ZM7 0C4.79086 0 3 1.79086 3 4V28C3 30.2091 4.79086 32 7 32H25C27.2091 32 29 30.2091 29 28V4C29 1.79086 27.2091 0 25 0H7Z"/>
        <path fill-rule="evenodd" clip-rule="evenodd" d="M25 1H19V4C19 5.65685 20.3431 7 22 7H28V4C28 2.34315 26.6569 1 25 1ZM18 0V4C18 6.20914 19.7909 8 22 8H29V4C29 1.79086 27.2091 0 25 0H18Z"/>
        <path fill-rule="evenodd" clip-rule="evenodd" d="M24 14H8V13H24V14Z"/>
        <path fill-rule="evenodd" clip-rule="evenodd" d="M24 20H8V19H24V20Z"/>
        <path fill-rule="evenodd" clip-rule="evenodd" d="M24 26H8V25H24V26Z"/>
    </svg>
    <svg id="person" xmlns="http://www.w3.org/2000/svg" viewBox="0 0 32 32">
        <path d="M20.7379 3.66064C19.3658 2.15992 17.4492 1.3335 15.3338 1.3335C13.2071 1.3335 11.2842 2.15492 9.91836 3.64635C8.53771 5.15421 7.86501 7.2035 8.02296 9.41635C8.33604 13.7821 11.6156 17.3335 15.3338 17.3335C19.052 17.3335 22.3259 13.7828 22.6439 9.41778C22.804 7.22492 22.1271 5.17992 20.7379 3.66064Z"/>
        <path d="M28.3182 29.9143C26.8405 24.2115 21.6593 20.0002 15.4944 20.0002C9.32452 20.0002 4.13985 24.2184 2.66699 29.9283L28.3182 29.9143Z"/>
    </svg>
    <svg id="icon-close" xmlns="http://www.w3.org/2000/svg" viewBox="0 0 14 14">
        <path fill-rule="evenodd" clip-rule="evenodd" d="M12.5 13.1036L0.999999 1.60359L1.70711 0.896484L13.2071 12.3965L12.5 13.1036Z"></path>
        <path fill-rule="evenodd" clip-rule="evenodd" d="M0.792969 12.3965L12.293 0.896484L13.0001 1.60359L1.50008 13.1036L0.792969 12.3965Z"></path>
    </svg>
    <svg id="modal-close" xmlns="http://www.w3.org/2000/svg" viewBox="0 0 40 40">
        <path fill-rule="evenodd" clip-rule="evenodd" d="M31.076 32.5L7.91692 8.94815L9.34092 7.5L32.5 31.0519L31.076 32.5Z"/>
        <path fill-rule="evenodd" clip-rule="evenodd" d="M7.5 31.0519L30.6591 7.5L32.0831 8.94815L8.924 32.5L7.5 31.0519Z"/>
    </svg>
</svg>