<svg width="256" height="142" viewBox="0 0 256 142" fill="none" xmlns="http://www.w3.org/2000/svg">
<g clip-path="url(#clip0_1620_4412)">
<path fill-rule="evenodd" clip-rule="evenodd" d="M74.3449 110.089C77.0871 103.824 79.8293 97.5389 82.5715 91.2742C69.2261 68.2833 38.3103 75.0143 22.7508 50.1177C7.35383 17.3547 40.4431 -4.19669 72.1511 25.5657C85.7402 14.1108 100.203 4.84557 124.842 21.2068C129.412 18.2062 133.983 15.2056 138.553 12.2051C121.755 -4.68327 100.629 -2.79778 76.5386 11.9415C54.9463 -6.14301 35.9337 -3.68984 19.4602 19.301C-13.0197 82.5563 57.6073 74.0817 74.3449 110.089Z" fill="#477497"/>
<path fill-rule="evenodd" clip-rule="evenodd" d="M5.46458 43.8327C2.07237 95.8156 58.5212 88.9224 81.7588 127.808C80.0119 132.532 78.2853 137.256 76.5385 141.98C51.7367 103.175 -20.2309 97.3767 5.46458 43.8327Z" fill="#477497"/>
<path fill-rule="evenodd" clip-rule="evenodd" d="M79.0176 114.731C88.8692 99.9515 100.549 90.4227 115.519 90.1996C105.708 106.52 97.8068 109.663 79.0176 114.731Z" fill="#56C5D0"/>
<path fill-rule="evenodd" clip-rule="evenodd" d="M124.842 68.9118C100.365 71.3447 88.4618 86.8341 80.1133 105.993C89.9649 95.4304 100.142 85.1514 120.718 83.3673C122.099 78.5623 123.46 73.737 124.842 68.9118Z" fill="#56C5D0"/>
<path d="M253.177 32.4994V25.0791H241.274C239.811 25.0791 238.775 25.3629 238.186 25.9509C237.577 26.5388 237.272 27.5728 237.272 29.0731C237.272 30.4518 237.556 31.3844 238.146 31.8304C238.735 32.2764 239.832 32.4994 241.457 32.4994H253.177ZM255.188 42.3932H253.177V34.4458H243.488L237.272 42.3932H234.469L241.071 34.4458C239.141 34.4458 237.699 33.9997 236.724 33.1279C235.749 32.2562 235.261 30.8978 235.261 29.0934C235.261 26.9443 235.789 25.4238 236.866 24.5114C237.922 23.5991 239.669 23.1531 242.107 23.1531H255.208V42.3932H255.188ZM230.61 25.1399H214.766V37.8721C214.766 39.5143 214.38 40.7105 213.588 41.4201C212.877 42.0891 211.8 42.4135 210.338 42.4135H209.525V40.4672H210.581C211.17 40.4672 211.658 40.305 212.003 39.9603C212.491 39.5143 212.734 38.8047 212.734 37.8518V23.1328H232.621V42.4135H230.61V25.1399ZM207.291 23.1531H202.984L193.194 39.5954L183.342 23.1531H179.036V42.4338H181.047V24.7142H182.205L192.686 42.4338H193.722L204.203 24.7142H205.32V42.4338H207.331V23.1531H207.291ZM158.398 42.4338V23.1531H175.562V25.0994H160.409V31.4857H175.217V33.4321H160.409V40.4874H175.603V42.4338H158.398ZM132.357 36.98H134.368C134.368 38.2167 134.754 39.1291 135.526 39.6968C136.298 40.2644 137.578 40.5483 139.386 40.5483H147.897C149.847 40.5483 151.208 40.2847 151.959 39.7576C152.711 39.2305 153.076 38.2167 153.076 36.7165C153.076 35.7028 152.853 34.9323 152.406 34.4052C151.858 33.7767 151.004 33.4726 149.806 33.4726H137.801V31.5263H149.258C150.578 31.5263 151.492 31.3235 151.959 30.9181C152.426 30.5126 152.67 29.7624 152.67 28.6271C152.67 27.2282 152.304 26.2753 151.593 25.7076C150.883 25.1602 149.562 24.8764 147.633 24.8764H139.406C137.557 24.8764 136.237 25.2008 135.465 25.809C134.754 26.3767 134.389 27.2484 134.389 28.4243H132.378C132.378 24.7547 134.734 22.9301 139.426 22.9301H147.653C150.07 22.9301 151.858 23.4166 153.036 24.4303C154.133 25.3629 154.681 26.6605 154.681 28.3432C154.681 29.6205 154.437 30.5937 153.99 31.2627C153.625 31.8101 153.076 32.1751 152.365 32.3778C153.34 32.7022 154.031 33.2496 154.458 33.9795C154.884 34.7093 155.108 35.7636 155.108 37.1625C155.108 39.048 154.559 40.4064 153.462 41.2376C152.365 42.0688 150.517 42.4946 147.937 42.4946H139.426C136.907 42.4946 135.1 42.0486 134.003 41.1362C132.906 40.2442 132.357 38.8452 132.357 36.98Z" fill="#477497"/>
<path d="M254.375 64.3704V81.6845H256V88.8615H254.07V83.6308H233.554V88.8615H231.645V81.6845H232.681C233.514 81.0965 234.143 80.4072 234.57 79.6368C234.996 78.8664 235.199 77.8932 235.199 76.7376V64.3704H254.375ZM252.364 81.6642V66.2964H237.21V76.1902C237.21 77.3864 237.048 78.4406 236.743 79.353C236.378 80.4072 235.809 81.1776 235.098 81.6642H252.364ZM201.704 83.6105V64.3298H203.715V72.6625H220.96V64.3298H222.971V83.6105H220.96V74.6696H203.715V83.6105H201.704ZM192.502 77.0012C192.502 79.6773 191.974 81.4615 190.938 82.3738C189.984 83.205 188.176 83.6308 185.515 83.6308H177.004C174.343 83.6308 172.494 83.1442 171.397 82.1711C170.321 81.1979 169.772 79.4746 169.772 77.0214V71.0203C169.772 68.5266 170.301 66.7424 171.357 65.7085C172.413 64.6542 174.302 64.1474 177.004 64.1474H185.515C188.013 64.1474 189.78 64.5934 190.776 65.4854C191.934 66.4992 192.502 68.3644 192.502 71.0406V77.0012ZM190.491 70.8378C190.491 68.932 190.146 67.6548 189.476 67.0263C188.785 66.3775 187.465 66.0734 185.474 66.0734H176.963C175.074 66.0734 173.754 66.4181 172.962 67.0871C172.169 67.7562 171.783 69.0132 171.783 70.8581V77.0214C171.783 78.8461 172.149 80.0828 172.901 80.7316C173.652 81.3804 174.993 81.6845 176.963 81.6845H185.474C187.505 81.6845 188.846 81.3804 189.516 80.7721C190.166 80.1639 190.491 78.9069 190.491 77.0214V70.8378ZM145.6 64.1068H147.611V65.8301H153.502C156.143 65.8301 158.032 66.3978 159.149 67.5534C160.185 68.6279 160.713 70.3512 160.713 72.7233V75.1157C160.713 77.5891 160.185 79.2921 159.108 80.2653C158.032 81.2384 156.163 81.725 153.502 81.725H147.611V83.6105H145.6V81.725H139.71C137.049 81.725 135.2 81.2384 134.104 80.2653C133.027 79.2921 132.479 77.5688 132.479 75.1157V72.7233C132.479 70.2296 133.007 68.4455 134.063 67.4115C135.119 66.3775 136.988 65.8504 139.71 65.8504H145.6V64.1068ZM147.611 67.7764V79.7787H153.522C155.452 79.7787 156.813 79.4543 157.565 78.8258C158.316 78.1973 158.702 76.9606 158.702 75.1157V72.5814C158.702 70.777 158.316 69.52 157.504 68.8307C156.711 68.1414 155.371 67.7967 153.522 67.7967H147.611V67.7764ZM145.6 67.7764H139.71C137.841 67.7764 136.521 68.1211 135.708 68.8104C134.916 69.4997 134.53 70.7567 134.53 72.5611V75.0954C134.53 76.9403 134.896 78.1771 135.647 78.8056C136.399 79.434 137.739 79.7584 139.71 79.7584H145.6V67.7764Z" fill="#56C5D0"/>
<path d="M253.726 53.4021V48.7593H246.271C245.357 48.7593 244.707 48.9418 244.342 49.3067C243.956 49.6716 243.773 50.3204 243.773 51.2733C243.773 52.1451 243.956 52.7128 244.321 52.9966C244.687 53.2804 245.378 53.4021 246.393 53.4021H253.726ZM254.986 59.5857H253.726V54.6185H247.673L243.773 59.5857H242.026L246.17 54.6185C244.971 54.6185 244.057 54.355 243.448 53.7873C242.839 53.2399 242.534 52.3884 242.534 51.253C242.534 49.9149 242.859 48.9621 243.529 48.3944C244.2 47.8267 245.296 47.5429 246.8 47.5429H255.006V59.5857H254.986ZM230.732 55.3687H237.943L234.328 48.4146L230.732 55.3687ZM228.498 59.606H227.096L233.414 47.5429H235.343L241.64 59.606H240.178L238.614 56.5851H230.062L228.498 59.606ZM213.02 59.606V47.5429H214.279V52.51H216.31L224.578 47.5429H226.71L217.631 53.0371L226.629 59.606H224.456L216.351 53.7265H214.259V59.606H213.02ZM206.702 59.6465H201.381C199.735 59.6465 198.577 59.3221 197.907 58.6734C197.237 58.0246 196.891 56.9095 196.891 55.3281V51.8207C196.891 50.2393 197.237 49.0837 197.927 48.4146C198.618 47.7253 199.756 47.4009 201.381 47.4009H206.702C209.648 47.4009 211.11 48.5566 211.11 50.8475H209.851C209.851 50.1177 209.628 49.5703 209.201 49.2256C208.693 48.8201 207.86 48.6174 206.723 48.6174H201.401C200.162 48.6174 199.309 48.8404 198.862 49.2864C198.395 49.7325 198.171 50.584 198.171 51.8207V55.3281C198.171 56.5243 198.395 57.3353 198.862 57.761C199.329 58.1868 200.162 58.4098 201.401 58.4098H206.723C207.86 58.4098 208.653 58.2273 209.14 57.8827C209.628 57.5177 209.851 56.9501 209.851 56.1796H211.11C211.11 57.3353 210.765 58.2071 210.095 58.7747C209.424 59.3627 208.287 59.6465 206.702 59.6465ZM194.515 47.5631V58.3895H195.531V62.8701H194.332V59.606H181.495V62.8701H180.296V58.3895H180.946C181.474 58.0246 181.86 57.5988 182.124 57.1122C182.388 56.6257 182.51 56.0174 182.51 55.2876V47.5429H194.515V47.5631ZM193.256 58.3895V48.7796H183.77V54.9632C183.77 55.7133 183.668 56.3621 183.465 56.9501C183.221 57.6191 182.896 58.0854 182.429 58.3895H193.256ZM178.651 55.47C178.651 57.1325 178.326 58.2476 177.676 58.8153C177.087 59.3424 175.949 59.606 174.284 59.606H168.962C167.296 59.606 166.138 59.3019 165.448 58.6936C164.777 58.0854 164.432 57.0109 164.432 55.47V51.7193C164.432 50.1582 164.757 49.0431 165.427 48.3944C166.098 47.7456 167.255 47.4212 168.962 47.4212H174.284C175.848 47.4212 176.944 47.7051 177.574 48.2525C178.305 48.881 178.651 50.0569 178.651 51.7193V55.47ZM177.391 51.618C177.391 50.4218 177.168 49.6311 176.741 49.2256C176.315 48.8201 175.482 48.6174 174.243 48.6174H168.921C167.743 48.6174 166.91 48.8201 166.423 49.2459C165.935 49.6716 165.691 50.4421 165.691 51.5977V55.4498C165.691 56.5851 165.935 57.3758 166.402 57.761C166.869 58.1665 167.723 58.349 168.941 58.349H174.263C175.543 58.349 176.376 58.1665 176.782 57.7813C177.188 57.3961 177.391 56.6257 177.391 55.4295V51.618ZM151.615 53.4021H158.948C159.983 53.4021 160.654 53.2804 160.999 53.0169C161.385 52.733 161.568 52.1451 161.568 51.253C161.568 50.3407 161.385 49.6919 160.999 49.327C160.613 48.9418 159.983 48.7593 159.069 48.7593H151.635V53.4021H151.615ZM150.335 59.5857V47.5429H158.541C160.065 47.5429 161.141 47.8267 161.812 48.3944C162.482 48.9621 162.807 49.9149 162.807 51.253C162.807 52.5708 162.482 53.4426 161.852 53.9089C161.223 54.3752 160.105 54.5983 158.541 54.5983H151.594V59.5654H150.335V59.5857ZM148.405 55.47C148.405 57.1325 148.08 58.2476 147.43 58.8153C146.841 59.3424 145.704 59.606 144.038 59.606H138.716C137.051 59.606 135.893 59.3019 135.222 58.6936C134.532 58.0854 134.207 57.0109 134.207 55.47V51.7193C134.207 50.1582 134.532 49.0431 135.202 48.3944C135.872 47.7456 137.03 47.4212 138.736 47.4212H144.058C145.622 47.4212 146.719 47.7051 147.349 48.2525C148.08 48.881 148.426 50.0569 148.426 51.7193V55.47H148.405ZM147.166 51.618C147.166 50.4218 146.943 49.6311 146.516 49.2256C146.09 48.8201 145.257 48.6174 144.018 48.6174H138.696C137.518 48.6174 136.685 48.8201 136.197 49.2459C135.71 49.6716 135.466 50.4421 135.466 51.5977V55.4498C135.466 56.5851 135.69 57.3758 136.157 57.761C136.624 58.1665 137.477 58.349 138.696 58.349H144.018C145.297 58.349 146.13 58.1665 146.536 57.7813C146.943 57.3961 147.146 56.6257 147.146 55.4295V51.618H147.166ZM121.918 47.5429V59.606H123.177V48.7593H132.338V47.5429H121.918ZM108.857 59.606V47.5429H119.602V48.7593H110.116V52.7533H119.379V53.9698H110.116V58.3895H119.622V59.606H108.857ZM94.7799 59.606H96.0393V53.7265H98.2737L105.343 59.606H107.313L99.3097 53.0777L107.15 47.5226H105.119L98.0503 52.51H96.019V47.5226H94.7596V52.51H92.7284L85.6596 47.5226H83.6283L91.4893 53.0777L83.4861 59.606H85.4564L92.5252 53.7265H94.7596V59.606H94.7799ZM82.1455 59.606V47.5429H79.708L70.1001 58.6734H69.9985V47.5429H68.7392V59.606H70.7907L80.4189 48.4755H80.8861V59.606H82.1455ZM53.4844 59.606V47.5429H54.7438V52.7533H65.5298V47.5429H66.7891V59.606H65.5298V54.0103H54.7438V59.606H53.4844Z" fill="#477497"/>
</g>
<defs>
<clipPath id="clip0_1620_4412">
<rect width="256" height="142" fill="white"/>
</clipPath>
</defs>
</svg>
