<svg width="450" height="160" viewBox="0 0 450 160" fill="none" xmlns="http://www.w3.org/2000/svg">
<rect x="2" width="448" height="160" fill="#D4DEFE"/>
<path d="M159.191 126.593C159.191 126.968 159.039 127.329 158.772 127.595C158.504 127.861 158.139 128.012 157.759 128.015H152.557C152.176 128.012 151.811 127.862 151.54 127.596C151.271 127.329 151.118 126.969 151.115 126.593V121.702C151.115 121.516 151.078 121.333 151.006 121.162C150.934 120.99 150.829 120.835 150.696 120.704C150.563 120.573 150.405 120.469 150.232 120.398C150.057 120.327 149.872 120.29 149.684 120.29H130.07C129.689 120.287 129.323 120.137 129.053 119.871C128.783 119.605 128.63 119.244 128.628 118.868V76.8497C128.628 76.4724 128.779 76.1107 129.05 75.844C129.32 75.5773 129.687 75.4274 130.07 75.4274H139.544C139.925 75.4303 140.288 75.5814 140.557 75.8478C140.825 76.1142 140.975 76.4744 140.975 76.8497V109.904C140.978 110.28 141.131 110.641 141.4 110.907C141.67 111.173 142.036 111.324 142.417 111.326H143.018C143.4 111.324 143.763 111.172 144.031 110.906C144.3 110.64 144.45 110.28 144.45 109.904V76.8389C144.453 76.4626 144.605 76.1024 144.875 75.8363C145.146 75.5702 145.511 75.4194 145.892 75.4166H155.366C155.748 75.4166 156.116 75.5665 156.385 75.8332C156.656 76.0999 156.808 76.4617 156.808 76.8389V109.893C156.778 110.237 156.886 110.579 157.108 110.845C157.332 111.111 157.651 111.28 157.999 111.316C158.347 111.351 158.667 111.52 158.89 111.786C159.112 112.052 159.22 112.394 159.191 112.738V126.593Z" fill="#AFCA0B"/>
<path d="M123.37 75.4488C123.751 75.4487 124.116 75.597 124.386 75.8614C124.657 76.1258 124.81 76.4849 124.813 76.8602V118.879C124.81 119.255 124.657 119.615 124.387 119.881C124.117 120.147 123.752 120.298 123.37 120.301H113.919C113.538 120.298 113.174 120.147 112.906 119.88C112.638 119.614 112.487 119.254 112.487 118.879V100.315C112.487 99.9379 112.335 99.5761 112.065 99.3094C111.794 99.0427 111.427 98.893 111.045 98.893H110.433C110.05 98.893 109.683 99.0427 109.413 99.3094C109.143 99.5761 108.99 99.9379 108.99 100.315V118.868C108.992 119.056 108.955 119.243 108.883 119.418C108.81 119.592 108.703 119.751 108.568 119.884C108.433 120.018 108.272 120.123 108.095 120.195C107.918 120.266 107.729 120.302 107.537 120.301H98.0964C97.9027 120.305 97.7103 120.271 97.5301 120.201C97.35 120.131 97.1859 120.026 97.0474 119.893C96.909 119.759 96.7991 119.6 96.724 119.424C96.6489 119.248 96.6102 119.059 96.6104 118.868V76.8494C96.6132 76.4741 96.7664 76.1151 97.0366 75.8507C97.3068 75.5863 97.672 75.4379 98.0526 75.4379H107.537C107.917 75.4379 108.281 75.5866 108.549 75.8513C108.818 76.1161 108.969 76.475 108.969 76.8494V87.4941C108.971 87.8694 109.125 88.2283 109.395 88.4927C109.665 88.7571 110.03 88.9055 110.411 88.9055H111.023C111.404 88.9055 111.769 88.7571 112.039 88.4927C112.309 88.2283 112.462 87.8694 112.465 87.4941V76.8602C112.465 76.4858 112.616 76.1269 112.884 75.8621C113.153 75.5974 113.517 75.4488 113.897 75.4488H123.37Z" fill="#AFCA0B"/>
<path d="M92.5145 84.3372C92.2914 82.4775 91.5753 80.7086 90.4383 79.2088C89.262 77.6315 87.6607 76.4109 85.8163 75.6856C83.5332 74.871 81.1197 74.4695 78.6919 74.5006C76.2005 74.4575 73.7235 74.8817 71.3927 75.7503C69.6111 76.4919 68.0634 77.6904 66.9105 79.2213C65.7575 80.7522 65.0414 82.5596 64.8366 84.4556C64.6181 86.3412 64.5088 89.5195 64.5088 94.0337V101.705C64.5088 106.316 64.6181 109.548 64.8366 111.401C65.07 113.257 65.7894 115.021 66.9236 116.519C68.0994 118.1 69.7006 119.324 71.5458 120.053C73.8296 120.864 76.2429 121.261 78.67 121.227C81.1643 121.273 83.6447 120.853 85.9801 119.988C87.7933 119.224 89.361 117.988 90.5148 116.411C91.6175 114.892 92.306 113.118 92.5145 111.261C92.7184 109.394 92.8204 106.208 92.8204 101.705V94.0337C92.8875 90.7986 92.7854 87.562 92.5145 84.3372ZM80.4948 107.577C80.5734 109.253 80.4633 110.934 80.1671 112.587C80.0829 112.916 79.8828 113.205 79.6026 113.402C79.3224 113.599 78.9804 113.692 78.6373 113.664C78.3208 113.701 78.001 113.631 77.7307 113.464C77.4605 113.297 77.256 113.045 77.1513 112.748C76.8654 111.156 76.7591 109.537 76.8344 107.921V86.9768C76.8344 84.6496 76.9982 83.2706 77.326 82.7965C77.4775 82.5701 77.6861 82.3865 77.9313 82.2637C78.1766 82.1409 78.4499 82.0832 78.7247 82.0962C79.0244 82.0668 79.3258 82.1353 79.5823 82.2909C79.839 82.4466 80.0366 82.681 80.1451 82.9581C80.4599 84.2737 80.5777 85.6276 80.4948 86.9768V107.577Z" fill="#AFCA0B"/>
<path d="M59.2747 75.4485C59.6553 75.4485 60.0206 75.5969 60.2907 75.8613C60.5609 76.1257 60.7141 76.4847 60.7171 76.8601V118.878C60.7141 119.255 60.5613 119.615 60.2914 119.881C60.0215 120.147 59.6563 120.298 59.2747 120.301H49.8339C49.4521 120.298 49.0869 120.147 48.817 119.881C48.5472 119.615 48.3943 119.255 48.3915 118.878V100.315C48.3915 100.128 48.3541 99.9433 48.2817 99.7707C48.2092 99.5982 48.103 99.4414 47.969 99.3093C47.8351 99.1772 47.676 99.0725 47.5011 99.0011C47.3261 98.9295 47.1385 98.8928 46.9491 98.8928H46.3482C45.9664 98.8957 45.6013 99.0463 45.3313 99.3124C45.0616 99.5786 44.9086 99.9387 44.9058 100.315V118.868C44.9072 119.055 44.871 119.242 44.7991 119.415C44.7273 119.589 44.6213 119.747 44.4872 119.88C44.3532 120.014 44.1937 120.119 44.0179 120.191C43.8422 120.264 43.6537 120.301 43.4634 120.301H34.0007C33.6201 120.298 33.256 120.147 32.9878 119.88C32.7197 119.614 32.5692 119.254 32.5693 118.878V76.8601C32.5693 76.4856 32.7201 76.1267 32.9886 75.8619C33.2569 75.5973 33.6211 75.4485 34.0007 75.4485H43.4634C43.843 75.4485 44.2072 75.5973 44.4755 75.8619C44.744 76.1267 44.8949 76.4856 44.8949 76.8601V87.5047C44.8963 87.6914 44.935 87.8761 45.0088 88.0481C45.0826 88.2201 45.1901 88.3761 45.3251 88.5072C45.46 88.6382 45.6197 88.7418 45.7953 88.812C45.9708 88.8821 46.1587 88.9175 46.3482 88.9161H46.96C47.3406 88.9161 47.7059 88.7677 47.9761 88.5033C48.2463 88.2389 48.3994 87.88 48.4024 87.5047V76.8601C48.4052 76.4847 48.5585 76.1257 48.8287 75.8613C49.0989 75.5969 49.4641 75.4485 49.8448 75.4485H59.2747Z" fill="#AFCA0B"/>
<path d="M37.7257 69.8029C37.687 69.7717 37.6561 69.7321 37.6351 69.6874C37.6143 69.6425 37.6042 69.5936 37.6055 69.5443V66.743C36.3692 66.8341 35.1427 66.4693 34.1634 65.7195C33.7821 65.3615 33.4765 64.9325 33.2645 64.4572C33.0525 63.9818 32.9385 63.4698 32.9287 62.9506V61.8733C32.9386 61.3558 33.0529 60.8453 33.2649 60.3718C33.4769 59.8982 33.7823 59.4711 34.1634 59.1151C35.1323 58.3414 36.3615 57.9566 37.6055 58.0377V55.3011C37.6056 55.2504 37.6162 55.2004 37.6369 55.154C37.6576 55.1077 37.6879 55.066 37.7257 55.0318C37.766 54.9972 37.8127 54.9709 37.8633 54.9542C37.914 54.9375 37.9674 54.931 38.0207 54.9348H38.3376C38.4446 54.9304 38.5496 54.9649 38.6326 55.0318C38.669 55.0665 38.6975 55.1085 38.7164 55.1549C38.7352 55.2013 38.7439 55.2512 38.7418 55.3011V58.0915C39.9858 58.0105 41.215 58.3953 42.1839 59.169C42.5669 59.5234 42.8736 59.9503 43.0859 60.4242C43.298 60.898 43.4112 61.4092 43.4186 61.9271C43.4186 62.0456 43.4186 62.2179 43.4186 62.4658C43.4186 62.7137 43.4186 62.886 43.4186 62.9937C43.4114 63.5133 43.2984 64.0261 43.0863 64.5018C42.8742 64.9774 42.5673 65.4061 42.1839 65.7626C41.2046 66.5124 39.9781 66.8772 38.7418 66.7861V69.5875C38.7445 69.6358 38.7361 69.6841 38.7171 69.729C38.6982 69.7738 38.6693 69.8137 38.6326 69.846C38.5935 69.883 38.5473 69.9116 38.4965 69.9302C38.4457 69.9487 38.3916 69.9568 38.3376 69.9537H38.0207C37.9628 69.9538 37.9058 69.9401 37.8546 69.9138C37.8032 69.8875 37.7589 69.8496 37.7257 69.8029ZM37.6055 59.0288C35.3545 59.0288 34.1744 59.9986 34.0651 61.9379V62.3904V62.8429C34.1744 64.7822 35.3545 65.7518 37.6055 65.7518V59.0288ZM42.2822 62.8429C42.2948 62.6922 42.2948 62.5409 42.2822 62.3904C42.2954 62.2399 42.2954 62.0884 42.2822 61.9379C42.1729 59.9986 40.9928 59.0288 38.7418 59.0288V65.7842C40.9928 65.7842 42.1729 64.8145 42.2822 62.8752V62.8429Z" fill="#1D1D1B"/>
<path d="M52.2265 65.8601C51.519 65.1203 51.1278 64.1403 51.1339 63.1235V62.4231V61.7229C51.1254 60.7057 51.5171 59.7247 52.2265 58.9863C53.0707 58.3035 54.1287 57.9302 55.2205 57.9302C56.3124 57.9302 57.3704 58.3035 58.2145 58.9863C58.5704 59.349 58.8499 59.7776 59.0375 60.2471C59.225 60.7168 59.3166 61.2182 59.3073 61.7229C59.3073 61.8306 59.3073 62.0675 59.3073 62.4231C59.3073 62.7787 59.3073 63.005 59.3073 63.1235C59.3238 64.1421 58.931 65.126 58.2145 65.8601C57.3704 66.5429 56.3124 66.916 55.2205 66.916C54.1287 66.916 53.0707 66.5429 52.2265 65.8601ZM57.3513 65.192C57.9143 64.6131 58.2243 63.8394 58.2145 63.0373C58.2145 62.9295 58.2145 62.7248 58.2145 62.4231C58.2145 62.1215 58.2145 61.9167 58.2145 61.809C58.2267 61.0065 57.9164 60.2319 57.3513 59.6542C56.9287 59.2361 56.3886 58.9524 55.8008 58.8401C55.2131 58.7276 54.6046 58.7915 54.0541 59.0235C53.5035 59.2554 53.0361 59.6448 52.7123 60.1415C52.3886 60.6379 52.2231 61.2188 52.2376 61.809V62.4231V63.0373C52.2272 63.4352 52.2983 63.831 52.4466 64.2013C52.5949 64.5715 52.8174 64.9085 53.1007 65.192C53.6984 65.6799 54.4501 65.9469 55.2261 65.9469C56.002 65.9469 56.7536 65.6799 57.3513 65.192Z" fill="#1D1D1B"/>
<path d="M67.5781 66.6461C67.5423 66.6108 67.5142 66.5688 67.4953 66.5225C67.4766 66.4762 67.4676 66.4266 67.4689 66.3767V58.4579C67.4685 58.4096 67.4779 58.3619 67.4966 58.3175C67.5155 58.2731 67.5432 58.2328 67.5781 58.1992C67.6188 58.1614 67.667 58.1323 67.7198 58.1138C67.7724 58.0952 67.8284 58.0877 67.8841 58.0915H68.201C68.2568 58.0877 68.3127 58.0952 68.3655 58.1138C68.4182 58.1323 68.4663 58.1614 68.507 58.1992C68.542 58.2328 68.5698 58.2731 68.5886 58.3175C68.6073 58.3619 68.6168 58.4096 68.6163 58.4579V61.8408H74.4075V58.4579C74.4049 58.4094 74.4134 58.3611 74.4323 58.3163C74.4511 58.2715 74.48 58.2315 74.5167 58.1992C74.5558 58.1623 74.6021 58.1336 74.6529 58.1151C74.7037 58.0965 74.7578 58.0884 74.8118 58.0915H75.1287C75.1828 58.0884 75.2368 58.0965 75.2876 58.1151C75.3384 58.1336 75.3848 58.1623 75.4237 58.1992C75.4604 58.2315 75.4893 58.2715 75.5083 58.3163C75.5272 58.3611 75.5356 58.4094 75.5329 58.4579V66.4306C75.5373 66.4808 75.5297 66.5313 75.5107 66.578C75.4917 66.6248 75.4619 66.6666 75.4237 66.7C75.3407 66.7669 75.2358 66.8014 75.1287 66.7969H74.7571C74.6502 66.8014 74.5451 66.7669 74.4622 66.7C74.4239 66.6666 74.3941 66.6248 74.3751 66.578C74.3562 66.5313 74.3485 66.4808 74.3529 66.4306V62.7997H68.5616V66.4306C68.563 66.4804 68.554 66.5301 68.5351 66.5763C68.5164 66.6228 68.4881 66.6648 68.4523 66.7C68.366 66.7684 68.257 66.8031 68.1465 66.7969H67.8405C67.7379 66.7783 67.6452 66.725 67.5781 66.6461Z" fill="#1D1D1B"/>
<path d="M83.0723 68.4782C83.0018 68.4058 82.9626 68.3092 82.963 68.2088V66.151C82.9616 66.1011 82.9706 66.0515 82.9894 66.0052C83.0082 65.9589 83.0364 65.9169 83.0723 65.8816C83.1586 65.8132 83.2676 65.7787 83.3782 65.7847C84.4709 65.7847 85.1047 63.9962 85.1047 60.5055V58.4584C85.102 58.4099 85.1105 58.3616 85.1294 58.3168C85.1484 58.2721 85.1773 58.2321 85.214 58.1999C85.2529 58.1628 85.2992 58.1341 85.3501 58.1156C85.4008 58.097 85.4549 58.0891 85.5089 58.092H90.8522C90.9063 58.0883 90.9606 58.096 91.0114 58.1146C91.0623 58.1332 91.1086 58.1623 91.1473 58.1999C91.1859 58.231 91.2169 58.2705 91.2377 58.3154C91.2586 58.3602 91.2688 58.4091 91.2675 58.4584V65.7524H92.2399C92.347 65.7479 92.452 65.7825 92.535 65.8493C92.5732 65.8828 92.603 65.9245 92.622 65.9713C92.6409 66.0181 92.6486 66.0685 92.6442 66.1187V68.2088C92.6469 68.2589 92.6386 68.3089 92.6197 68.3554C92.6008 68.4019 92.5719 68.4438 92.535 68.4782C92.4536 68.549 92.3484 68.5874 92.2399 68.5859H91.9121C91.8051 68.5904 91.7001 68.5559 91.6171 68.489C91.5801 68.4546 91.5513 68.4127 91.5324 68.3661C91.5135 68.3197 91.5052 68.2697 91.5079 68.2196V66.7436H84.0994V68.2088C84.0997 68.3092 84.0605 68.4058 83.9901 68.4782C83.9072 68.5451 83.8022 68.5796 83.6951 68.5751H83.3782C83.2676 68.5813 83.1586 68.5467 83.0723 68.4782ZM90.1857 65.7524V59.0617H86.2847V60.624C86.2847 63.145 85.8805 64.8581 85.0609 65.7847L90.1857 65.7524Z" fill="#1D1D1B"/>
<path d="M87.356 15.545C76.2757 14.962 65.2132 16.9794 55.0773 21.4314C44.9414 25.8834 36.0214 32.6429 29.05 41.1548L28.9626 41.2517C23.3267 48.0097 19.0573 55.7706 16.3858 64.1141C13.6785 72.741 12.7569 81.8164 13.6759 90.8013C14.0987 94.7486 14.8665 98.6524 15.9705 102.47C19.2867 114.575 25.8837 125.561 35.0536 134.25C44.2236 142.937 55.6201 148.998 68.0197 151.783C80.4194 154.567 93.354 153.97 105.435 150.054C117.516 146.137 128.287 139.05 136.592 129.555C131.274 136.118 124.809 141.693 117.503 146.018C109.086 150.945 99.753 154.158 90.055 155.467C80.2635 156.803 70.3002 156.205 60.746 153.705C51.1918 151.205 42.2377 146.856 34.4062 140.908C26.5747 134.961 20.0223 127.537 15.1311 119.067C10.24 110.598 7.10799 101.253 5.91774 91.577C4.69693 81.5616 5.54439 71.4062 8.40907 61.7223C11.2534 52.3147 15.9092 43.5354 22.1224 35.8647C28.434 28.104 36.1932 21.6054 44.9815 16.7193C54.1799 11.6734 64.2991 8.4696 74.7572 7.29212C91.0267 5.44187 107.478 8.6033 121.852 16.3422C116.297 14.8916 110.594 14.064 104.85 13.875C98.9718 13.737 93.0982 14.2976 87.356 15.545Z" fill="#C6C6C6"/>
<path d="M135.326 21.0831C122.43 11.1492 106.838 5.20659 90.5185 4.00615C74.1993 2.80571 57.8854 6.40129 43.6378 14.3386C34.5801 19.4267 26.5974 26.1821 20.1231 34.2382C13.7573 42.2027 9.01196 51.3047 6.14757 61.0439C3.27512 71.0335 2.4761 81.4917 3.79828 91.7929C5.06557 101.678 8.31476 111.216 13.3566 119.851C18.3985 128.486 25.1323 136.046 33.166 142.089C41.1996 148.134 50.3726 152.542 60.1507 155.057C69.9287 157.571 80.1166 158.143 90.1209 156.738C103.167 154.965 115.475 149.716 125.721 141.557C131.472 137.432 136.562 132.479 140.822 126.862C140.352 127.562 139.86 128.263 139.358 128.952C133.714 136.524 126.63 142.94 118.498 147.839C109.849 153.005 100.237 156.41 90.2301 157.848C80.0515 159.296 69.6826 158.733 59.7262 156.194C49.77 153.655 40.4251 149.189 32.235 143.056C24.045 136.924 17.1732 129.248 12.0193 120.472C6.86547 111.698 3.53236 102 2.21388 91.9436C0.830189 81.4364 1.61065 70.7619 4.50854 60.559C7.4061 50.5949 12.2296 41.2769 18.7135 33.1178C25.3274 24.8432 33.4875 17.8945 42.7528 12.6471C52.4782 7.21695 63.1944 3.73149 74.2878 2.39029C96.5674 -0.321613 119.029 5.78849 136.746 19.3808C139.468 21.4679 142.063 23.7129 144.515 26.1038C141.628 24.2995 138.627 22.6766 135.533 21.2448L135.326 21.0831Z" fill="#C6C6C6"/>
<path d="M128.879 28.7218C123.778 23.9666 117.934 20.0523 111.571 17.129C109.058 16.8223 106.53 16.6497 103.998 16.6119C100.886 16.5992 97.7761 16.7863 94.6885 17.1721C97.5498 17.6732 100.381 18.3314 103.168 19.1437C111.778 21.6296 119.873 25.6022 127.076 30.8766C130.74 33.6088 134.151 36.6554 137.271 39.9806C137.468 39.7988 137.688 39.6432 137.926 39.5174C135.396 35.5486 132.354 31.9199 128.879 28.7218Z" fill="#AFCA0B"/>
<path d="M153.169 53.4269C152.561 51.3893 151.832 49.389 150.983 47.4366C146.901 38.3099 140.831 30.1807 133.206 23.6261L132.299 22.8503C126.7 20.4694 120.829 18.7656 114.815 17.7758C120.313 20.3023 125.507 23.4284 130.298 27.0952C137.919 32.9564 144.401 40.1289 149.432 48.2662C150.525 50.0332 151.53 51.8431 152.47 53.6531C152.694 53.5521 152.929 53.4762 153.169 53.4269Z" fill="#AFCA0B"/>
<path d="M164.358 72.0549C164.03 62.3446 161.589 52.8172 157.201 44.118C155.499 40.6675 153.526 37.3534 151.301 34.206C146.31 30.1638 140.826 26.7542 134.976 24.0568C149.897 36.3142 160.044 53.2977 163.68 72.1088C163.905 72.0715 164.131 72.0535 164.358 72.0549Z" fill="#AFCA0B"/>
<path d="M186.307 45.8515H196.428V58.7016H194.716V47.3678H188.01V58.7016H186.307V45.8515ZM198.692 52.443C198.692 50.3101 199.266 48.6418 200.412 47.438C201.559 46.2284 203.039 45.6236 204.854 45.6236C206.042 45.6236 207.112 45.907 208.067 46.4739C209.021 47.0406 209.746 47.8324 210.243 48.8492C210.746 49.8602 210.998 51.0084 210.998 52.294C210.998 53.5972 210.735 54.763 210.208 55.7915C209.682 56.82 208.936 57.6001 207.97 58.1319C207.005 58.6577 205.963 58.9207 204.845 58.9207C203.634 58.9207 202.552 58.6285 201.598 58.0442C200.643 57.4599 199.921 56.6622 199.429 55.6512C198.938 54.6403 198.692 53.5709 198.692 52.443ZM200.447 52.4693C200.447 54.0179 200.863 55.2393 201.694 56.1334C202.531 57.0216 203.579 57.4656 204.836 57.4656C206.117 57.4656 207.172 57.0157 207.996 56.1158C208.827 55.2159 209.243 53.939 209.243 52.2853C209.243 51.2392 209.064 50.3277 208.707 49.5505C208.357 48.7674 207.838 48.1626 207.154 47.736C206.474 47.3036 205.712 47.0874 204.863 47.0874C203.657 47.0874 202.618 47.5024 201.746 48.3321C200.881 49.1561 200.447 50.5352 200.447 52.4693ZM213.149 58.7016V45.8515H215.712L218.758 54.95C219.039 55.7973 219.243 56.4314 219.373 56.8521C219.519 56.3846 219.746 55.698 220.057 54.7923L223.137 45.8515H225.429V58.7016H223.787V47.9464L220.048 58.7016H218.512L214.79 47.7624V58.7016H213.149ZM227.659 52.443C227.659 50.3101 228.231 48.6418 229.379 47.438C230.526 46.2284 232.006 45.6236 233.821 45.6236C235.008 45.6236 236.079 45.907 237.033 46.4739C237.986 47.0406 238.713 47.8324 239.21 48.8492C239.713 49.8602 239.965 51.0084 239.965 52.294C239.965 53.5972 239.702 54.763 239.175 55.7915C238.647 56.82 237.901 57.6001 236.936 58.1319C235.97 58.6577 234.929 58.9207 233.812 58.9207C232.6 58.9207 231.517 58.6285 230.564 58.0442C229.61 57.4599 228.887 56.6622 228.396 55.6512C227.904 54.6403 227.659 53.5709 227.659 52.443ZM229.414 52.4693C229.414 54.0179 229.83 55.2393 230.661 56.1334C231.497 57.0216 232.544 57.4656 233.803 57.4656C235.084 57.4656 236.137 57.0157 236.963 56.1158C237.794 55.2159 238.21 53.939 238.21 52.2853C238.21 51.2392 238.031 50.3277 237.674 49.5505C237.322 48.7674 236.805 48.1626 236.12 47.736C235.441 47.3036 234.677 47.0874 233.83 47.0874C232.624 47.0874 231.585 47.5024 230.713 48.3321C229.847 49.1561 229.414 50.5352 229.414 52.4693ZM242.194 45.8515H243.897V57.1852H248.171V45.8515H249.875V57.1852H254.15V45.8515H255.852V57.1852H257.02V62.2691H255.501V58.7016H242.194V45.8515ZM259.083 45.8515H260.786V51.3386H263.857C265.291 51.3386 266.33 51.5052 266.973 51.8383C267.617 52.1713 268.079 52.6242 268.36 53.1969C268.641 53.7695 268.781 54.3597 268.781 54.9675C268.781 55.9609 268.442 56.8317 267.763 57.5796C267.085 58.3276 265.82 58.7016 263.971 58.7016H259.083V45.8515ZM260.786 57.2553H263.901C265.166 57.2553 265.987 57.0333 266.367 56.5891C266.754 56.1391 266.948 55.5987 266.948 54.9675C266.948 54.4532 266.807 54.0179 266.525 53.6614C266.251 53.2992 265.882 53.0654 265.42 52.9603C264.958 52.855 264.173 52.8024 263.067 52.8024H260.786V57.2553ZM185.772 80.6527C185.772 78.5198 186.344 76.8515 187.492 75.6477C188.639 74.4381 190.119 73.8333 191.934 73.8333C193.122 73.8333 194.192 74.1167 195.146 74.6835C196.099 75.2503 196.825 76.0421 197.323 77.0589C197.826 78.0699 198.078 79.2181 198.078 80.5037C198.078 81.8069 197.815 82.9727 197.288 84.0012C196.761 85.0297 196.014 85.8098 195.049 86.3416C194.083 86.8674 193.042 87.1304 191.925 87.1304C190.713 87.1304 189.63 86.8382 188.676 86.2539C187.723 85.6695 187 84.8718 186.509 83.8609C186.017 82.85 185.772 81.7806 185.772 80.6527ZM187.527 80.679C187.527 82.2276 187.943 83.4489 188.774 84.343C189.61 85.2313 190.657 85.6753 191.916 85.6753C193.197 85.6753 194.25 85.2254 195.076 84.3255C195.907 83.4256 196.323 82.1487 196.323 80.495C196.323 79.4489 196.144 78.5374 195.787 77.7602C195.435 76.9771 194.918 76.3723 194.234 75.9457C193.554 75.5133 192.79 75.2971 191.941 75.2971C190.737 75.2971 189.698 75.712 188.826 76.5418C187.96 77.3658 187.527 78.7448 187.527 80.679ZM200.334 86.9113V74.0611H202.037V79.338H208.725V74.0611H210.428V86.9113H208.725V80.8544H202.037V86.9113H200.334ZM213.298 74.0611H215V79.6886C215.78 79.6886 216.327 79.5396 216.643 79.2416C216.959 78.9377 217.362 78.2131 217.854 77.0676C218.211 76.2262 218.503 75.6331 218.732 75.2883C218.966 74.9377 219.296 74.6455 219.723 74.4118C220.151 74.1722 220.622 74.0524 221.137 74.0524C221.792 74.0524 222.137 74.0582 222.172 74.07V75.5425C222.114 75.5425 222 75.5396 221.83 75.5338C221.643 75.5279 221.528 75.525 221.487 75.525C220.943 75.525 220.54 75.6565 220.277 75.9194C220.007 76.1824 219.7 76.7434 219.355 77.6023C218.922 78.6893 218.556 79.376 218.258 79.6623C217.959 79.9427 217.602 80.1678 217.187 80.3371C218.018 80.5651 218.837 81.3306 219.645 82.6338L222.295 86.9113H220.18L218.029 83.4226C217.439 82.4584 216.943 81.7981 216.546 81.4417C216.148 81.0793 215.633 80.8981 215 80.8981V86.9113H213.298V74.0611ZM223.023 80.6527C223.023 78.5198 223.597 76.8515 224.744 75.6477C225.892 74.4381 227.372 73.8333 229.185 73.8333C230.373 73.8333 231.444 74.1167 232.398 74.6835C233.352 75.2503 234.077 76.0421 234.576 77.0589C235.078 78.0699 235.329 79.2181 235.329 80.5037C235.329 81.8069 235.066 82.9727 234.54 84.0012C234.013 85.0297 233.267 85.8098 232.302 86.3416C231.336 86.8674 230.295 87.1304 229.176 87.1304C227.965 87.1304 226.883 86.8382 225.929 86.2539C224.975 85.6695 224.253 84.8718 223.761 83.8609C223.27 82.85 223.023 81.7806 223.023 80.6527ZM224.78 80.679C224.78 82.2276 225.194 83.4489 226.025 84.343C226.862 85.2313 227.91 85.6753 229.169 85.6753C230.45 85.6753 231.503 85.2254 232.329 84.3255C233.159 83.4256 233.574 82.1487 233.574 80.495C233.574 79.4489 233.396 78.5374 233.039 77.7602C232.688 76.9771 232.171 76.3723 231.485 75.9457C230.807 75.5133 230.043 75.2971 229.194 75.2971C227.989 75.2971 226.95 75.712 226.078 76.5418C225.212 77.3658 224.78 78.7448 224.78 80.679ZM237.612 74.0611H245.96V75.5775H239.315V79.5396H242.388C243.523 79.5396 244.423 79.6477 245.091 79.8639C245.764 80.08 246.302 80.4891 246.706 81.091C247.109 81.6871 247.312 82.3825 247.312 83.1772C247.312 83.8259 247.166 84.4336 246.873 85.0005C246.585 85.5615 246.155 86.0201 245.583 86.3766C245.009 86.733 244.031 86.9113 242.651 86.9113H237.612V74.0611ZM239.315 85.465H242.72C243.64 85.465 244.327 85.2779 244.784 84.904C245.246 84.53 245.477 83.969 245.477 83.2211C245.477 82.6893 245.345 82.2451 245.082 81.8887C244.819 81.5322 244.453 81.2955 243.985 81.1787C243.517 81.0619 242.718 81.0034 241.588 81.0034H239.315V85.465ZM248.601 80.6527C248.601 78.5198 249.175 76.8515 250.322 75.6477C251.469 74.4381 252.949 73.8333 254.763 73.8333C255.951 73.8333 257.022 74.1167 257.976 74.6835C258.93 75.2503 259.656 76.0421 260.153 77.0589C260.656 78.0699 260.908 79.2181 260.908 80.5037C260.908 81.8069 260.644 82.9727 260.118 84.0012C259.591 85.0297 258.845 85.8098 257.88 86.3416C256.914 86.8674 255.873 87.1304 254.754 87.1304C253.544 87.1304 252.461 86.8382 251.507 86.2539C250.553 85.6695 249.83 84.8718 249.34 83.8609C248.848 82.85 248.601 81.7806 248.601 80.6527ZM250.358 80.679C250.358 82.2276 250.773 83.4489 251.603 84.343C252.441 85.2313 253.488 85.6753 254.747 85.6753C256.028 85.6753 257.081 85.2254 257.906 84.3255C258.738 83.4256 259.152 82.1487 259.152 80.495C259.152 79.4489 258.974 78.5374 258.617 77.7602C258.266 76.9771 257.748 76.3723 257.063 75.9457C256.385 75.5133 255.621 75.2971 254.772 75.2971C253.567 75.2971 252.528 75.712 251.656 76.5418C250.791 77.3658 250.358 78.7448 250.358 80.679ZM263.84 74.0611H271.898V86.9113H270.195V75.5775H265.543V82.1955C265.543 83.5395 265.479 84.5241 265.349 85.1495C265.227 85.7747 264.964 86.2626 264.559 86.6133C264.156 86.9581 263.644 87.1304 263.024 87.1304C262.649 87.1304 262.198 87.0603 261.672 86.92L261.962 85.4124C262.242 85.5293 262.482 85.5877 262.681 85.5877C263.067 85.5877 263.358 85.4445 263.55 85.1582C263.743 84.8659 263.84 84.1823 263.84 83.1071V74.0611ZM274.759 74.0611H276.463V79.5483H279.534C280.968 79.5483 282.007 79.7149 282.65 80.048C283.294 80.381 283.756 80.8339 284.037 81.4065C284.318 81.9792 284.458 82.5694 284.458 83.1772C284.458 84.1706 284.119 85.0414 283.44 85.7893C282.762 86.5372 281.497 86.9113 279.648 86.9113H274.759V74.0611ZM276.463 85.465H279.578C280.842 85.465 281.664 85.2429 282.044 84.7988C282.431 84.3488 282.623 83.8083 282.623 83.1772C282.623 82.6629 282.483 82.2276 282.202 81.8711C281.927 81.5089 281.559 81.2751 281.097 81.17C280.634 81.0647 279.85 81.0121 278.744 81.0121H276.463V85.465ZM286.547 86.9113V74.0611H288.25V79.338H294.939V74.0611H296.641V86.9113H294.939V80.8544H288.25V86.9113H286.547ZM299.574 74.0611H301.277V79.5483H304.348C306.362 79.5483 307.684 79.9194 308.316 80.6616C308.954 81.4037 309.273 82.2451 309.273 83.1859C309.273 84.1794 308.934 85.0501 308.254 85.798C307.576 86.5402 306.315 86.9113 304.471 86.9113H299.574V74.0611ZM301.277 85.465H304.393C305.464 85.465 306.238 85.2868 306.719 84.9303C307.204 84.568 307.448 83.9923 307.448 83.2035C307.448 82.6658 307.302 82.2159 307.009 81.8537C306.716 81.4913 306.338 81.2605 305.876 81.1611C305.414 81.0619 304.641 81.0121 303.559 81.0121H301.277V85.465ZM310.819 74.0611H312.521V86.9113H310.819V74.0611ZM315.356 86.9113V74.0611H317.919L320.965 83.1597C321.246 84.007 321.45 84.641 321.579 85.0618C321.725 84.5942 321.954 83.9077 322.265 83.0019L325.345 74.0611H327.636V86.9113H325.995V76.1561L322.256 86.9113H320.719L316.997 75.9721V86.9113H315.356ZM187.456 102.271H195.286V113.605H196.445V118.119H194.927V115.121H186.421V118.119H184.902V113.605H185.903C186.939 112.044 187.456 108.892 187.456 104.147V102.271ZM193.584 103.787H189.099V104.445C189.099 105.537 188.998 107.033 188.799 108.933C188.607 110.826 188.223 112.383 187.65 113.605H193.584V103.787ZM198.508 115.121V102.271H207.812V103.787H200.211V107.723H207.33V109.231H200.211V113.605H208.11V115.121H198.508ZM213.737 115.121V103.787H209.497V102.271H219.697V103.787H215.44V115.121H213.737ZM231.231 115.121V102.271H225.526C224.378 102.271 223.506 102.388 222.91 102.622C222.313 102.849 221.835 103.255 221.478 103.84C221.121 104.424 220.943 105.07 220.943 105.777C220.943 106.689 221.24 107.457 221.83 108.082C222.421 108.708 223.334 109.105 224.569 109.274C224.118 109.491 223.776 109.704 223.542 109.914C223.044 110.37 222.574 110.94 222.128 111.624L219.89 115.121H222.032L223.734 112.447C224.233 111.676 224.642 111.086 224.963 110.677C225.286 110.268 225.572 109.982 225.824 109.818C226.082 109.654 226.341 109.54 226.606 109.476C226.798 109.435 227.114 109.415 227.553 109.415H229.528V115.121H231.231ZM229.528 107.942H225.867C225.089 107.942 224.481 107.863 224.041 107.705C223.604 107.542 223.27 107.285 223.041 106.934C222.813 106.578 222.7 106.192 222.7 105.777C222.7 105.169 222.918 104.67 223.357 104.278C223.803 103.887 224.501 103.691 225.455 103.691H229.528V107.942ZM233.988 115.121V102.271H236.551L239.596 111.369C239.876 112.217 240.082 112.851 240.21 113.271C240.356 112.804 240.585 112.117 240.894 111.212L243.976 102.271H246.267V115.121H244.626V104.366L240.887 115.121H239.35L235.629 104.182V115.121H233.988Z" fill="#1D1D1B"/>
</svg>
