<svg xmlns="http://www.w3.org/2000/svg" viewBox="0 0 371 61" fill="none">
<mask id="path-1-inside-1_6_54" fill="white">
<path fill-rule="evenodd" clip-rule="evenodd" d="M0 30.5C0 13.6553 13.6553 0 30.5 0H123.5C136.941 0 148.352 8.69483 152.414 20.7669C152.866 22.1088 154.084 23.0788 155.5 23.0788V23.0788C156.916 23.0788 158.134 22.1088 158.586 20.7669C162.648 8.69482 174.059 0 187.5 0H340.5C357.345 0 371 13.6553 371 30.5C371 47.3447 357.345 61 340.5 61H187.5C174.592 61 163.558 52.982 159.104 41.655C158.514 40.153 157.114 39.0788 155.5 39.0788V39.0788C153.886 39.0788 152.486 40.153 151.896 41.655C147.442 52.982 136.408 61 123.5 61H30.5C13.6553 61 0 47.3447 0 30.5Z"/>
</mask>
<path d="M159.104 41.655L158.174 42.0209L159.104 41.655ZM158.586 20.7669L159.534 21.0858L158.586 20.7669ZM152.414 20.7669L151.466 21.0858L152.414 20.7669ZM30.5 -1C13.103 -1 -1 13.103 -1 30.5H1C1 14.2076 14.2076 1 30.5 1V-1ZM123.5 -1H30.5V1H123.5V-1ZM153.362 20.4479C149.167 7.98126 137.384 -1 123.5 -1V1C136.499 1 147.537 9.40839 151.466 21.0858L153.362 20.4479ZM187.5 -1C173.616 -1 161.833 7.98126 157.638 20.4479L159.534 21.0858C163.463 9.40839 174.501 1 187.5 1V-1ZM340.5 -1H187.5V1H340.5V-1ZM372 30.5C372 13.103 357.897 -1 340.5 -1V1C356.792 1 370 14.2076 370 30.5H372ZM340.5 62C357.897 62 372 47.897 372 30.5H370C370 46.7924 356.792 60 340.5 60V62ZM187.5 62H340.5V60H187.5V62ZM158.174 42.0209C162.772 53.7175 174.168 62 187.5 62V60C175.017 60 164.343 52.2465 160.035 41.2891L158.174 42.0209ZM123.5 62C136.832 62 148.228 53.7175 152.826 42.0209L150.965 41.2891C146.657 52.2465 135.983 60 123.5 60V62ZM30.5 62H123.5V60H30.5V62ZM-1 30.5C-1 47.897 13.103 62 30.5 62V60C14.2076 60 1 46.7924 1 30.5H-1ZM155.5 38.0788C153.424 38.0788 151.687 39.4539 150.965 41.2891L152.826 42.0209C153.286 40.8521 154.348 40.0788 155.5 40.0788V38.0788ZM160.035 41.2891C159.313 39.4539 157.576 38.0788 155.5 38.0788V40.0788C156.652 40.0788 157.714 40.8521 158.174 42.0209L160.035 41.2891ZM155.5 24.0788C157.391 24.0788 158.96 22.7897 159.534 21.0858L157.638 20.4479C157.308 21.4279 156.441 22.0788 155.5 22.0788V24.0788ZM151.466 21.0858C152.04 22.7898 153.609 24.0788 155.5 24.0788V22.0788C154.559 22.0788 153.692 21.4279 153.362 20.4479L151.466 21.0858Z" fill="#B71351" mask="url(#path-1-inside-1_6_54)"/>
</svg>