<svg xmlns="http://www.w3.org/2000/svg"  viewBox="0 0 371 61" fill="none">
<mask id="path-1-inside-1_2_29" fill="white">
<path fill-rule="evenodd" clip-rule="evenodd" d="M0 30.5C0 13.6553 13.6553 0 30.5 0H123.5C136.941 0 148.352 8.69482 152.414 20.7668C152.866 22.1088 154.084 23.0788 155.5 23.0788C156.916 23.0788 158.134 22.1088 158.586 20.7668C162.648 8.69482 174.059 0 187.5 0H340.5C357.345 0 371 13.6553 371 30.5C371 47.3446 357.345 61 340.5 61H187.5C174.592 61 163.558 52.982 159.104 41.655C158.514 40.1529 157.114 39.0788 155.5 39.0788C153.886 39.0788 152.486 40.1529 151.896 41.655C147.442 52.982 136.408 61 123.5 61H30.5C13.6553 61 0 47.3446 0 30.5Z" fill="white"/>
</mask>
<path d="M30.5 -0.5C13.3792 -0.5 -0.5 13.3791 -0.5 30.5H0.5C0.5 13.9314 13.9315 0.500002 30.5 0.500002V-0.5ZM123.5 -0.5H30.5V0.500002H123.5V-0.5ZM152.888 20.6074C148.759 8.33804 137.162 -0.5 123.5 -0.5V0.500002C136.72 0.500002 147.944 9.0516 151.94 20.9263L152.888 20.6074ZM187.5 -0.5C173.838 -0.5 162.241 8.33804 158.112 20.6074L159.06 20.9263C163.056 9.0516 174.28 0.500002 187.5 0.500002V-0.5ZM340.5 -0.5H187.5V0.500002H340.5V-0.5ZM371.5 30.5C371.5 13.3791 357.621 -0.5 340.5 -0.5V0.500002C357.069 0.500002 370.5 13.9314 370.5 30.5H371.5ZM340.5 61.5C357.621 61.5 371.5 47.6208 371.5 30.5H370.5C370.5 47.0685 357.069 60.5 340.5 60.5V61.5ZM187.5 61.5H340.5V60.5H187.5V61.5ZM158.639 41.8379C163.165 53.3497 174.38 61.5 187.5 61.5V60.5C174.805 60.5 163.95 52.6142 159.57 41.472L158.639 41.8379ZM123.5 61.5C136.62 61.5 147.835 53.3497 152.361 41.8379L151.43 41.472C147.05 52.6142 136.195 60.5 123.5 60.5V61.5ZM30.5 61.5H123.5V60.5H30.5V61.5ZM-0.5 30.5C-0.5 47.6208 13.3792 61.5 30.5 61.5V60.5C13.9315 60.5 0.5 47.0685 0.5 30.5H-0.5ZM155.5 38.5788C153.655 38.5788 152.086 39.8034 151.43 41.472L152.361 41.8379C152.886 40.5025 154.117 39.5788 155.5 39.5788V38.5788ZM159.57 41.472C158.914 39.8034 157.345 38.5788 155.5 38.5788V39.5788C156.883 39.5788 158.114 40.5025 158.639 41.8379L159.57 41.472ZM155.5 23.5788C157.153 23.5788 158.547 22.4492 159.06 20.9263L158.112 20.6074C157.721 21.7683 156.678 22.5788 155.5 22.5788V23.5788ZM151.94 20.9263C152.453 22.4492 153.847 23.5788 155.5 23.5788V22.5788C154.322 22.5788 153.279 21.7683 152.888 20.6074L151.94 20.9263Z" fill="#B71351" mask="url(#path-1-inside-1_2_29)"/>
</svg>