<svg xmlns="http://www.w3.org/2000/svg" width="747" height="449" viewBox="0 0 747 449" fill="none">
<g clip-path="url(#clip0_44_13761)">
<path d="M220.151 100.584H69.9279C61.2074 100.584 54.2969 93.4935 54.2969 84.9191V46.6642C54.2969 37.925 61.372 30.9995 69.9279 30.9995H220.151C228.871 30.9995 235.782 38.0899 235.782 46.6642V84.9191C235.782 93.6583 228.707 100.584 220.151 100.584Z" fill="#FAE7C3"/>
<path d="M586.742 340.007H165.362C157.464 340.007 151.047 333.576 151.047 325.661V103.717C151.047 95.8021 157.464 89.3713 165.362 89.3713H586.907C594.804 89.3713 601.221 95.8021 601.221 103.717V325.826C601.057 333.741 594.64 340.007 586.742 340.007ZM165.362 91.0203C158.451 91.0203 152.692 96.6266 152.692 103.717V325.826C152.692 332.751 158.287 338.523 165.362 338.523H586.907C593.817 338.523 599.576 332.916 599.576 325.826V103.717C599.576 96.7915 593.982 91.0203 586.907 91.0203H165.362Z" fill="#DEE1E7"/>
<path d="M598.917 135.211H152.691V136.86H598.917V135.211Z" fill="#DEE1E7"/>
<path d="M183.298 124.493C177.868 124.493 173.426 120.041 173.426 114.6C173.426 109.158 177.868 104.706 183.298 104.706C188.728 104.706 193.17 109.158 193.17 114.6C193.17 120.041 188.728 124.493 183.298 124.493ZM183.298 106.355C178.691 106.355 175.071 110.148 175.071 114.6C175.071 119.052 178.856 122.844 183.298 122.844C187.741 122.844 191.525 119.052 191.525 114.6C191.525 110.148 187.741 106.355 183.298 106.355Z" fill="#DEE1E7"/>
<path d="M216.204 124.493C210.775 124.493 206.332 120.041 206.332 114.6C206.332 109.158 210.775 104.706 216.204 104.706C221.634 104.706 226.077 109.158 226.077 114.6C226.077 120.041 221.634 124.493 216.204 124.493ZM216.204 106.355C211.597 106.355 207.977 110.148 207.977 114.6C207.977 119.052 211.762 122.844 216.204 122.844C220.811 122.844 224.431 119.052 224.431 114.6C224.431 110.148 220.811 106.355 216.204 106.355Z" fill="#DEE1E7"/>
<path d="M248.618 124.493C243.189 124.493 238.746 120.041 238.746 114.6C238.746 109.158 243.189 104.706 248.618 104.706C254.048 104.706 258.491 109.158 258.491 114.6C258.491 120.041 254.048 124.493 248.618 124.493ZM248.618 106.355C244.011 106.355 240.391 110.148 240.391 114.6C240.391 119.052 244.176 122.844 248.618 122.844C253.061 122.844 256.845 119.052 256.845 114.6C256.845 110.148 253.061 106.355 248.618 106.355Z" fill="#DEE1E7"/>
<path d="M248.618 193.748C249.934 180.886 230.189 156.317 229.696 163.738C228.709 181.711 207.648 137.85 205.344 162.089C203.37 183.03 227.721 189.131 228.051 202.817C228.38 216.503 248.618 193.748 248.618 193.748Z" fill="#EEB282"/>
<path d="M483.739 193.748C482.422 180.886 502.167 156.317 502.661 163.738C503.648 181.711 524.709 137.85 527.012 162.089C528.987 183.03 504.635 189.131 504.306 202.817C503.977 216.503 483.739 193.748 483.739 193.748Z" fill="#EEB282"/>
<path d="M284.651 275.204C282.841 275.204 281.031 275.204 279.221 275.039C262.274 273.555 246.643 264.816 234.961 250.471C223.937 236.785 216.697 218.482 213.406 196.221L262.274 189.131C265.729 213.535 275.437 225.077 283.499 225.902C293.042 226.726 306.864 215.184 314.597 191.439L361.49 206.939C347.504 248.987 317.723 275.204 284.651 275.204Z" fill="#CB466F"/>
<path d="M451.49 275.864C421.215 275.864 392.585 251.46 373.828 208.918L418.253 186.657C431.416 216.503 447.212 227.056 452.477 226.231C457.249 225.572 466.298 214.854 470.083 188.801L518.95 195.891C509.407 261.353 474.031 273.226 459.059 275.204C456.59 275.699 453.958 275.864 451.49 275.864Z" fill="#CB466F"/>
<path d="M321.507 449C321.507 449 302.421 349.405 323.975 319.56C345.53 289.715 405.586 305.214 418.255 319.56C437.342 341.161 426.976 448.505 426.976 448.505H380.412L374.653 393.267C374.488 391.783 372.349 391.783 372.185 393.267L368.894 448.34L321.507 449Z" fill="#334496"/>
<path d="M304.724 181.876C304.724 181.876 296.332 128.616 314.431 90.0309C330.227 56.5579 379.095 54.909 401.472 74.3662C427.469 96.9563 421.381 181.546 421.381 181.546C421.381 181.546 336.973 207.434 304.724 181.876Z" fill="#253345"/>
<path d="M318.872 338.193C318.872 338.193 342.894 345.778 372.675 345.778C404.431 345.778 424.998 338.193 424.998 338.193C438.984 327.64 423.188 245.029 418.581 187.482C418.088 180.721 378.105 174.291 371.359 173.961C342.071 172.312 314.265 184.679 314.429 192.594C315.252 239.753 303.405 337.368 318.872 338.193Z" fill="#CB466F"/>
<path d="M345.857 161.924C345.857 161.924 346.021 170.168 345.692 180.227C345.528 190.285 375.473 202.652 391.763 181.216L389.295 160.44L345.857 161.924Z" fill="url(#paint0_linear_44_13761)"/>
<path d="M366.59 170.168C391.216 170.168 411.179 150.162 411.179 125.483C411.179 100.803 391.216 80.7969 366.59 80.7969C341.963 80.7969 322 100.803 322 125.483C322 150.162 341.963 170.168 366.59 170.168Z" fill="#EEB282"/>
<path d="M359.68 124.658C361.225 124.658 362.477 123.403 362.477 121.855C362.477 120.307 361.225 119.052 359.68 119.052C358.135 119.052 356.883 120.307 356.883 121.855C356.883 123.403 358.135 124.658 359.68 124.658Z" fill="black"/>
<path d="M368.236 145.929C368.894 145.929 369.717 145.929 370.375 146.094C373.83 146.589 376.792 148.238 378.931 151.041L376.792 152.69C375.147 150.546 372.679 149.062 370.046 148.732C367.249 148.403 364.616 149.062 362.477 150.711L360.832 148.567C362.971 146.919 365.604 146.094 368.236 145.929Z" fill="black"/>
<path d="M385.016 122.515C386.561 122.515 387.813 121.259 387.813 119.711C387.813 118.163 386.561 116.908 385.016 116.908C383.471 116.908 382.219 118.163 382.219 119.711C382.219 121.259 383.471 122.515 385.016 122.515Z" fill="black"/>
<path d="M343.885 144.94C347.247 144.94 349.973 142.208 349.973 138.839C349.973 135.469 347.247 132.738 343.885 132.738C340.523 132.738 337.797 135.469 337.797 138.839C337.797 142.208 340.523 144.94 343.885 144.94Z" fill="#F39EA8"/>
<path d="M397.521 143.785C400.884 143.785 403.609 141.054 403.609 137.684C403.609 134.315 400.884 131.583 397.521 131.583C394.159 131.583 391.434 134.315 391.434 137.684C391.434 141.054 394.159 143.785 397.521 143.785Z" fill="#F39EA8"/>
<path d="M370.537 89.8661C370.537 89.8661 348.16 119.876 328.744 123.174C284.978 130.429 341.085 61.3398 374.979 76.3449C378.435 77.9939 367.246 86.898 370.537 89.8661Z" fill="#253345"/>
<path d="M365.437 91.6798C365.437 91.6798 386.333 111.961 406.078 111.961C434.049 112.126 364.614 58.2068 365.437 91.6798Z" fill="#253345"/>
<path d="M323.975 144.61C329.7 144.61 334.341 139.959 334.341 134.222C334.341 128.485 329.7 123.834 323.975 123.834C318.25 123.834 313.609 128.485 313.609 134.222C313.609 139.959 318.25 144.61 323.975 144.61Z" fill="#EEB282"/>
<path d="M347.502 115.919C347.173 116.908 346.515 117.898 345.528 118.557C344.212 119.546 342.402 119.876 340.756 119.546C337.465 118.722 334.01 110.477 333.352 107.015C333.188 105.696 332.858 104.047 334.175 103.057C335.491 102.068 337.301 103.057 337.959 103.387C340.921 104.871 347.831 110.972 347.831 114.435C347.831 114.93 347.667 115.424 347.502 115.919ZM336.478 106.19C336.972 109.158 340.263 115.754 341.579 116.414C342.566 116.578 343.224 116.249 343.553 116.084C344.047 115.589 344.376 115.094 344.541 114.435C344.376 112.786 339.111 107.674 336.478 106.19Z" fill="white"/>
<path d="M712.776 139.333C713.434 142.961 713.598 146.424 713.598 150.051C713.598 153.679 713.434 157.142 712.776 160.769C712.118 157.142 711.953 153.679 711.953 150.051C711.953 146.589 712.118 142.961 712.776 139.333Z" fill="#CB466F"/>
<path d="M712.776 163.902C713.434 167.53 713.598 170.993 713.598 174.62C713.598 178.248 713.434 181.711 712.776 185.338C712.118 181.711 711.953 178.248 711.953 174.62C711.953 170.993 712.118 167.365 712.776 163.902Z" fill="#CB466F"/>
<path d="M735.976 162.418C732.356 163.078 728.901 163.243 725.281 163.243C721.661 163.243 718.206 163.078 714.586 162.418C718.206 161.759 721.661 161.594 725.281 161.594C728.901 161.594 732.521 161.759 735.976 162.418Z" fill="#CB466F"/>
<path d="M711.624 162.418C708.004 163.078 704.549 163.243 700.929 163.243C697.309 163.243 693.854 163.078 690.234 162.418C693.854 161.759 697.309 161.594 700.929 161.594C704.549 161.594 708.004 161.759 711.624 162.418Z" fill="#CB466F"/>
<path d="M285.143 0C285.801 3.62762 285.966 7.09034 285.966 10.718C285.966 14.3456 285.801 17.8083 285.143 21.4359C284.485 17.8083 284.32 14.3456 284.32 10.718C284.32 7.09034 284.485 3.62762 285.143 0Z" fill="#CB466F"/>
<path d="M285.143 24.5688C285.801 28.1965 285.966 31.6592 285.966 35.2868C285.966 38.9144 285.801 42.3771 285.143 46.0048C284.485 42.3771 284.32 38.9144 284.32 35.2868C284.32 31.6592 284.485 28.0316 285.143 24.5688Z" fill="#CB466F"/>
<path d="M308.343 22.9199C304.723 23.5795 301.268 23.7444 297.648 23.7444C294.028 23.7444 290.573 23.5795 286.953 22.9199C290.573 22.2604 294.028 22.0955 297.648 22.0955C301.268 22.2604 304.888 22.2604 308.343 22.9199Z" fill="#CB466F"/>
<path d="M283.991 22.9199C280.372 23.5795 276.916 23.7444 273.296 23.7444C269.677 23.7444 266.221 23.5795 262.602 22.9199C266.221 22.2604 269.677 22.0955 273.296 22.0955C276.916 22.2604 280.372 22.2604 283.991 22.9199Z" fill="#CB466F"/>
<path d="M124.061 351.384C124.719 355.012 124.884 358.475 124.884 362.102C124.884 365.73 124.719 369.193 124.061 372.82C123.403 369.193 123.238 365.73 123.238 362.102C123.238 358.64 123.403 355.012 124.061 351.384Z" fill="#CB466F"/>
<path d="M124.061 375.953C124.719 379.581 124.884 383.043 124.884 386.671C124.884 390.299 124.719 393.761 124.061 397.389C123.403 393.761 123.238 390.299 123.238 386.671C123.238 383.043 123.403 379.416 124.061 375.953Z" fill="#CB466F"/>
<path d="M147.261 374.469C143.641 375.129 140.186 375.294 136.566 375.294C132.946 375.294 129.491 375.129 125.871 374.469C129.491 373.81 132.946 373.645 136.566 373.645C140.186 373.645 143.806 373.81 147.261 374.469Z" fill="#CB466F"/>
<path d="M122.909 374.469C119.29 375.129 115.834 375.294 112.214 375.294C108.595 375.294 105.139 375.129 101.52 374.469C105.139 373.81 108.595 373.645 112.214 373.645C115.67 373.645 119.29 373.81 122.909 374.469Z" fill="#CB466F"/>
<path d="M104.153 188.801C100.368 188.801 97.2422 185.668 97.2422 181.875C97.2422 178.083 100.368 174.95 104.153 174.95C107.937 174.95 111.063 178.083 111.063 181.875C111.063 185.668 107.937 188.801 104.153 188.801ZM104.153 178.248C102.178 178.248 100.533 179.897 100.533 181.875C100.533 183.854 102.178 185.503 104.153 185.503C106.127 185.503 107.773 183.854 107.773 181.875C107.773 179.897 106.127 178.248 104.153 178.248Z" fill="#334496"/>
<path d="M509.079 409.426C505.294 409.426 502.168 406.293 502.168 402.501C502.168 398.708 505.294 395.575 509.079 395.575C512.863 395.575 515.989 398.708 515.989 402.501C515.989 406.293 512.863 409.426 509.079 409.426ZM509.079 398.708C507.104 398.708 505.459 400.357 505.459 402.336C505.459 404.314 507.104 405.963 509.079 405.963C511.053 405.963 512.698 404.314 512.698 402.336C512.698 400.357 511.053 398.708 509.079 398.708Z" fill="#334496"/>
<path d="M704.715 86.0736C700.931 86.0736 697.805 82.9406 697.805 79.1481C697.805 75.3556 700.931 72.2227 704.715 72.2227C708.5 72.2227 711.626 75.3556 711.626 79.1481C711.626 82.9406 708.664 86.0736 704.715 86.0736ZM704.715 75.3556C702.741 75.3556 701.095 77.0045 701.095 78.9832C701.095 80.9619 702.741 82.6108 704.715 82.6108C706.69 82.6108 708.335 80.9619 708.335 78.9832C708.335 77.0045 706.854 75.3556 704.715 75.3556Z" fill="#334496"/>
<path d="M500.853 59.1961C503.306 59.1961 505.295 57.2029 505.295 54.7441C505.295 52.2853 503.306 50.292 500.853 50.292C498.399 50.292 496.41 52.2853 496.41 54.7441C496.41 57.2029 498.399 59.1961 500.853 59.1961Z" fill="#CB466F"/>
<path d="M227.392 374.469C229.845 374.469 231.834 372.476 231.834 370.017C231.834 367.558 229.845 365.565 227.392 365.565C224.938 365.565 222.949 367.558 222.949 370.017C222.949 372.476 224.938 374.469 227.392 374.469Z" fill="#CB466F"/>
<path d="M33.3995 119.052C35.8531 119.052 37.8421 117.059 37.8421 114.6C37.8421 112.141 35.8531 110.148 33.3995 110.148C30.946 110.148 28.957 112.141 28.957 114.6C28.957 117.059 30.946 119.052 33.3995 119.052Z" fill="#CB466F"/>
<path d="M312.292 268.773C314.267 256.077 317.558 236.125 316.899 217.822C316.241 199.519 281.359 274.215 281.359 274.215C281.359 274.215 299.129 275.534 312.292 268.773Z" fill="url(#paint1_linear_44_13761)"/>
<path d="M427.632 270.917C425.658 258.22 423.354 234.971 420.886 214.359C418.583 196.221 461.527 275.039 461.527 275.039C461.527 275.039 440.795 277.842 427.632 270.917Z" fill="url(#paint2_linear_44_13761)"/>
<path d="M733.509 383.868H536.723C529.318 383.868 523.23 377.767 523.23 370.347V244.864C523.23 237.444 529.318 231.343 536.723 231.343H733.509C740.913 231.343 747.001 237.444 747.001 244.864V370.347C747.001 377.932 740.913 383.868 733.509 383.868Z" fill="#DEE1E7"/>
<path d="M746.342 258.715H523.723V260.364H746.342V258.715Z" fill="white"/>
<path d="M601.054 340.501V328.794H580.98V324.837L600.231 297.135H606.484V324.012H612.572V328.629H606.484V340.336H601.054V340.501ZM601.054 324.012V309.502C601.054 307.193 601.054 305.05 601.219 302.741H601.054C599.738 305.214 598.586 307.193 597.434 309.172L586.904 323.847V324.012H601.054Z" fill="white"/>
<path d="M645.807 318.406C645.807 333.081 640.377 341.326 630.834 341.326C622.443 341.326 616.684 333.411 616.52 319.065C616.52 304.555 622.772 296.475 631.492 296.475C640.706 296.475 645.807 304.555 645.807 318.406ZM622.443 319.065C622.443 330.278 625.898 336.709 631.163 336.709C637.087 336.709 640.048 329.783 640.048 318.735C640.048 308.018 637.251 301.092 631.328 301.092C626.063 300.927 622.443 307.193 622.443 319.065Z" fill="white"/>
<path d="M669.335 340.501V328.794H649.262V324.837L668.513 297.135H674.765V324.012H680.853V328.629H674.765V340.336H669.335V340.501ZM669.335 324.012V309.502C669.335 307.193 669.335 305.05 669.5 302.741H669.335C668.019 305.214 666.867 307.193 665.715 309.172L655.185 323.847V324.012H669.335Z" fill="white"/>
<path d="M542.644 252.779C539.188 252.779 536.227 249.976 536.227 246.348C536.227 242.886 539.024 239.917 542.644 239.917C546.099 239.917 549.061 242.721 549.061 246.348C548.896 249.976 546.099 252.779 542.644 252.779ZM542.644 241.731C540.011 241.731 537.872 243.875 537.872 246.513C537.872 249.151 540.011 251.295 542.644 251.295C545.276 251.295 547.415 249.151 547.415 246.513C547.415 243.875 545.112 241.731 542.644 241.731Z" fill="white"/>
<path d="M562.718 252.779C559.262 252.779 556.301 249.976 556.301 246.348C556.301 242.886 559.098 239.917 562.718 239.917C566.338 239.917 569.135 242.721 569.135 246.348C569.135 249.976 566.173 252.779 562.718 252.779ZM562.718 241.731C560.085 241.731 557.946 243.875 557.946 246.513C557.946 249.151 560.085 251.295 562.718 251.295C565.35 251.295 567.489 249.151 567.489 246.513C567.489 243.875 565.35 241.731 562.718 241.731Z" fill="white"/>
<path d="M582.464 252.779C579.009 252.779 576.047 249.976 576.047 246.348C576.047 242.886 578.844 239.917 582.464 239.917C586.084 239.917 588.881 242.721 588.881 246.348C588.881 249.976 586.084 252.779 582.464 252.779ZM582.464 241.731C579.831 241.731 577.692 243.875 577.692 246.513C577.692 249.151 579.831 251.295 582.464 251.295C585.096 251.295 587.235 249.151 587.235 246.513C587.235 243.875 585.096 241.731 582.464 241.731Z" fill="white"/>
<path d="M210.279 328.134H13.4921C6.08788 328.134 0 322.033 0 314.613V240.907C0 233.487 6.08788 227.385 13.4921 227.385H210.279C217.683 227.385 223.771 233.487 223.771 240.907V314.613C223.606 322.033 217.683 328.134 210.279 328.134Z" fill="#DFE4DC"/>
<path d="M222.947 254.758H0.328125V256.406H222.947V254.758Z" fill="white"/>
<path d="M19.249 248.821C15.7937 248.821 12.832 246.018 12.832 242.391C12.832 238.763 15.6292 235.96 19.249 235.96C22.7043 235.96 25.666 238.763 25.666 242.391C25.666 246.018 22.7043 248.821 19.249 248.821ZM19.249 237.609C16.6164 237.609 14.4774 239.752 14.4774 242.391C14.4774 245.029 16.6164 247.173 19.249 247.173C21.8816 247.173 24.0206 245.029 24.0206 242.391C24.0206 239.752 21.8816 237.609 19.249 237.609Z" fill="white"/>
<path d="M39.3232 248.821C35.8679 248.821 32.9062 246.018 32.9062 242.391C32.9062 238.763 35.7034 235.96 39.3232 235.96C42.943 235.96 45.7402 238.763 45.7402 242.391C45.7402 246.018 42.943 248.821 39.3232 248.821ZM39.3232 237.609C36.6906 237.609 34.5516 239.752 34.5516 242.391C34.5516 245.029 36.6906 247.173 39.3232 247.173C41.9558 247.173 44.0948 245.029 44.0948 242.391C44.0948 239.752 41.9558 237.609 39.3232 237.609Z" fill="white"/>
<path d="M59.2334 248.821C55.7781 248.821 52.8164 246.018 52.8164 242.391C52.8164 238.763 55.6135 235.96 59.2334 235.96C62.6887 235.96 65.6503 238.763 65.6503 242.391C65.6503 246.018 62.6887 248.821 59.2334 248.821ZM59.2334 237.609C56.6008 237.609 54.4618 239.752 54.4618 242.391C54.4618 245.029 56.6008 247.173 59.2334 247.173C61.866 247.173 64.005 245.029 64.005 242.391C64.005 239.752 61.866 237.609 59.2334 237.609Z" fill="white"/>
<path d="M636.101 159.45H573.412C564.692 159.45 557.781 152.36 557.781 143.786V80.797C557.781 72.0578 564.856 65.1323 573.412 65.1323H636.101C644.822 65.1323 651.732 72.2227 651.732 80.797V143.621C651.732 152.36 644.657 159.45 636.101 159.45Z" fill="#F7DAD6"/>
<path d="M592.17 122.844C579.83 122.844 569.793 112.786 569.793 100.419C569.793 88.052 579.83 77.9937 592.17 77.9937C604.51 77.9937 614.547 88.052 614.547 100.419C614.547 112.786 604.51 122.844 592.17 122.844ZM592.17 81.1266C581.64 81.1266 573.084 89.701 573.084 100.254C573.084 110.807 581.64 119.381 592.17 119.381C602.7 119.381 611.256 110.807 611.256 100.254C611.256 89.701 602.7 81.1266 592.17 81.1266Z" fill="white"/>
<path d="M607.393 115.692L605.066 118.024L628.684 141.693L631.011 139.361L607.393 115.692Z" fill="white"/>
<path d="M630.18 145.764C628.864 145.764 627.712 145.27 626.725 144.28L609.942 127.461C607.967 125.483 607.967 122.35 609.942 120.536C611.916 118.557 615.042 118.557 616.852 120.536L633.635 137.355C635.61 139.333 635.61 142.466 633.635 144.28C632.648 145.27 631.332 145.764 630.18 145.764Z" fill="white"/>
<path d="M102.176 69.0896C102.341 75.3555 106.29 77.8289 110.897 77.8289C114.188 77.8289 116.162 77.3342 117.972 76.5097L118.795 79.8076C117.149 80.4671 114.352 81.4565 110.403 81.4565C102.67 81.4565 97.8984 76.3449 97.8984 68.5949C97.8984 60.845 102.341 54.9089 109.745 54.9089C117.972 54.9089 120.276 62.1642 120.276 66.7811C120.276 67.7705 120.111 68.4301 120.111 68.9247H102.176V69.0896ZM115.668 65.7918C115.668 62.8237 114.517 58.3717 109.252 58.3717C104.644 58.3717 102.505 62.6588 102.176 65.7918H115.668Z" fill="white"/>
<path d="M125.872 63.4833C125.872 60.5153 125.872 57.877 125.707 55.5685H129.656L129.82 60.5153H129.985C131.137 57.0525 133.934 54.9089 137.06 54.9089C137.554 54.9089 137.883 54.9089 138.376 55.0738V59.361C137.883 59.1961 137.389 59.1961 136.731 59.1961C133.44 59.1961 131.137 61.6695 130.479 65.1322C130.314 65.7918 130.314 66.4514 130.314 67.2758V80.7969H125.707V63.4833H125.872Z" fill="white"/>
<path d="M143.145 63.4833C143.145 60.5153 143.145 57.877 142.98 55.5685H146.929L147.094 60.5153H147.258C148.41 57.0525 151.207 54.9089 154.334 54.9089C154.827 54.9089 155.156 54.9089 155.65 55.0738V59.361C155.156 59.361 154.663 59.361 154.004 59.361C150.714 59.361 148.41 61.8344 147.752 65.2971C147.588 65.9567 147.588 66.6162 147.588 67.4407V80.9618H143.145V63.4833Z" fill="white"/>
<path d="M182.634 68.1002C182.634 77.499 176.217 81.6213 169.965 81.6213C163.054 81.6213 157.789 76.5096 157.789 68.5948C157.789 60.1854 163.383 55.0737 170.294 55.0737C177.698 55.0737 182.634 60.3503 182.634 68.1002ZM162.561 68.2651C162.561 73.8714 165.687 77.9937 170.294 77.9937C174.736 77.9937 178.027 73.8714 178.027 68.1002C178.027 63.813 175.888 58.3716 170.458 58.3716C165.029 58.3716 162.561 63.4832 162.561 68.2651Z" fill="white"/>
<path d="M188.395 63.4833C188.395 60.5153 188.395 57.877 188.23 55.5685H192.179L192.344 60.5153H192.508C193.66 57.0525 196.457 54.9089 199.584 54.9089C200.077 54.9089 200.406 54.9089 200.9 55.0738V59.361C200.406 59.1961 199.913 59.1961 199.254 59.1961C195.964 59.1961 193.66 61.6695 193.002 65.1322C192.838 65.7918 192.838 66.4514 192.838 67.2758V80.7969H188.23V63.4833H188.395Z" fill="white"/>
<path d="M336.39 195.641L335.227 196.807L343.487 205.085L344.65 203.919L336.39 195.641Z" fill="white"/>
<path d="M333.102 213.671L326.121 220.667L327.285 221.833L334.265 214.837L333.102 213.671Z" fill="white"/>
<path d="M341.719 225.065L341.582 226.708L354.043 227.749L354.18 226.106L341.719 225.065Z" fill="white"/>
<path d="M364.45 205.61L357.262 214.416L358.535 215.46L365.724 206.654L364.45 205.61Z" fill="white"/>
<path d="M375.129 223.867L373.379 234.607L375.003 234.873L376.753 224.132L375.129 223.867Z" fill="white"/>
<path d="M355.894 242.245L347.742 247.826L348.67 249.188L356.822 243.607L355.894 242.245Z" fill="white"/>
<path d="M338.077 242.107L328.387 242.696L328.486 244.342L338.177 243.753L338.077 242.107Z" fill="white"/>
<path d="M324.604 264.151L323.145 264.912L327.7 273.69L329.159 272.929L324.604 264.151Z" fill="white"/>
<path d="M318.337 303.135L318.184 304.777L329.323 305.823L329.476 304.181L318.337 303.135Z" fill="white"/>
<path d="M357.118 281.87L353.922 289.468L355.438 290.108L358.634 282.511L357.118 281.87Z" fill="white"/>
<path d="M341.91 321.993L341.148 323.455L349.172 327.651L349.933 326.189L341.91 321.993Z" fill="white"/>
<path d="M361.653 310.491H351.945V312.14H361.653V310.491Z" fill="white"/>
<path d="M367.208 260.947L366.859 272.484L368.504 272.534L368.852 260.997L367.208 260.947Z" fill="white"/>
<path d="M391.544 285.624L385.684 292.534L386.937 293.602L392.798 286.692L391.544 285.624Z" fill="white"/>
<path d="M401.587 274.949L400.207 275.847L404.691 282.76L406.07 281.861L401.587 274.949Z" fill="white"/>
<path d="M370.712 326.699L365.871 336.072L367.332 336.83L372.173 327.457L370.712 326.699Z" fill="white"/>
<path d="M418.831 318.484L411.238 325.062L412.314 326.309L419.907 319.731L418.831 318.484Z" fill="white"/>
<path d="M393.449 302.731L392.09 303.659L397.279 311.289L398.639 310.361L393.449 302.731Z" fill="white"/>
<path d="M414.779 293.224L409.254 299.109L410.452 300.239L415.977 294.354L414.779 293.224Z" fill="white"/>
<path d="M391.927 250.8H390.281V263.332H391.927V250.8Z" fill="white"/>
<path d="M390.593 224.629L390.383 226.265L401.969 227.762L402.18 226.127L390.593 224.629Z" fill="white"/>
<path d="M391.564 201.798L381.094 207.697L381.9 209.134L392.37 203.236L391.564 201.798Z" fill="white"/>
<path d="M398.333 187.5L397.512 188.929L405.923 193.786L406.745 192.357L398.333 187.5Z" fill="white"/>
<path d="M412.839 206.24L404.449 210.799L405.234 212.248L413.623 207.689L412.839 206.24Z" fill="white"/>
<path d="M404.669 243.938L403.797 245.337L412.169 250.58L413.041 249.182L404.669 243.938Z" fill="white"/>
<path d="M375.715 295.166L366.289 298.622L366.854 300.17L376.28 296.714L375.715 295.166Z" fill="white"/>
<path d="M341.701 263.636L341.391 265.255L350.439 267L350.75 265.38L341.701 263.636Z" fill="white"/>
<path d="M340.413 290.948L329.984 292.412L330.213 294.045L340.641 292.581L340.413 290.948Z" fill="white"/>
<path d="M322.903 324.464L321.305 324.856L323.376 333.345L324.974 332.953L322.903 324.464Z" fill="white"/>
<path d="M389.059 321.314L387.453 321.674L389.901 332.616L391.507 332.255L389.059 321.314Z" fill="white"/>
<path d="M368.889 244.937L368.438 246.522L375.715 248.606L376.167 247.02L368.889 244.937Z" fill="white"/>
<path d="M310.942 214.971L306.324 225.002L307.818 225.693L312.436 215.662L310.942 214.971Z" fill="white"/>
<path d="M303.531 235.138L302.707 236.565L310.111 240.861L310.936 239.434L303.531 235.138Z" fill="white"/>
<path d="M304.787 252.037L303.16 252.282L304.333 260.109L305.96 259.864L304.787 252.037Z" fill="white"/>
<path d="M290.493 266.093L290.344 267.736L298.865 268.512L299.014 266.869L290.493 266.093Z" fill="white"/>
<path d="M292.367 249.855L286.555 252.579L287.252 254.073L293.064 251.349L292.367 249.855Z" fill="white"/>
<path d="M275.392 235.499L275.25 237.142L284.101 237.913L284.244 236.27L275.392 235.499Z" fill="white"/>
<path d="M272.966 246.018H271.32V257.726H272.966V246.018Z" fill="white"/>
<path d="M251.032 252.138L250.75 253.762L259.666 255.317L259.948 253.692L251.032 252.138Z" fill="white"/>
<path d="M261.591 235.328L256.164 240.375L257.283 241.584L262.711 236.537L261.591 235.328Z" fill="white"/>
<path d="M255.235 215.255L255.031 216.891L264.338 218.058L264.542 216.422L255.235 215.255Z" fill="white"/>
<path d="M241.805 223.413L241.332 224.992L249.054 227.313L249.527 225.734L241.805 223.413Z" fill="white"/>
<path d="M229.711 212.155L225.086 217.949L226.371 218.979L230.996 213.185L229.711 212.155Z" fill="white"/>
<path d="M245.197 200.434L243.574 200.705L245.115 209.976L246.738 209.705L245.197 200.434Z" fill="white"/>
<path d="M430.132 220.686L428.703 221.504L433.357 229.664L434.785 228.846L430.132 220.686Z" fill="white"/>
<path d="M440.466 239.788L431.207 242.106L431.606 243.705L440.864 241.388L440.466 239.788Z" fill="white"/>
<path d="M434.242 259.602L434.02 261.235L442.497 262.394L442.719 260.76L434.242 259.602Z" fill="white"/>
<path d="M448.004 243.508L447.223 254.031L448.863 254.154L449.644 243.63L448.004 243.508Z" fill="white"/>
<path d="M461.322 264.288L454.035 267.746L454.739 269.237L462.026 265.779L461.322 264.288Z" fill="white"/>
<path d="M460.718 236.183L459.465 237.251L466.072 245.04L467.326 243.972L460.718 236.183Z" fill="white"/>
<path d="M465.032 254.098L464.648 255.701L474.408 258.049L474.792 256.446L465.032 254.098Z" fill="white"/>
<path d="M492.752 239.04L483.848 242.917L484.503 244.429L493.407 240.552L492.752 239.04Z" fill="white"/>
<path d="M476.381 225.282L475.996 233.847L477.64 233.922L478.025 225.356L476.381 225.282Z" fill="white"/>
<path d="M486.545 213.373L485.719 214.798L495.678 220.596L496.505 219.17L486.545 213.373Z" fill="white"/>
<path d="M482.2 202.134L473.641 207.994L474.569 209.355L483.128 203.495L482.2 202.134Z" fill="white"/>
<path d="M503.838 204.088L502.348 204.786L506.667 214.047L508.157 213.349L503.838 204.088Z" fill="white"/>
</g>
<defs>
<linearGradient id="paint0_linear_44_13761" x1="371.927" y1="156.877" x2="364.15" y2="193.029" gradientUnits="userSpaceOnUse">
<stop offset="0.1135" stop-color="#D48F61"/>
<stop offset="0.7098" stop-color="#EEB282"/>
</linearGradient>
<linearGradient id="paint1_linear_44_13761" x1="320.064" y1="258.475" x2="301.69" y2="246.487" gradientUnits="userSpaceOnUse">
<stop offset="0.2217" stop-color="#AA315D"/>
<stop offset="0.6128" stop-color="#B93965"/>
<stop offset="0.9789" stop-color="#CB466F"/>
</linearGradient>
<linearGradient id="paint2_linear_44_13761" x1="418.365" y1="258.395" x2="437.144" y2="246.143" gradientUnits="userSpaceOnUse">
<stop offset="0.2217" stop-color="#AA315D"/>
<stop offset="0.6128" stop-color="#B93965"/>
<stop offset="0.9789" stop-color="#CB466F"/>
</linearGradient>
<clipPath id="clip0_44_13761">
<rect width="747" height="449" rx="60" fill="white"/>
</clipPath>
</defs>
</svg>