<svg width="330" height="159" viewBox="0 0 330 159" fill="none" xmlns="http://www.w3.org/2000/svg">
<path d="M159.192 125.593C159.192 125.968 159.04 126.329 158.773 126.595C158.505 126.861 158.14 127.012 157.76 127.015H152.558C152.177 127.012 151.812 126.862 151.541 126.596C151.272 126.329 151.119 125.969 151.116 125.593V120.702C151.116 120.516 151.079 120.333 151.007 120.162C150.935 119.99 150.83 119.835 150.697 119.704C150.564 119.573 150.406 119.469 150.233 119.398C150.058 119.327 149.873 119.29 149.685 119.29H130.071C129.69 119.287 129.324 119.137 129.054 118.871C128.784 118.605 128.631 118.244 128.629 117.868V75.8497C128.629 75.4724 128.78 75.1107 129.051 74.844C129.321 74.5773 129.688 74.4274 130.071 74.4274H139.545C139.926 74.4303 140.289 74.5814 140.558 74.8478C140.826 75.1142 140.976 75.4744 140.976 75.8497V108.904C140.979 109.28 141.132 109.641 141.401 109.907C141.671 110.173 142.037 110.324 142.418 110.326H143.019C143.401 110.324 143.764 110.172 144.032 109.906C144.301 109.64 144.451 109.28 144.451 108.904V75.8389C144.453 75.4626 144.606 75.1024 144.876 74.8363C145.147 74.5702 145.512 74.4194 145.893 74.4166H155.367C155.749 74.4166 156.116 74.5665 156.386 74.8332C156.657 75.0999 156.809 75.4617 156.809 75.8389V108.893C156.779 109.237 156.887 109.579 157.109 109.845C157.332 110.111 157.652 110.28 158 110.316C158.348 110.351 158.668 110.52 158.891 110.786C159.113 111.052 159.221 111.394 159.192 111.738V125.593Z" fill="#AFCA0B"/>
<path d="M123.371 74.4488C123.752 74.4487 124.117 74.5971 124.387 74.8615C124.658 75.1259 124.811 75.4849 124.814 75.8602V117.879C124.811 118.255 124.658 118.615 124.388 118.881C124.118 119.147 123.753 119.298 123.371 119.301H113.919C113.539 119.298 113.175 119.147 112.907 118.88C112.639 118.614 112.488 118.254 112.488 117.879V99.3151C112.488 98.9379 112.336 98.5762 112.066 98.3095C111.795 98.0428 111.428 97.893 111.046 97.893H110.434C110.051 97.893 109.684 98.0428 109.414 98.3095C109.143 98.5762 108.991 98.9379 108.991 99.3151V117.868C108.993 118.056 108.956 118.243 108.884 118.418C108.811 118.592 108.704 118.751 108.569 118.884C108.434 119.018 108.273 119.123 108.096 119.195C107.919 119.266 107.729 119.302 107.538 119.301H98.0973C97.9037 119.305 97.7112 119.271 97.5311 119.201C97.3509 119.131 97.1868 119.026 97.0484 118.893C96.91 118.759 96.8001 118.6 96.725 118.424C96.6498 118.248 96.6112 118.059 96.6113 117.868V75.8494C96.6142 75.4741 96.7673 75.1151 97.0376 74.8507C97.3078 74.5863 97.673 74.4379 98.0536 74.4379H107.538C107.918 74.4379 108.282 74.5867 108.55 74.8513C108.819 75.1161 108.97 75.475 108.97 75.8494V86.4941C108.972 86.8694 109.126 87.2283 109.396 87.4927C109.666 87.7571 110.031 87.9055 110.412 87.9055H111.024C111.405 87.9055 111.77 87.7571 112.04 87.4927C112.31 87.2283 112.463 86.8694 112.466 86.4941V75.8602C112.466 75.4858 112.617 75.1269 112.885 74.8621C113.154 74.5974 113.518 74.4488 113.898 74.4488H123.371Z" fill="#AFCA0B"/>
<path d="M92.5135 83.3371C92.2905 81.4775 91.5744 79.7086 90.4373 78.2087C89.261 76.6314 87.6597 75.4108 85.8153 74.6856C83.5322 73.871 81.1188 73.4695 78.6909 73.5005C76.1996 73.4575 73.7225 73.8816 71.3917 74.7502C69.6101 75.4919 68.0624 76.6904 66.9095 78.2213C65.7565 79.7522 65.0404 81.5595 64.8356 83.4556C64.6171 85.3412 64.5078 88.5195 64.5078 93.0337V100.705C64.5078 105.316 64.6171 108.548 64.8356 110.401C65.0691 112.257 65.7884 114.021 66.9226 115.519C68.0984 117.099 69.6996 118.324 71.5448 119.053C73.8286 119.864 76.2419 120.261 78.669 120.227C81.1633 120.273 83.6437 119.853 85.9791 118.988C87.7923 118.224 89.36 116.988 90.5139 115.411C91.6165 113.892 92.305 112.118 92.5135 110.261C92.7174 108.394 92.8194 105.208 92.8194 100.705V93.0337C92.8865 89.7986 92.7844 86.562 92.5135 83.3371ZM80.4938 106.577C80.5724 108.253 80.4623 109.934 80.1661 111.587C80.0819 111.916 79.8818 112.205 79.6017 112.402C79.3215 112.599 78.9794 112.692 78.6363 112.664C78.3198 112.701 78.0001 112.631 77.7298 112.464C77.4595 112.297 77.2551 112.045 77.1503 111.748C76.8644 110.156 76.7581 108.537 76.8334 106.921V85.9768C76.8334 83.6496 76.9972 82.2705 77.325 81.7965C77.4766 81.57 77.6851 81.3864 77.9303 81.2637C78.1756 81.1409 78.449 81.0832 78.7238 81.0961C79.0234 81.0668 79.3248 81.1352 79.5814 81.2909C79.838 81.4466 80.0357 81.681 80.1442 81.9581C80.4589 83.2737 80.5768 84.6276 80.4938 85.9768V106.577Z" fill="#AFCA0B"/>
<path d="M59.2737 74.4485C59.6543 74.4485 60.0196 74.5969 60.2898 74.8613C60.5599 75.1257 60.7131 75.4847 60.7161 75.8601V117.878C60.7131 118.255 60.5603 118.615 60.2904 118.881C60.0205 119.147 59.6553 119.298 59.2737 119.301H49.8329C49.4511 119.298 49.0859 119.147 48.816 118.881C48.5463 118.615 48.3933 118.255 48.3905 117.878V99.315C48.3905 99.1282 48.3531 98.9433 48.2807 98.7707C48.2082 98.5982 48.102 98.4414 47.9681 98.3093C47.8341 98.1772 47.675 98.0725 47.5002 98.0011C47.3251 97.9295 47.1375 97.8928 46.9481 97.8928H46.3472C45.9655 97.8957 45.6003 98.0463 45.3304 98.3124C45.0606 98.5786 44.9077 98.9387 44.9048 99.315V117.868C44.9063 118.055 44.87 118.242 44.7981 118.415C44.7264 118.589 44.6203 118.747 44.4862 118.88C44.3522 119.014 44.1927 119.119 44.0169 119.191C43.8413 119.264 43.6528 119.301 43.4625 119.301H33.9997C33.6191 119.298 33.2551 119.147 32.9868 118.88C32.7187 118.614 32.5682 118.254 32.5684 117.878V75.8601C32.5684 75.4856 32.7191 75.1267 32.9876 74.8619C33.256 74.5973 33.6201 74.4485 33.9997 74.4485H43.4625C43.842 74.4485 44.2062 74.5973 44.4746 74.8619C44.743 75.1267 44.8939 75.4856 44.8939 75.8601V86.5047C44.8953 86.6914 44.934 86.8761 45.0078 87.0481C45.0816 87.2201 45.1891 87.3761 45.3241 87.5072C45.459 87.6382 45.6188 87.7418 45.7943 87.812C45.9698 87.8821 46.1577 87.9175 46.3472 87.9161H46.9591C47.3396 87.9161 47.705 87.7677 47.9751 87.5033C48.2453 87.2389 48.3985 86.88 48.4014 86.5047V75.8601C48.4043 75.4847 48.5576 75.1257 48.8277 74.8613C49.0979 74.5969 49.4631 74.4485 49.8438 74.4485H59.2737Z" fill="#AFCA0B"/>
<path d="M37.7266 68.8029C37.688 68.7717 37.657 68.7321 37.6361 68.6874C37.6153 68.6425 37.6052 68.5936 37.6064 68.5443V65.743C36.3702 65.8341 35.1436 65.4693 34.1644 64.7195C33.7831 64.3615 33.4775 63.9325 33.2655 63.4572C33.0535 62.9818 32.9394 62.4698 32.9297 61.9506V60.8733C32.9396 60.3558 33.0539 59.8453 33.2658 59.3718C33.4778 58.8982 33.7833 58.4711 34.1644 58.1151C35.1332 57.3414 36.3625 56.9566 37.6064 57.0377V54.3011C37.6066 54.2504 37.6172 54.2004 37.6379 54.154C37.6586 54.1077 37.6889 54.066 37.7266 54.0318C37.7669 53.9972 37.8137 53.9709 37.8643 53.9542C37.915 53.9375 37.9684 53.931 38.0217 53.9348H38.3386C38.4456 53.9304 38.5506 53.9649 38.6335 54.0318C38.67 54.0665 38.6985 54.1085 38.7174 54.1549C38.7361 54.2013 38.7449 54.2512 38.7428 54.3011V57.0915C39.9868 57.0105 41.216 57.3953 42.1848 58.169C42.5679 58.5234 42.8746 58.9503 43.0869 59.4242C43.299 59.898 43.4121 60.4092 43.4196 60.9271C43.4196 61.0456 43.4196 61.2179 43.4196 61.4658C43.4196 61.7137 43.4196 61.886 43.4196 61.9937C43.4124 62.5133 43.2994 63.0261 43.0873 63.5018C42.8751 63.9774 42.5683 64.4061 42.1848 64.7626C41.2056 65.5124 39.9791 65.8772 38.7428 65.7861V68.5875C38.7455 68.6358 38.737 68.6841 38.718 68.729C38.6992 68.7738 38.6703 68.8137 38.6335 68.846C38.5945 68.883 38.5483 68.9116 38.4974 68.9302C38.4467 68.9487 38.3925 68.9568 38.3386 68.9537H38.0217C37.9638 68.9538 37.9068 68.9401 37.8555 68.9138C37.8042 68.8875 37.7599 68.8496 37.7266 68.8029ZM37.6064 58.0288C35.3555 58.0288 34.1753 58.9986 34.0661 60.9379V61.3904V61.8429C34.1753 63.7822 35.3555 64.7518 37.6064 64.7518V58.0288ZM42.2832 61.8429C42.2958 61.6922 42.2958 61.5409 42.2832 61.3904C42.2964 61.2399 42.2964 61.0884 42.2832 60.9379C42.1739 58.9986 40.9938 58.0288 38.7428 58.0288V64.7842C40.9938 64.7842 42.1739 63.8145 42.2832 61.8752V61.8429Z" fill="#1D1D1B"/>
<path d="M52.2255 64.86C51.518 64.1203 51.1268 63.1403 51.1329 62.1235V61.4231V60.7228C51.1245 59.7056 51.5161 58.7247 52.2255 57.9862C53.0697 57.3034 54.1277 56.9302 55.2196 56.9302C56.3114 56.9302 57.3694 57.3034 58.2136 57.9862C58.5694 58.349 58.8489 58.7775 59.0365 59.2471C59.224 59.7168 59.3157 60.2181 59.3063 60.7228C59.3063 60.8306 59.3063 61.0675 59.3063 61.4231C59.3063 61.7787 59.3063 62.005 59.3063 62.1235C59.3229 63.1421 58.9301 64.126 58.2136 64.86C57.3694 65.5428 56.3114 65.916 55.2196 65.916C54.1277 65.916 53.0697 65.5428 52.2255 64.86ZM57.3503 64.192C57.9134 63.613 58.2233 62.8393 58.2136 62.0373C58.2136 61.9294 58.2136 61.7248 58.2136 61.4231C58.2136 61.1215 58.2136 60.9167 58.2136 60.809C58.2258 60.0064 57.9154 59.2318 57.3503 58.6542C56.9277 58.236 56.3877 57.9524 55.7998 57.8401C55.2121 57.7276 54.6036 57.7915 54.0531 58.0234C53.5025 58.2554 53.0351 58.6448 52.7113 59.1414C52.3876 59.6379 52.2221 60.2188 52.2366 60.809V61.4231V62.0373C52.2262 62.4352 52.2973 62.831 52.4456 63.2013C52.5939 63.5715 52.8165 63.9085 53.0997 64.192C53.6974 64.6799 54.4491 64.9469 55.2251 64.9469C56.001 64.9469 56.7526 64.6799 57.3503 64.192Z" fill="#1D1D1B"/>
<path d="M67.5781 65.6461C67.5423 65.6108 67.5142 65.5688 67.4953 65.5225C67.4766 65.4762 67.4676 65.4266 67.4689 65.3767V57.4578C67.4685 57.4096 67.4779 57.3619 67.4966 57.3174C67.5155 57.2731 67.5432 57.2328 67.5781 57.1992C67.6188 57.1614 67.667 57.1323 67.7198 57.1138C67.7724 57.0952 67.8284 57.0876 67.8841 57.0915H68.201C68.2568 57.0876 68.3127 57.0952 68.3655 57.1138C68.4182 57.1323 68.4663 57.1614 68.507 57.1992C68.542 57.2328 68.5698 57.2731 68.5886 57.3174C68.6073 57.3619 68.6168 57.4096 68.6163 57.4578V60.8408H74.4075V57.4578C74.4049 57.4094 74.4134 57.361 74.4323 57.3163C74.4511 57.2715 74.48 57.2315 74.5167 57.1992C74.5558 57.1623 74.6021 57.1335 74.6529 57.1151C74.7037 57.0965 74.7578 57.0884 74.8118 57.0915H75.1287C75.1828 57.0884 75.2368 57.0965 75.2876 57.1151C75.3384 57.1335 75.3848 57.1623 75.4237 57.1992C75.4604 57.2315 75.4893 57.2715 75.5083 57.3163C75.5272 57.361 75.5356 57.4094 75.5329 57.4578V65.4305C75.5373 65.4808 75.5297 65.5313 75.5107 65.578C75.4917 65.6248 75.4619 65.6666 75.4237 65.6999C75.3407 65.7669 75.2358 65.8014 75.1287 65.7969H74.7571C74.6502 65.8014 74.5451 65.7669 74.4622 65.6999C74.4239 65.6666 74.3941 65.6248 74.3751 65.578C74.3562 65.5313 74.3485 65.4808 74.3529 65.4305V61.7997H68.5616V65.4305C68.563 65.4804 68.554 65.53 68.5351 65.5763C68.5164 65.6227 68.4881 65.6648 68.4523 65.6999C68.366 65.7684 68.257 65.803 68.1465 65.7969H67.8405C67.7379 65.7783 67.6452 65.7249 67.5781 65.6461Z" fill="#1D1D1B"/>
<path d="M83.0723 67.4782C83.0018 67.4058 82.9626 67.3092 82.963 67.2088V65.151C82.9616 65.1011 82.9706 65.0515 82.9894 65.0052C83.0082 64.9589 83.0364 64.9169 83.0723 64.8816C83.1586 64.8132 83.2676 64.7787 83.3782 64.7847C84.4709 64.7847 85.1047 62.9962 85.1047 59.5055V57.4584C85.102 57.4099 85.1105 57.3616 85.1294 57.3168C85.1484 57.2721 85.1773 57.2321 85.214 57.1999C85.2529 57.1628 85.2992 57.1341 85.3501 57.1156C85.4008 57.097 85.4549 57.0891 85.5089 57.092H90.8522C90.9063 57.0883 90.9606 57.096 91.0114 57.1146C91.0623 57.1332 91.1086 57.1623 91.1473 57.1999C91.1859 57.231 91.2169 57.2705 91.2377 57.3154C91.2586 57.3602 91.2688 57.4091 91.2675 57.4584V64.7524H92.2399C92.347 64.7479 92.452 64.7825 92.535 64.8493C92.5732 64.8828 92.603 64.9245 92.622 64.9713C92.6409 65.0181 92.6486 65.0685 92.6442 65.1187V67.2088C92.6469 67.2589 92.6386 67.3089 92.6197 67.3554C92.6008 67.4019 92.5719 67.4438 92.535 67.4782C92.4536 67.549 92.3484 67.5874 92.2399 67.5859H91.9121C91.8051 67.5904 91.7001 67.5559 91.6171 67.489C91.5801 67.4546 91.5513 67.4127 91.5324 67.3661C91.5135 67.3197 91.5052 67.2697 91.5079 67.2196V65.7436H84.0994V67.2088C84.0997 67.3092 84.0605 67.4058 83.9901 67.4782C83.9072 67.5451 83.8022 67.5796 83.6951 67.5751H83.3782C83.2676 67.5813 83.1586 67.5467 83.0723 67.4782ZM90.1857 64.7524V58.0617H86.2847V59.624C86.2847 62.145 85.8805 63.8581 85.0609 64.7847L90.1857 64.7524Z" fill="#1D1D1B"/>
<path d="M87.3551 14.545C76.2748 13.962 65.2122 15.9794 55.0763 20.4314C44.9404 24.8834 36.0204 31.6429 29.0491 40.1548L28.9616 40.2517C23.3257 47.0097 19.0564 54.7706 16.3848 63.1141C13.6775 71.741 12.7559 80.8164 13.6749 89.8013C14.0978 93.7486 14.8655 97.6524 15.9695 101.47C19.2857 113.575 25.8827 124.561 35.0526 133.25C44.2226 141.937 55.6191 147.998 68.0187 150.783C80.4184 153.567 93.353 152.97 105.434 149.054C117.515 145.137 128.286 138.05 136.591 128.555C131.273 135.118 124.808 140.693 117.502 145.018C109.086 149.945 99.752 153.158 90.054 154.467C80.2625 155.803 70.2992 155.205 60.745 152.705C51.1908 150.205 42.2367 145.856 34.4052 139.908C26.5737 133.961 20.0213 126.537 15.1301 118.067C10.239 109.598 7.10701 100.253 5.91676 90.577C4.69595 80.5616 5.54341 70.4062 8.40809 60.7223C11.2524 51.3147 15.9083 42.5354 22.1214 34.8647C28.433 27.104 36.1922 20.6054 44.9805 15.7193C54.1789 10.6734 64.2981 7.4696 74.7563 6.29212C91.0258 4.44187 107.477 7.6033 121.851 15.3422C116.296 13.8916 110.593 13.064 104.849 12.875C98.9708 12.737 93.0972 13.2976 87.3551 14.545Z" fill="#C6C6C6"/>
<path d="M135.326 20.0831C122.43 10.1491 106.838 4.20656 90.5185 3.00612C74.1993 1.80568 57.8854 5.40126 43.6378 13.3385C34.5801 18.4267 26.5974 25.1821 20.1231 33.2382C13.7573 41.2026 9.01196 50.3046 6.14757 60.0439C3.27512 70.0334 2.4761 80.4917 3.79828 90.7928C5.06557 100.678 8.31476 110.216 13.3566 118.851C18.3985 127.486 25.1323 135.046 33.166 141.089C41.1996 147.134 50.3726 151.542 60.1507 154.057C69.9287 156.571 80.1166 157.143 90.1209 155.738C103.167 153.965 115.475 148.716 125.721 140.557C131.472 136.432 136.562 131.479 140.822 125.862C140.352 126.562 139.86 127.263 139.358 127.952C133.714 135.524 126.63 141.94 118.498 146.839C109.849 152.005 100.237 155.41 90.2301 156.848C80.0515 158.296 69.6826 157.733 59.7262 155.194C49.77 152.655 40.4251 148.189 32.235 142.056C24.045 135.924 17.1732 128.248 12.0193 119.472C6.86547 110.698 3.53236 101 2.21388 90.9436C0.830189 80.4364 1.61065 69.7619 4.50854 59.5589C7.4061 49.5949 12.2296 40.2769 18.7135 32.1177C25.3274 23.8432 33.4875 16.8945 42.7528 11.6471C52.4782 6.21692 63.1944 2.73146 74.2878 1.39025C96.5674 -1.32164 119.029 4.78846 136.746 18.3808C139.468 20.4679 142.063 22.7129 144.515 25.1038C141.628 23.2995 138.627 21.6766 135.533 20.2448L135.326 20.0831Z" fill="#C6C6C6"/>
<path d="M128.878 27.7218C123.777 22.9666 117.933 19.0523 111.57 16.129C109.057 15.8223 106.529 15.6497 103.997 15.6119C100.885 15.5992 97.7751 15.7863 94.6875 16.1721C97.5489 16.6732 100.38 17.3314 103.167 18.1437C111.777 20.6296 119.872 24.6022 127.075 29.8766C130.739 32.6088 134.15 35.6554 137.27 38.9806C137.467 38.7988 137.687 38.6432 137.925 38.5174C135.395 34.5486 132.353 30.9199 128.878 27.7218Z" fill="#AFCA0B"/>
<path d="M153.17 52.4269C152.562 50.3893 151.833 48.3889 150.984 46.4366C146.902 37.3098 140.832 29.1807 133.207 22.6261L132.3 21.8503C126.701 19.4694 120.83 17.7655 114.816 16.7758C120.314 19.3023 125.508 22.4283 130.299 26.0952C137.92 31.9564 144.402 39.1288 149.433 47.2662C150.526 49.0331 151.531 50.843 152.471 52.6531C152.694 52.552 152.929 52.4761 153.17 52.4269Z" fill="#AFCA0B"/>
<path d="M164.357 71.0549C164.029 61.3447 161.588 51.8172 157.2 43.118C155.498 39.6676 153.525 36.3535 151.3 33.206C146.309 29.1638 140.825 25.7542 134.975 23.0568C149.897 35.3142 160.043 52.2977 163.679 71.1088C163.904 71.0715 164.13 71.0535 164.357 71.0549Z" fill="#AFCA0B"/>
<path d="M186.307 44.8515H196.428V57.7016H194.716V46.3678H188.01V57.7016H186.307V44.8515ZM198.692 51.443C198.692 49.3101 199.266 47.6418 200.412 46.438C201.559 45.2284 203.039 44.6236 204.854 44.6236C206.042 44.6236 207.112 44.907 208.067 45.4739C209.021 46.0406 209.746 46.8324 210.243 47.8492C210.746 48.8602 210.998 50.0084 210.998 51.294C210.998 52.5972 210.735 53.763 210.208 54.7915C209.682 55.82 208.936 56.6001 207.97 57.1319C207.005 57.6577 205.963 57.9207 204.845 57.9207C203.634 57.9207 202.552 57.6285 201.598 57.0442C200.643 56.4599 199.921 55.6622 199.429 54.6512C198.938 53.6403 198.692 52.5709 198.692 51.443ZM200.447 51.4693C200.447 53.0179 200.863 54.2393 201.694 55.1334C202.531 56.0216 203.579 56.4656 204.836 56.4656C206.117 56.4656 207.172 56.0157 207.996 55.1158C208.827 54.2159 209.243 52.939 209.243 51.2853C209.243 50.2392 209.064 49.3277 208.707 48.5505C208.357 47.7674 207.838 47.1626 207.154 46.736C206.474 46.3036 205.712 46.0874 204.863 46.0874C203.657 46.0874 202.618 46.5024 201.746 47.3321C200.881 48.1561 200.447 49.5352 200.447 51.4693ZM213.149 57.7016V44.8515H215.712L218.758 53.95C219.039 54.7973 219.243 55.4314 219.373 55.8521C219.519 55.3846 219.746 54.698 220.057 53.7923L223.137 44.8515H225.429V57.7016H223.787V46.9464L220.048 57.7016H218.512L214.79 46.7624V57.7016H213.149ZM227.659 51.443C227.659 49.3101 228.231 47.6418 229.379 46.438C230.526 45.2284 232.006 44.6236 233.821 44.6236C235.008 44.6236 236.079 44.907 237.033 45.4739C237.986 46.0406 238.713 46.8324 239.21 47.8492C239.713 48.8602 239.965 50.0084 239.965 51.294C239.965 52.5972 239.702 53.763 239.175 54.7915C238.647 55.82 237.901 56.6001 236.936 57.1319C235.97 57.6577 234.929 57.9207 233.812 57.9207C232.6 57.9207 231.517 57.6285 230.564 57.0442C229.61 56.4599 228.887 55.6622 228.396 54.6512C227.904 53.6403 227.659 52.5709 227.659 51.443ZM229.414 51.4693C229.414 53.0179 229.83 54.2393 230.661 55.1334C231.497 56.0216 232.544 56.4656 233.803 56.4656C235.084 56.4656 236.137 56.0157 236.963 55.1158C237.794 54.2159 238.21 52.939 238.21 51.2853C238.21 50.2392 238.031 49.3277 237.674 48.5505C237.322 47.7674 236.805 47.1626 236.12 46.736C235.441 46.3036 234.677 46.0874 233.83 46.0874C232.624 46.0874 231.585 46.5024 230.713 47.3321C229.847 48.1561 229.414 49.5352 229.414 51.4693ZM242.194 44.8515H243.897V56.1852H248.171V44.8515H249.875V56.1852H254.15V44.8515H255.852V56.1852H257.02V61.2691H255.501V57.7016H242.194V44.8515ZM259.083 44.8515H260.786V50.3386H263.857C265.291 50.3386 266.33 50.5052 266.973 50.8383C267.617 51.1713 268.079 51.6242 268.36 52.1969C268.641 52.7695 268.781 53.3597 268.781 53.9675C268.781 54.9609 268.442 55.8317 267.763 56.5796C267.085 57.3276 265.82 57.7016 263.971 57.7016H259.083V44.8515ZM260.786 56.2553H263.901C265.166 56.2553 265.987 56.0333 266.367 55.5891C266.754 55.1391 266.948 54.5987 266.948 53.9675C266.948 53.4532 266.807 53.0179 266.525 52.6614C266.251 52.2992 265.882 52.0654 265.42 51.9603C264.958 51.855 264.173 51.8024 263.067 51.8024H260.786V56.2553ZM185.772 79.6527C185.772 77.5198 186.344 75.8515 187.492 74.6477C188.639 73.4381 190.119 72.8333 191.934 72.8333C193.122 72.8333 194.192 73.1167 195.146 73.6835C196.099 74.2503 196.825 75.0421 197.323 76.0589C197.826 77.0699 198.078 78.2181 198.078 79.5037C198.078 80.8069 197.815 81.9727 197.288 83.0012C196.761 84.0297 196.014 84.8098 195.049 85.3416C194.083 85.8674 193.042 86.1304 191.925 86.1304C190.713 86.1304 189.63 85.8382 188.676 85.2539C187.723 84.6695 187 83.8718 186.509 82.8609C186.017 81.85 185.772 80.7806 185.772 79.6527ZM187.527 79.679C187.527 81.2276 187.943 82.4489 188.774 83.343C189.61 84.2313 190.657 84.6753 191.916 84.6753C193.197 84.6753 194.25 84.2254 195.076 83.3255C195.907 82.4256 196.323 81.1487 196.323 79.495C196.323 78.4489 196.144 77.5374 195.787 76.7602C195.435 75.9771 194.918 75.3723 194.234 74.9457C193.554 74.5133 192.79 74.2971 191.941 74.2971C190.737 74.2971 189.698 74.712 188.826 75.5418C187.96 76.3658 187.527 77.7448 187.527 79.679ZM200.334 85.9113V73.0611H202.037V78.338H208.725V73.0611H210.428V85.9113H208.725V79.8544H202.037V85.9113H200.334ZM213.298 73.0611H215V78.6886C215.78 78.6886 216.327 78.5396 216.643 78.2416C216.959 77.9377 217.362 77.2131 217.854 76.0676C218.211 75.2262 218.503 74.6331 218.732 74.2883C218.966 73.9377 219.296 73.6455 219.723 73.4118C220.151 73.1722 220.622 73.0524 221.137 73.0524C221.792 73.0524 222.137 73.0582 222.172 73.07V74.5425C222.114 74.5425 222 74.5396 221.83 74.5338C221.643 74.5279 221.528 74.525 221.487 74.525C220.943 74.525 220.54 74.6565 220.277 74.9194C220.007 75.1824 219.7 75.7434 219.355 76.6023C218.922 77.6893 218.556 78.376 218.258 78.6623C217.959 78.9427 217.602 79.1678 217.187 79.3371C218.018 79.5651 218.837 80.3306 219.645 81.6338L222.295 85.9113H220.18L218.029 82.4226C217.439 81.4584 216.943 80.7981 216.546 80.4417C216.148 80.0793 215.633 79.8981 215 79.8981V85.9113H213.298V73.0611ZM223.023 79.6527C223.023 77.5198 223.597 75.8515 224.744 74.6477C225.892 73.4381 227.372 72.8333 229.185 72.8333C230.373 72.8333 231.444 73.1167 232.398 73.6835C233.352 74.2503 234.077 75.0421 234.576 76.0589C235.078 77.0699 235.329 78.2181 235.329 79.5037C235.329 80.8069 235.066 81.9727 234.54 83.0012C234.013 84.0297 233.267 84.8098 232.302 85.3416C231.336 85.8674 230.295 86.1304 229.176 86.1304C227.965 86.1304 226.883 85.8382 225.929 85.2539C224.975 84.6695 224.253 83.8718 223.761 82.8609C223.27 81.85 223.023 80.7806 223.023 79.6527ZM224.78 79.679C224.78 81.2276 225.194 82.4489 226.025 83.343C226.862 84.2313 227.91 84.6753 229.169 84.6753C230.45 84.6753 231.503 84.2254 232.329 83.3255C233.159 82.4256 233.574 81.1487 233.574 79.495C233.574 78.4489 233.396 77.5374 233.039 76.7602C232.688 75.9771 232.171 75.3723 231.485 74.9457C230.807 74.5133 230.043 74.2971 229.194 74.2971C227.989 74.2971 226.95 74.712 226.078 75.5418C225.212 76.3658 224.78 77.7448 224.78 79.679ZM237.612 73.0611H245.96V74.5775H239.315V78.5396H242.388C243.523 78.5396 244.423 78.6477 245.091 78.8639C245.764 79.08 246.302 79.4891 246.706 80.091C247.109 80.6871 247.312 81.3825 247.312 82.1772C247.312 82.8259 247.166 83.4336 246.873 84.0005C246.585 84.5615 246.155 85.0201 245.583 85.3766C245.009 85.733 244.031 85.9113 242.651 85.9113H237.612V73.0611ZM239.315 84.465H242.72C243.64 84.465 244.327 84.2779 244.784 83.904C245.246 83.53 245.477 82.969 245.477 82.2211C245.477 81.6893 245.345 81.2451 245.082 80.8887C244.819 80.5322 244.453 80.2955 243.985 80.1787C243.517 80.0619 242.718 80.0034 241.588 80.0034H239.315V84.465ZM248.601 79.6527C248.601 77.5198 249.175 75.8515 250.322 74.6477C251.469 73.4381 252.949 72.8333 254.763 72.8333C255.951 72.8333 257.022 73.1167 257.976 73.6835C258.93 74.2503 259.656 75.0421 260.153 76.0589C260.656 77.0699 260.908 78.2181 260.908 79.5037C260.908 80.8069 260.644 81.9727 260.118 83.0012C259.591 84.0297 258.845 84.8098 257.88 85.3416C256.914 85.8674 255.873 86.1304 254.754 86.1304C253.544 86.1304 252.461 85.8382 251.507 85.2539C250.553 84.6695 249.83 83.8718 249.34 82.8609C248.848 81.85 248.601 80.7806 248.601 79.6527ZM250.358 79.679C250.358 81.2276 250.773 82.4489 251.603 83.343C252.441 84.2313 253.488 84.6753 254.747 84.6753C256.028 84.6753 257.081 84.2254 257.906 83.3255C258.738 82.4256 259.152 81.1487 259.152 79.495C259.152 78.4489 258.974 77.5374 258.617 76.7602C258.266 75.9771 257.748 75.3723 257.063 74.9457C256.385 74.5133 255.621 74.2971 254.772 74.2971C253.567 74.2971 252.528 74.712 251.656 75.5418C250.791 76.3658 250.358 77.7448 250.358 79.679ZM263.84 73.0611H271.898V85.9113H270.195V74.5775H265.543V81.1955C265.543 82.5395 265.479 83.5241 265.349 84.1495C265.227 84.7747 264.964 85.2626 264.559 85.6133C264.156 85.9581 263.644 86.1304 263.024 86.1304C262.649 86.1304 262.198 86.0603 261.672 85.92L261.962 84.4124C262.242 84.5293 262.482 84.5877 262.681 84.5877C263.067 84.5877 263.358 84.4445 263.55 84.1582C263.743 83.8659 263.84 83.1823 263.84 82.1071V73.0611ZM274.759 73.0611H276.463V78.5483H279.534C280.968 78.5483 282.007 78.7149 282.65 79.048C283.294 79.381 283.756 79.8339 284.037 80.4065C284.318 80.9792 284.458 81.5694 284.458 82.1772C284.458 83.1706 284.119 84.0414 283.44 84.7893C282.762 85.5372 281.497 85.9113 279.648 85.9113H274.759V73.0611ZM276.463 84.465H279.578C280.842 84.465 281.664 84.2429 282.044 83.7988C282.431 83.3488 282.623 82.8083 282.623 82.1772C282.623 81.6629 282.483 81.2276 282.202 80.8711C281.927 80.5089 281.559 80.2751 281.097 80.17C280.634 80.0647 279.85 80.0121 278.744 80.0121H276.463V84.465ZM286.547 85.9113V73.0611H288.25V78.338H294.939V73.0611H296.641V85.9113H294.939V79.8544H288.25V85.9113H286.547ZM299.574 73.0611H301.277V78.5483H304.348C306.362 78.5483 307.684 78.9194 308.316 79.6616C308.954 80.4037 309.273 81.2451 309.273 82.1859C309.273 83.1794 308.934 84.0501 308.254 84.798C307.576 85.5402 306.315 85.9113 304.471 85.9113H299.574V73.0611ZM301.277 84.465H304.393C305.464 84.465 306.238 84.2868 306.719 83.9303C307.204 83.568 307.448 82.9923 307.448 82.2035C307.448 81.6658 307.302 81.2159 307.009 80.8537C306.716 80.4913 306.338 80.2605 305.876 80.1611C305.414 80.0619 304.641 80.0121 303.559 80.0121H301.277V84.465ZM310.819 73.0611H312.521V85.9113H310.819V73.0611ZM315.356 85.9113V73.0611H317.919L320.965 82.1597C321.246 83.007 321.45 83.641 321.579 84.0618C321.725 83.5942 321.954 82.9077 322.265 82.0019L325.345 73.0611H327.636V85.9113H325.995V75.1561L322.256 85.9113H320.719L316.997 74.9721V85.9113H315.356ZM187.456 101.271H195.286V112.605H196.445V117.119H194.927V114.121H186.421V117.119H184.902V112.605H185.903C186.939 111.044 187.456 107.892 187.456 103.147V101.271ZM193.584 102.787H189.099V103.445C189.099 104.537 188.998 106.033 188.799 107.933C188.607 109.826 188.223 111.383 187.65 112.605H193.584V102.787ZM198.508 114.121V101.271H207.812V102.787H200.211V106.723H207.33V108.231H200.211V112.605H208.11V114.121H198.508ZM213.737 114.121V102.787H209.497V101.271H219.697V102.787H215.44V114.121H213.737ZM231.231 114.121V101.271H225.526C224.378 101.271 223.506 101.388 222.91 101.622C222.313 101.849 221.835 102.255 221.478 102.84C221.121 103.424 220.943 104.07 220.943 104.777C220.943 105.689 221.24 106.457 221.83 107.082C222.421 107.708 223.334 108.105 224.569 108.274C224.118 108.491 223.776 108.704 223.542 108.914C223.044 109.37 222.574 109.94 222.128 110.624L219.89 114.121H222.032L223.734 111.447C224.233 110.676 224.642 110.086 224.963 109.677C225.286 109.268 225.572 108.982 225.824 108.818C226.082 108.654 226.341 108.54 226.606 108.476C226.798 108.435 227.114 108.415 227.553 108.415H229.528V114.121H231.231ZM229.528 106.942H225.867C225.089 106.942 224.481 106.863 224.041 106.705C223.604 106.542 223.27 106.285 223.041 105.934C222.813 105.578 222.7 105.192 222.7 104.777C222.7 104.169 222.918 103.67 223.357 103.278C223.803 102.887 224.501 102.691 225.455 102.691H229.528V106.942ZM233.988 114.121V101.271H236.551L239.596 110.369C239.876 111.217 240.082 111.851 240.21 112.271C240.356 111.804 240.585 111.117 240.894 110.212L243.976 101.271H246.267V114.121H244.626V103.366L240.887 114.121H239.35L235.629 103.182V114.121H233.988Z" fill="#1D1D1B"/>
</svg>
