<svg width="403" height="271" viewBox="0 0 403 271" fill="none" xmlns="http://www.w3.org/2000/svg">
  <g clip-path="url(#clip0_69_5597)">
    <path d="M371.937 65.2539C371.009 65.2539 369.975 65.6818 368.763 66.5732C367.55 67.4647 366.23 68.4274 364.84 69.4972C363.449 70.5669 361.951 71.5653 360.382 72.4211C358.812 73.3126 357.208 73.7405 355.568 73.7405C355.425 73.7405 354.284 73.5265 354.105 72.2785C354.034 71.8149 353.998 71.3157 353.998 70.8165C353.998 68.8553 354.533 66.4663 355.603 63.6136C356.673 60.761 357.885 57.9084 359.24 54.9844C360.596 52.0961 361.772 49.3505 362.878 46.7474C363.948 44.1801 364.483 42.1832 364.483 40.8282C364.483 39.9011 364.198 39.081 363.663 38.2965C363.092 37.5121 362.343 37.1198 361.344 37.1198C360.346 37.1198 359.383 38.0469 358.349 39.8655C357.35 41.684 356.245 43.9661 355.068 46.7118C353.892 49.4574 352.608 52.4171 351.217 55.5906C349.826 58.7642 348.185 61.7238 346.366 64.4694C344.548 67.2151 342.479 69.4972 340.197 71.3157C337.914 73.1343 335.311 74.0614 332.351 74.0614C331.78 74.0614 331.316 73.7761 331.031 73.2413C330.746 72.6707 330.496 72.0289 330.353 71.2801C330.175 70.5313 330.104 69.7824 330.068 69.0336C330.068 68.2848 330.032 67.7143 330.032 67.322C330.032 64.8973 330.425 62.3299 331.245 59.5843C332.065 56.8386 332.993 54.2356 333.991 51.7396C334.99 49.2435 335.917 46.997 336.737 44.9645C337.557 42.932 337.95 41.3988 337.95 40.3647C337.95 39.5802 337.7 38.8314 337.165 38.1182C336.63 37.4051 335.917 37.0485 335.025 37.0485C333.599 37.0485 332.565 37.5834 331.994 38.6174V38.5105C329.961 40.8639 328.035 43.3243 326.216 45.856C324.398 48.3877 322.436 50.8838 320.831 53.5938C316.052 61.5455 309.062 68.4274 307.636 69.5328C306.245 70.6026 304.747 71.601 303.178 72.4568C301.608 73.3482 300.004 73.7761 298.363 73.7761C298.22 73.7761 298.078 73.7761 297.935 73.6692C297.757 73.5978 297.614 73.5265 297.507 73.4909C297.186 73.1699 296.972 72.7777 296.901 72.3142C296.83 71.8506 296.794 71.3514 296.794 70.8522C296.794 68.891 297.329 66.5019 298.399 63.6493C299.469 60.7967 300.681 57.944 302.036 55.0201C303.392 52.1318 304.569 49.3861 305.674 46.7831C306.744 44.2157 307.279 42.2189 307.279 40.8639C307.279 39.9368 306.994 39.1167 306.459 38.3322C305.888 37.5477 305.139 37.1555 304.141 37.1555C303.142 37.1555 302.179 38.0826 301.145 39.9011C300.146 41.7197 299.041 44.0018 297.864 46.7474C296.687 49.4931 295.403 52.4527 294.012 55.6263C292.621 58.7998 290.981 61.7594 289.162 64.5051C287.343 67.2507 285.274 69.5328 282.992 71.3514C280.71 73.1699 278.106 74.0971 275.146 74.0971C274.54 74.0971 274.112 73.8118 273.826 73.2769C273.541 72.7064 273.291 72.0645 273.149 71.3157C272.971 70.5669 272.899 69.8181 272.863 69.0693C272.863 68.3205 272.828 67.7499 272.828 67.3577C272.828 64.933 273.22 62.3656 274.04 59.6199C274.861 56.8743 275.788 54.2713 276.787 51.7752C277.785 49.2792 278.712 47.0327 279.533 45.0002C280.353 42.9677 280.745 41.4344 280.745 40.4003C280.745 39.6159 280.496 38.8671 279.961 38.1539C279.426 37.4407 278.712 37.0842 277.821 37.0842C277.108 37.0842 276.537 37.1911 276.109 37.4407C275.681 37.6547 275.324 37.9756 275.075 38.3322C274.825 38.6888 274.575 39.1167 274.397 39.6159C274.183 40.1151 274.005 40.6143 273.791 41.1492C273.541 41.791 272.899 42.8964 271.936 44.4653C270.973 46.0343 269.796 47.7815 268.441 49.7427C267.086 51.7039 265.659 53.772 264.09 55.9115C262.521 58.051 257.528 64.6477 245.224 73.063C243.584 74.1684 241.907 74.7032 240.267 74.8102L240.16 73.2413C240.16 72.4568 240.338 71.2801 240.695 69.7111C241.051 68.1422 241.515 66.3593 242.05 64.3268C242.621 62.2943 243.227 60.1905 243.905 57.944C244.582 55.7332 245.26 53.5581 245.902 51.4899C246.544 49.3861 247.15 47.4963 247.721 45.749C248.291 44.0018 248.719 42.6468 249.04 41.5771H248.933C249.111 40.9709 249.325 40.3647 249.468 39.7228C249.611 39.081 249.718 38.4035 249.718 37.7617C249.718 36.6563 249.468 36.0144 248.933 35.8005C248.398 35.5866 247.685 35.5152 246.793 35.5152C245.937 35.5152 245.295 35.6935 244.832 36.0857C244.368 36.478 244.012 36.9415 243.762 37.5121C243.512 38.0826 243.298 38.6888 243.12 39.3306C242.942 39.9724 242.692 40.5786 242.371 41.0778C241.444 42.5755 240.267 43.9305 238.84 45.1428C237.414 46.3552 235.845 47.4606 234.133 48.459C232.421 49.4574 230.673 50.3489 228.89 51.0977C227.107 51.8465 225.395 52.4884 223.826 53.0232C224.076 52.3814 224.539 51.276 225.145 49.7784C225.752 48.2807 226.394 46.7474 227 45.1785C227.606 43.6096 228.177 42.1476 228.605 40.8282C229.033 39.5089 229.282 38.6174 229.282 38.2252C229.282 37.5121 228.89 36.8702 228.141 36.2997C227.392 35.7292 226.679 35.4796 226.037 35.4796C224.789 35.4796 223.79 36.1214 223.006 37.4407C221.829 39.4732 220.117 42.0049 217.906 45.0715C215.695 48.1381 213.305 51.2047 210.737 54.2713C208.205 57.3378 205.602 60.1192 202.963 62.6509C200.323 65.1826 194.867 69.9964 188.84 73.0273C187.021 73.9544 185.238 74.4536 183.383 74.4536C181.885 74.4536 180.851 73.8474 180.28 72.6351C179.71 71.4227 179.46 70.2103 179.46 68.9623C179.46 66.8585 179.781 64.3981 180.459 61.5811C181.101 58.7285 182.099 56.0542 183.455 53.4868C184.81 50.9551 186.45 48.7799 188.412 46.9614C190.373 45.1428 192.656 44.2514 195.259 44.2514C195.723 44.2514 196.151 44.394 196.543 44.6793C196.935 44.9646 197.256 45.2855 197.506 45.6064C197.72 45.6064 197.898 45.6064 198.148 45.6421C198.362 45.6421 198.576 45.6777 198.79 45.6777C199.575 45.6777 200.324 45.3924 201.037 44.8576C201.75 44.287 202.107 43.6095 202.107 42.7538C202.107 41.8267 201.857 41.0778 201.322 40.436C200.787 39.8298 200.145 39.2949 199.396 38.9027C198.647 38.5105 197.827 38.2252 196.935 38.0113C196.044 37.833 195.259 37.726 194.546 37.726C192.513 37.726 190.587 38.1896 188.768 39.1523C186.95 40.1151 185.202 41.3631 183.526 42.9321C181.85 44.501 180.28 46.2482 178.783 48.2094C177.285 50.1706 175.894 52.1674 174.61 54.1999C173.326 56.2324 172.149 58.2293 171.044 60.1905C169.938 62.1517 168.939 63.8632 168.012 65.2895C168.476 63.471 169.046 61.4742 169.724 59.299C170.402 57.1239 171.044 54.9488 171.65 52.7023C172.256 50.4559 172.755 48.2451 173.183 46.0343C173.611 43.8592 173.825 41.8267 173.825 40.0081C173.825 39.2949 173.647 38.5818 173.219 37.9043C172.827 37.2268 172.22 36.8702 171.365 36.8702C170.651 36.8702 169.653 37.5121 168.369 38.7957C167.085 40.0794 165.837 41.5414 164.553 43.146C163.269 44.7506 162.092 46.3909 160.986 47.9955C159.881 49.6001 159.096 50.7411 158.633 51.383C158.775 49.5644 158.74 47.8528 158.597 46.2839C158.419 44.7149 158.026 43.3599 157.313 42.1832C156.6 41.0065 155.637 40.0794 154.317 39.4376C152.998 38.7957 151.322 38.4748 149.217 38.4748C146.293 38.4748 143.583 39.1523 141.122 40.4717C138.661 41.8267 136.414 43.5026 134.31 45.5351C132.206 47.5676 130.28 49.7784 128.532 52.1318C126.785 54.5209 120.365 63.2571 119.51 64.4338C118.654 65.6105 112.84 71.5297 111.271 72.4211C109.702 73.3126 108.097 73.7405 106.457 73.7405C106.314 73.7405 106.171 73.7405 106.029 73.6335C105.85 73.5622 105.708 73.4909 105.601 73.4552C105.28 73.1343 105.066 72.742 104.994 72.2785C104.923 71.8149 104.887 71.3157 104.887 70.8165C104.887 68.8553 105.422 66.4663 106.492 63.6136C107.562 60.761 108.775 57.9084 110.13 54.9844C111.485 52.0961 112.662 49.3505 113.768 46.7474C114.838 44.1801 115.373 42.1832 115.373 40.8282C115.373 39.9011 115.087 39.081 114.552 38.2965C113.982 37.5121 113.233 37.1198 112.234 37.1198C111.236 37.1198 110.273 38.0469 109.238 39.8655C108.24 41.684 107.134 43.9661 105.957 46.7118C104.78 49.4574 103.497 52.4171 102.106 55.5906C100.715 58.7642 99.0742 61.7238 97.2554 64.4694C95.4365 67.2151 93.368 69.4972 91.0855 71.3157C88.803 73.1343 86.1996 74.0614 83.2395 74.0614C82.6332 74.0614 82.2053 73.7761 81.92 73.2413C81.6346 72.6707 81.385 72.0289 81.2423 71.2801C81.064 70.5313 80.9927 69.7824 80.957 69.0336C80.957 68.2848 80.9214 67.7143 80.9214 67.322C80.9214 64.8973 81.3137 62.3299 82.1339 59.5843C82.9542 56.8386 83.8815 54.2356 84.88 51.7396C85.8786 49.2435 86.8059 46.997 87.6261 44.9645C88.4464 42.932 88.8387 41.3988 88.8387 40.3647C88.8387 39.5802 88.5891 38.8314 88.0541 38.1182C87.5192 37.4051 86.8059 37.0485 85.9143 37.0485C85.201 37.0485 84.6304 37.1555 84.2024 37.4051C83.7745 37.619 83.4178 37.9399 83.1682 38.2965C82.9185 38.6531 82.6689 39.081 82.4906 39.5802C82.2766 40.0794 82.0983 40.5786 81.8843 41.1135C81.6346 41.7553 80.9927 42.8607 80.0298 44.4297C79.0669 45.9986 77.89 47.7459 76.5347 49.707C75.1795 51.6682 73.753 53.7364 72.1838 55.8759C66.9055 63.0431 60.5217 68.1778 59.2735 68.998C58.0253 69.8181 56.2064 71.0305 55.0295 71.7436C53.8526 72.4568 52.7827 73.063 51.7841 73.5622C50.8212 74.0614 50.0722 74.311 49.6443 74.311C48.7884 74.311 48.3247 74.0614 48.2177 73.5622C48.1107 73.063 48.0751 72.4924 48.0751 71.8506C48.0751 65.8957 48.7527 60.0835 50.1436 54.4139C51.5345 48.7443 53.068 43.0747 54.7442 37.4764C56.3134 36.7632 58.0966 35.9074 60.1294 34.8734C62.1623 33.875 64.2307 32.7339 66.2992 31.4859C68.4034 30.2379 70.4362 28.8829 72.4334 27.3852C74.4306 25.8876 76.1781 24.283 77.7116 22.6427C79.2452 20.9668 80.4934 19.1839 81.4207 17.2941C82.3836 15.4042 82.8472 13.443 82.8472 11.4105C82.8472 9.84157 82.5976 8.37959 82.0983 6.98893C81.599 5.59828 80.9214 4.42157 80.0298 3.42314C79.1382 2.42472 78.0683 1.60459 76.7844 0.96275C75.5005 0.356566 74.0739 0.0356445 72.4334 0.0356445C69.9013 0.0356445 67.5831 0.606172 65.586 1.71157C63.5531 2.81696 61.7699 4.27893 60.2364 6.06183C58.7029 7.84472 57.3476 9.94854 56.1707 12.302C54.9938 14.6554 53.9953 17.0445 53.1393 19.5049C52.2834 21.9652 51.5345 24.3543 50.8925 26.7434C50.2506 29.1325 49.6443 31.3076 49.145 33.2688L32.8824 40.8282C34.7726 34.7664 36.4844 28.6689 38.0179 22.5358C39.5515 16.4383 41.0137 10.2695 42.3689 4.06499L41.9766 2.49604C41.5843 2.1038 41.1207 1.71157 40.6214 1.35499C40.1221 0.998408 39.5515 0.820119 38.9452 0.820119C38.6955 0.820119 37.9466 1.21236 36.6984 2.03249C35.4502 2.85262 33.988 3.8867 32.3475 5.13472C30.6713 6.38275 28.8881 7.73775 26.9979 9.23538C25.1078 10.733 23.3602 12.195 21.7554 13.5856C20.1505 14.9763 18.8309 16.26 17.7967 17.3654C16.7624 18.4708 16.2275 19.2552 16.2275 19.7188C16.2275 20.5746 16.5128 21.2877 17.0477 21.8226C17.6184 22.3931 18.3316 22.6427 19.2589 22.6427C19.8652 22.6427 20.7924 22.2862 22.112 21.573C23.4316 20.8599 24.8224 20.0041 26.2847 19.077C27.7469 18.1499 29.1734 17.1871 30.493 16.2956C31.8482 15.3685 32.8111 14.7267 33.3817 14.3345L25.5357 43.8235C22.647 45.1428 19.7225 46.6048 16.7268 48.2451C13.731 49.8853 10.9849 51.7752 8.48846 53.986C5.992 56.1968 3.95916 58.6572 2.35431 61.4385C0.749444 64.2198 -0.0351562 67.3934 -0.0351562 70.9948C-0.0351562 74.3823 1.10608 76.914 3.3529 78.5899C5.5997 80.2659 8.31014 81.086 11.4485 81.086C13.8024 81.086 15.8708 80.5155 17.6897 79.3744C19.5085 78.2334 21.0064 76.7357 22.2903 74.8815C23.5742 73.0273 24.6441 70.8878 25.5714 68.4988C26.4986 66.1097 27.2832 63.6849 27.9252 61.2602C28.5671 58.7998 29.1378 56.4464 29.6014 54.1643C30.065 51.8822 30.5286 49.8497 30.9566 48.1024C33.7027 46.8544 36.413 45.5707 39.0878 44.2157C41.7626 42.8607 44.5087 41.684 47.3261 40.6499C45.9709 45.6064 44.6514 50.5985 43.4388 55.6263C42.2262 60.654 41.6199 65.7888 41.6199 70.9948C41.6199 72.3498 41.7269 73.6692 41.9766 74.8815C42.2262 76.0939 42.6185 77.128 43.2605 78.0194C43.8668 78.9109 44.687 79.5884 45.7213 80.1232C46.7199 80.6581 48.0394 80.9077 49.573 80.9077C50.2862 80.9077 51.2848 80.6938 52.4974 80.2302C53.7456 79.7667 55.1008 79.1605 56.563 78.376C58.0253 77.5915 59.4875 76.7001 60.9853 75.7373C62.4476 74.7745 63.8028 73.7761 65.0153 72.742C65.0153 72.742 65.051 72.7064 65.0867 72.6707C65.586 72.3855 69.1167 69.0336 70.3292 67.5717C71.5418 66.1097 72.683 64.719 73.7173 63.2927C74.7515 61.9021 75.5005 60.9036 75.8571 60.2974C75.5361 61.6524 75.2508 63.0788 74.9655 64.5051C74.7159 65.9314 74.5732 67.3934 74.5732 68.8197C74.5732 72.4924 75.3578 75.3451 76.927 77.3776C78.4962 79.4457 81.2067 80.4798 85.0584 80.4798C86.4849 80.4798 87.8758 80.2302 89.1597 79.731C90.4793 79.2318 91.6918 78.5899 92.8687 77.8055C94.0456 77.021 95.1512 76.1295 96.1854 75.1668C97.2197 74.204 98.2183 73.2056 99.1455 72.2428C99.2168 74.5249 99.8231 76.4505 100.964 77.9838C102.106 79.517 103.924 80.3015 106.421 80.3015C107.74 80.3015 109.381 79.9093 111.414 79.1248C113.447 78.3403 115.765 77.5915 117.37 76.0226C126.25 67.3934 134.06 54.0217 135.879 51.9892C137.698 49.9567 139.624 48.2807 141.692 46.9257C143.797 45.5707 146.115 44.9289 148.647 44.9289C151.179 44.9289 152.57 46.2839 152.57 49.0296C152.57 51.5256 152.07 54.3069 151.108 57.4092C150.109 60.5114 148.754 63.4353 147.042 66.181C145.33 68.9267 143.226 71.2444 140.801 73.1343C138.376 75.0241 135.736 75.9869 132.848 75.9869C132.384 75.9869 131.956 75.8443 131.564 75.559C131.172 75.2738 130.066 74.4536 129.317 74.5249C128.568 74.5963 127.783 74.8102 127.07 75.3451C126.357 75.9156 126 76.5931 126 77.4489C126 78.376 126.25 79.1248 126.785 79.7667C127.32 80.3728 127.962 80.9077 128.711 81.2999C129.46 81.6922 130.28 81.9774 131.172 82.1914C132.063 82.3697 132.848 82.4767 133.561 82.4767C135.594 82.4767 137.627 81.9774 139.624 81.0147C141.657 80.0519 143.618 78.7326 145.508 77.0923C147.399 75.4521 149.253 73.6335 151.036 71.601C152.819 69.5685 154.531 67.5003 156.136 65.3609C157.741 63.2214 159.203 61.1889 160.487 59.2277C161.807 57.2665 162.984 55.5193 164.018 54.0217C163.697 55.127 163.198 56.8743 162.556 59.2277C161.914 61.5811 161.236 64.0415 160.558 66.5732C159.881 69.1049 159.275 71.5297 158.811 73.7761C158.312 76.0226 158.062 77.6272 158.062 78.5186C158.062 79.3744 158.205 80.2302 158.561 81.1217C158.882 82.0131 159.596 82.441 160.701 82.441C161.486 82.441 162.484 81.8348 163.733 80.5868C164.981 79.3388 166.229 77.8768 167.513 76.2365C168.797 74.5606 169.974 72.9203 171.044 71.3514C172.114 69.7468 172.898 68.6057 173.362 67.8569C173.219 69.6755 173.255 71.387 173.397 72.956C173.54 74.5249 174.004 75.8799 174.681 77.0567C175.359 78.2334 176.357 79.1605 177.677 79.838C178.997 80.5155 180.673 80.872 182.777 80.872C183.49 80.872 184.489 80.6581 185.773 80.2659C187.057 79.8736 188.447 79.3388 189.981 78.6613C191.515 77.9838 193.084 77.1993 194.653 76.3078C196.222 75.4164 202 71.3514 206.957 66.3949C208.74 64.6121 210.416 62.8292 211.95 61.0463C213.483 59.2634 214.553 58.0153 215.124 57.2309C214.518 58.9781 213.876 60.7253 213.162 62.4369C212.449 64.1485 211.772 65.8601 211.094 67.643H211.201C211.023 68.1065 210.702 68.8197 210.309 69.8538C209.917 70.8522 209.525 71.9219 209.097 72.9917C208.669 74.0614 208.312 75.0955 207.956 76.0939C207.599 77.0923 207.456 77.7342 207.456 78.0551C207.456 78.7682 207.813 79.4101 208.597 79.9806C209.382 80.5511 210.06 80.8007 210.702 80.8007C211.344 80.8007 212.057 80.4085 212.77 79.5884C213.483 78.7682 214.197 77.7342 214.874 76.4505C215.552 75.1668 216.23 73.7761 216.836 72.2428C217.442 70.7095 218.013 69.2119 218.548 67.7499C219.083 66.288 219.546 64.9686 219.903 63.7919C220.295 62.6152 220.58 61.7594 220.794 61.2602H220.687L220.794 61.0819C223.933 60.1548 227.071 58.9781 230.21 57.5518C233.348 56.1255 236.273 54.5209 239.019 52.738C238.698 53.8434 238.234 55.4123 237.592 57.4092C236.986 59.406 236.38 61.4742 235.773 63.6493C235.167 65.8244 234.668 67.8926 234.204 69.8894C233.74 71.8863 233.526 73.3839 233.526 74.3467C233.526 76.2365 234.133 77.8768 235.381 79.2318C236.629 80.5868 238.234 81.2999 240.196 81.2999C241.301 81.2999 242.942 80.8007 245.081 79.838C247.221 78.8752 254.532 73.5622 256.494 71.9219C258.812 69.9607 264.411 64.826 265.481 63.4353C266.515 62.0447 267.264 61.0463 267.621 60.4401C267.3 61.7951 267.015 63.2214 266.729 64.6477C266.48 66.074 266.337 67.536 266.337 68.9623C266.337 72.6351 267.122 75.4877 268.691 77.5202C270.26 79.5884 272.971 80.6224 276.822 80.6224C278.249 80.6224 279.64 80.3728 280.924 79.8736C282.243 79.3744 283.456 78.7326 284.633 77.9481C285.809 77.1636 286.915 76.2722 287.949 75.3094C288.983 74.3467 289.982 73.3482 290.909 72.3855C290.981 74.6676 291.587 76.5931 292.728 78.1264C293.869 79.6597 295.688 80.4442 298.185 80.4442C299.504 80.4442 301.145 80.0519 303.178 79.2674C305.211 78.483 307.172 77.4845 309.098 76.2722C311.024 75.0598 313.377 73.0273 314.733 71.5297C315.232 70.9948 317.942 67.5717 319.333 65.7174C320.796 63.7563 322.186 61.8664 323.435 60.0835C324.683 58.3006 325.467 57.0169 325.86 56.4464C325.325 58.4789 324.826 60.547 324.291 62.6865C323.756 64.826 323.506 66.9298 323.506 68.998C323.506 72.6707 324.291 75.5234 325.86 77.5559C327.429 79.624 330.139 80.6581 333.991 80.6581C335.418 80.6581 336.809 80.4085 338.092 79.9093C339.412 79.4101 340.625 78.7682 341.801 77.9838C342.978 77.1993 344.084 76.3078 345.118 75.3451C346.152 74.3823 347.151 73.3839 348.043 72.4211C348.114 74.7032 348.72 76.6288 349.861 78.162C351.003 79.6953 352.822 80.4798 355.318 80.4798C356.637 80.4798 358.277 80.0876 360.31 79.3031C362.343 78.5186 364.305 77.5202 366.23 76.3078C368.156 75.0955 369.797 73.7405 371.188 72.2428C372.579 70.7452 373.256 69.2832 373.256 67.8213C373.256 67.2864 373.185 66.7872 373.078 66.2523C372.935 65.7174 372.507 65.4678 371.794 65.4678L371.937 65.2539ZM58.5602 23.0706C59.3805 20.3606 60.4147 17.7576 61.6986 15.2972C62.9825 12.8012 64.4804 10.6617 66.1922 8.8788C67.9398 7.09591 69.9369 6.1688 72.2194 6.1688C73.7173 6.1688 74.7872 6.73933 75.3935 7.84472C75.9998 8.95012 76.3207 10.1625 76.3207 11.4818C76.3207 13.3004 75.5718 15.1546 74.0739 16.9731C72.5761 18.7917 70.7929 20.5389 68.6887 22.1792C66.5846 23.8195 64.4447 25.3171 62.2336 26.6364C60.0224 27.9914 58.1679 29.0255 56.7414 29.81C57.1337 28.0627 57.74 25.8163 58.5602 23.1063V23.0706ZM22.2903 57.0169C21.7197 59.5486 21.0064 62.1517 20.1505 64.7547C19.2589 67.3577 18.2247 69.6398 17.0121 71.601C15.7995 73.5622 14.373 74.5249 12.7324 74.5249C12.1975 74.5249 11.5912 74.525 10.8779 74.418C10.1647 74.3467 9.48704 74.204 8.80943 73.9901C8.16748 73.7761 7.59686 73.4195 7.13324 73.0273C6.66961 72.6351 6.45563 72.0289 6.45563 71.3157C6.45563 68.5701 6.95492 66.2167 7.91784 64.2198C8.91642 62.223 10.1647 60.4757 11.7339 58.9424C13.3031 57.4092 15.1219 56.0542 17.1904 54.8774C19.2589 53.7007 21.3631 52.5597 23.5029 51.4543C23.2532 52.631 22.8253 54.4852 22.2903 57.0526V57.0169Z" fill="#B71351" />
    <path d="M344.013 31.1293C345.51 32.0207 347.08 32.6982 348.685 33.1975C350.289 33.6967 351.68 33.9463 352.857 33.9463C353.713 33.9463 354.819 33.768 356.174 33.4114C357.528 33.0548 358.884 32.5556 360.203 31.9494C361.523 31.3432 362.664 30.5944 363.627 29.7386C364.626 28.8828 365.089 27.9557 365.089 26.886C365.089 26.0302 364.804 25.3171 364.198 24.6752C363.591 24.0334 362.878 23.7481 362.058 23.7481C361.344 23.7481 360.703 23.9264 360.096 24.3543C359.49 24.7465 358.884 25.1388 358.242 25.5667C357.6 25.9946 356.815 26.3868 355.924 26.779C355.033 27.1713 353.998 27.3496 352.75 27.3496C350.967 27.3496 349.576 27.0286 348.542 26.4224C347.508 25.8163 346.616 25.1031 345.903 24.3186C345.19 23.5342 344.512 22.821 343.906 22.2148C343.299 21.6086 342.515 21.2877 341.587 21.2877C340.803 21.2877 340.125 21.573 339.519 22.1792C338.913 22.7853 338.627 23.4628 338.627 24.2473C338.627 25.6023 339.162 26.886 340.197 28.0627C341.231 29.2394 342.515 30.2735 344.013 31.1649V31.1293Z" fill="#B71351" />
    <path d="M399.54 65.7531C399.184 64.9686 398.649 64.3268 397.971 63.7919C397.293 63.257 396.366 63.0074 395.189 63.0074C394.012 63.0074 393.085 63.3284 392.194 63.9702C391.302 64.6121 390.553 65.4322 389.875 66.4306C389.234 67.3934 388.734 68.4631 388.413 69.5685C388.092 70.6739 387.914 71.708 387.914 72.7064C387.914 73.7405 388.057 74.8102 388.342 75.8443C388.627 76.8784 389.162 77.7698 389.947 78.483C389.768 78.9465 389.519 79.5527 389.198 80.3015C388.877 81.0503 388.627 81.8705 388.378 82.6906C388.128 83.5464 387.878 84.3665 387.7 85.151C387.522 85.9355 387.415 86.5416 387.415 87.0052C387.415 87.861 387.7 88.6098 388.235 89.2516C388.806 89.8935 389.519 90.2144 390.446 90.2144C391.159 90.2144 391.908 89.8222 392.693 89.0734C393.477 88.3245 394.226 87.3261 394.94 86.1494C395.653 84.9727 396.331 83.6177 397.008 82.1201C397.65 80.6581 398.221 79.1961 398.72 77.8055C399.219 76.4148 399.612 75.0955 399.897 73.9188C400.182 72.742 400.325 71.8149 400.325 71.1731C400.325 70.246 400.289 69.3189 400.182 68.3205C400.075 67.322 399.861 66.4663 399.505 65.6818L399.54 65.7531Z" fill="#B71351" />
    <path d="M356.673 105.726C358.17 106.617 359.74 107.295 361.344 107.794C362.949 108.293 364.34 108.543 365.517 108.543C366.373 108.543 367.479 108.364 368.834 108.008C370.189 107.651 371.544 107.152 372.864 106.546C374.183 105.94 375.325 105.191 376.288 104.335C377.286 103.479 377.75 102.552 377.75 101.482C377.75 100.627 377.464 99.9134 376.858 99.2715C376.252 98.6297 375.539 98.3444 374.718 98.3444C374.005 98.3444 373.363 98.5227 372.757 98.9506C372.151 99.3428 371.544 99.7351 370.902 100.163C370.26 100.591 369.476 100.983 368.584 101.375C367.693 101.768 366.658 101.946 365.41 101.946C363.627 101.946 362.236 101.625 361.202 101.019C360.168 100.413 359.276 99.6994 358.563 98.9149C357.849 98.1305 357.172 97.4173 356.566 96.8111C355.959 96.2049 355.175 95.884 354.247 95.884C353.463 95.884 352.785 96.1693 352.179 96.7755C351.573 97.3816 351.287 98.0591 351.287 98.8436C351.287 100.199 351.822 101.482 352.857 102.659C353.891 103.836 355.175 104.87 356.673 105.761V105.726Z" fill="#B71351" />
    <path d="M384.597 139.886C383.67 139.886 382.636 140.314 381.423 141.205C380.211 142.097 378.891 143.059 377.5 144.129C376.109 145.199 374.611 146.197 373.042 147.053C371.473 147.945 369.868 148.372 368.228 148.372C368.085 148.372 367.942 148.372 367.8 148.265C367.621 148.194 367.479 148.123 367.372 148.087C367.051 147.766 366.837 147.374 366.765 146.91C366.694 146.447 366.658 145.948 366.658 145.448C366.658 143.487 367.193 141.098 368.263 138.246C369.333 135.393 370.546 132.54 371.901 129.616C373.256 126.728 374.433 123.982 375.539 121.379C376.609 118.812 377.143 116.815 377.143 115.46C377.143 114.533 376.858 113.713 376.323 112.928C375.753 112.144 375.004 111.752 374.005 111.752C373.007 111.752 372.044 112.679 371.009 114.497C370.011 116.316 368.905 118.598 367.728 121.344C366.551 124.089 365.267 127.049 363.877 130.223C362.486 133.396 360.845 136.356 359.026 139.101C357.207 141.847 355.138 144.129 352.856 145.948C350.573 147.766 347.97 148.693 345.01 148.693C344.439 148.693 343.975 148.408 343.69 147.873C343.405 147.303 343.155 146.661 343.013 145.912C342.834 145.163 342.763 144.414 342.727 143.666C342.727 142.917 342.692 142.346 342.692 141.954C342.692 139.529 343.084 136.962 343.904 134.216C344.724 131.471 345.652 128.868 346.65 126.372C347.649 123.875 348.576 121.629 349.396 119.597C350.217 117.564 350.609 116.031 350.609 114.997C350.609 114.212 350.359 113.463 349.824 112.75C349.289 112.037 348.576 111.68 347.685 111.68C346.258 111.68 345.224 112.215 344.653 113.249V113.142C342.62 115.496 340.694 117.956 338.876 120.488C337.057 123.02 335.238 125.623 333.49 128.226C331.707 130.829 330.174 133.61 328.212 136.07C323.647 141.669 320.58 143.701 319.011 144.842C317.442 145.983 315.801 147.017 314.125 147.98C312.413 148.943 310.808 149.407 309.239 149.407C308.276 149.407 307.777 148.872 307.777 147.838C307.777 146.875 308.098 145.52 308.74 143.773C309.382 142.061 310.238 140.135 311.236 138.032C312.235 135.928 313.34 133.753 314.517 131.471C315.694 129.188 316.8 127.013 317.798 124.945C318.797 122.877 319.653 121.058 320.295 119.418C320.937 117.778 321.258 116.53 321.258 115.603C321.258 114.747 321.008 113.963 320.473 113.214C319.938 112.465 319.225 112.073 318.333 112.073C317.014 112.073 316.051 112.643 315.409 113.784C314.767 114.925 314.232 116.031 313.84 117.065C312.663 115.567 311.201 114.283 309.489 113.249C307.777 112.215 305.887 111.68 303.854 111.68C301.964 111.68 300.038 111.93 298.076 112.465C296.115 113 294.225 113.713 292.334 114.604C290.444 115.496 288.732 116.601 287.092 117.849C285.451 119.097 284.06 120.417 282.884 121.879C279.816 125.587 276.714 129.224 273.575 132.754C271.935 134.608 263.019 142.81 261.271 144.307C259.524 145.805 257.669 147.196 255.672 148.408C253.675 149.62 251.713 150.262 249.752 150.262C248.753 150.262 247.683 149.941 246.507 149.335C245.33 148.729 244.723 147.802 244.723 146.625C244.723 144.807 245.151 143.166 246.043 141.776C246.935 140.385 248.004 139.066 249.324 137.853C250.644 136.641 252.07 135.536 253.639 134.537C255.208 133.539 256.635 132.469 257.955 131.399C259.274 130.33 260.344 129.188 261.236 127.976C262.127 126.764 262.555 125.409 262.555 123.911C262.555 119.989 261.45 117.065 259.274 115.104C257.099 113.142 254.067 112.18 250.216 112.18C247.398 112.18 245.009 112.75 243.012 113.927C241.014 115.104 239.267 116.387 237.769 117.742C236.271 119.097 234.916 120.381 233.739 121.558C233.347 121.95 231.742 122.592 231.385 122.699C230.601 122.913 229.745 123.055 228.853 123.055C228.211 123.055 226.927 122.841 226.892 122.841C226.25 122.699 225.643 122.485 225.037 122.235C223.789 121.665 222.683 120.916 221.649 119.989C220.615 119.062 219.759 117.992 219.046 116.851C218.332 115.71 217.94 114.64 217.298 113.57C217.048 113.178 216.692 112.75 216.264 112.465C215.836 112.215 215.372 112.073 214.837 112.073C213.874 112.073 213.054 112.501 212.376 113.356C211.271 112.75 210.13 112.358 208.953 112.073C207.776 111.823 206.563 111.68 205.315 111.68C203.603 111.68 201.998 111.966 200.465 112.501C198.931 113.071 197.469 113.784 196.114 114.64C194.759 115.532 193.439 116.53 192.226 117.671C191.014 118.812 189.873 120.024 188.838 121.237C186.734 123.733 184.808 126.3 183.025 128.939C181.242 131.578 179.352 134.181 177.39 136.712C176.606 137.675 175.643 138.673 174.537 139.708C174.038 140.171 173.574 140.635 173.146 141.098C173.111 141.098 173.039 141.134 173.004 141.17C171.791 142.061 170.472 143.024 169.081 144.093C167.69 145.163 166.192 146.162 164.623 147.017C163.053 147.909 161.449 148.337 159.808 148.337C159.665 148.337 159.523 148.337 159.38 148.23C159.202 148.158 159.059 148.087 158.952 148.052C158.631 147.659 158.417 147.231 158.31 146.768C158.203 146.304 158.168 145.805 158.168 145.306C158.168 143.951 158.417 142.311 158.952 140.456C159.487 138.602 160.129 136.641 160.914 134.608C161.698 132.576 162.554 130.543 163.446 128.547C164.337 126.55 165.229 124.624 165.978 122.806C166.763 121.023 167.404 119.418 167.939 118.063C168.474 116.708 168.724 115.638 168.724 114.925C168.724 113.998 168.439 113.249 167.904 112.608C167.333 112.001 166.584 111.68 165.586 111.68C164.872 111.68 163.945 112.251 162.804 113.356C161.663 114.462 160.343 115.924 158.881 117.778C157.419 119.597 155.814 121.665 154.138 124.018C152.461 126.372 150.678 128.689 148.895 131.114C147.112 133.539 145.293 135.892 143.51 138.21C141.727 140.528 139.979 142.56 138.374 144.343C138.98 141.811 139.694 138.994 140.514 135.928C141.37 132.861 142.155 129.902 142.903 127.049C143.652 124.196 144.294 121.665 144.865 119.454C145.436 117.243 145.685 115.745 145.685 114.961C145.685 114.034 145.4 113.285 144.865 112.643C144.294 112.037 143.545 111.716 142.547 111.716C141.834 111.716 140.657 112.608 139.016 114.426C137.376 116.209 135.485 118.491 133.346 121.201C131.206 123.911 128.888 126.835 126.427 129.973C123.966 133.111 121.577 136.035 119.223 138.745C116.869 141.455 114.658 143.701 112.589 145.52C110.521 147.303 108.809 148.23 107.454 148.23C107.061 148.23 106.669 148.051 106.313 147.695C105.956 147.338 105.635 146.91 105.385 146.411C105.136 145.912 104.922 145.413 104.743 144.878C104.565 144.343 104.494 143.915 104.494 143.594C104.494 142.881 104.636 142.168 104.922 141.49C105.207 140.813 105.35 140.064 105.35 139.28C105.35 138.745 105.171 138.281 104.85 137.818C104.529 137.354 104.066 137.14 103.495 137.14C102.71 137.14 101.997 137.354 101.391 137.782C100.785 138.21 100.178 138.673 99.8574 139.351C99.2154 140.706 98.2882 143.666 97.7532 144.557C97.1826 145.448 96.5406 146.233 95.756 146.91C94.9714 147.588 94.1155 148.123 93.1526 148.515C92.1897 148.907 91.2267 149.121 90.2638 149.121C89.4079 149.121 88.7303 148.943 88.1597 148.622C87.5891 148.301 87.1254 147.873 86.7331 147.338C88.9443 144.45 90.6205 141.205 91.726 137.604C92.8316 133.967 93.4022 130.187 93.4022 126.3C93.4022 121.914 92.1897 118.384 89.7645 115.71C87.3394 113.035 83.88 111.68 79.3864 111.68C76.3193 111.68 73.3236 112.643 70.3635 114.569C67.439 116.494 64.7999 118.883 62.5175 121.736C60.235 124.589 58.3805 127.691 56.9896 131.043C55.5987 134.395 54.8854 137.497 54.8854 140.314C54.8854 140.92 54.9567 141.455 54.9924 142.061C54.2791 142.596 53.5659 143.095 52.7813 143.701C51.64 144.593 50.4631 145.413 49.2862 146.197C48.1093 146.982 46.9681 147.695 45.8625 148.265C43.3304 149.513 42.2605 149.193 42.1535 148.265C41.8325 146.055 42.4388 143.88 42.9737 141.811C43.5444 139.708 44.1506 137.604 44.8282 135.5C45.5059 133.396 46.1478 131.257 46.6828 129.117C47.2534 126.978 47.503 124.838 47.503 122.592C47.503 121.023 47.1821 119.597 46.5758 118.313C45.9695 117.029 45.1492 115.959 44.115 115.032C43.1164 114.105 41.9038 113.428 40.5486 112.928C39.1934 112.429 37.7668 112.18 36.3403 112.18C34.6996 112.18 33.0235 112.536 31.2759 113.214C29.5284 113.891 27.9592 114.604 26.5327 115.318C26.6753 114.39 26.4613 113.57 25.8907 112.786C25.3201 112.001 24.5355 111.609 23.5012 111.609C22.9663 111.609 22.5027 111.752 22.039 112.001C21.7894 112.144 21.2544 113.178 20.4342 115.104C19.6139 117.029 18.651 119.383 17.5454 122.2C16.4398 125.017 15.2629 128.047 14.0504 131.364C12.8378 134.68 11.7322 137.782 10.7336 140.706C9.73505 143.63 8.87912 146.162 8.20151 148.301C7.5239 150.441 7.16726 151.689 7.16726 152.081C7.16726 153.008 7.45257 153.828 7.98752 154.577C8.55814 155.326 9.30708 155.718 10.3057 155.718C11.6609 155.718 12.8021 154.791 13.6937 152.972C14.5853 151.154 15.4056 148.872 16.1902 146.126C16.9748 143.38 17.8307 140.421 18.7223 137.212C19.6496 134.002 20.8265 131.043 22.36 128.297C23.8579 125.551 25.7481 123.269 27.9949 121.451C30.2417 119.632 33.1304 118.705 36.6613 118.705C37.5885 118.705 38.5514 119.062 39.55 119.739C40.5486 120.417 41.0836 121.308 41.0836 122.342C41.0836 124.553 40.8339 126.728 40.299 128.796C39.764 130.9 39.229 133.004 38.6228 135.108C38.0165 137.247 37.4815 139.351 36.9466 141.419C36.4116 143.523 36.162 145.662 36.162 147.873C36.162 150.476 36.5543 152.473 37.3745 153.792C38.1948 155.147 40.0493 155.789 42.9024 155.789C43.5087 155.789 44.3646 155.54 45.5415 155.005C46.7184 154.47 48.038 153.792 49.4645 152.937C50.8911 152.081 52.3533 151.154 53.8868 150.084C54.8141 149.442 55.563 148.8 56.3833 148.158C56.9183 149.371 57.5245 150.512 58.3448 151.51C60.6629 154.363 64.2293 155.789 69.0796 155.789C71.897 155.789 74.4291 155.397 76.676 154.577C78.9228 153.757 80.9913 152.651 82.9171 151.189C84.2367 152.117 85.6275 152.865 87.0898 153.436C88.552 154.006 90.0855 154.327 91.6547 154.327C92.689 154.327 93.9015 154.042 95.2211 153.436C96.5763 152.83 97.8245 152.081 99.0371 151.189C99.5364 150.833 99.9644 150.405 100.392 150.013C100.606 150.369 100.785 150.726 101.034 151.047C101.819 152.045 102.782 152.865 103.923 153.507C105.064 154.149 106.384 154.434 107.882 154.434C108.987 154.434 110.342 153.935 111.947 152.972C113.552 152.01 115.264 150.726 117.083 149.157C118.902 147.588 120.792 145.841 122.682 143.915C124.572 141.99 126.356 140.1 127.96 138.246C129.601 136.391 131.063 134.68 132.311 133.111C133.595 131.542 134.523 130.33 135.093 129.474C134.487 133.788 133.916 137.354 133.381 140.207C132.811 143.059 132.418 145.342 132.097 147.053C131.812 148.8 131.669 150.084 131.741 150.975C131.812 151.867 132.204 152.544 132.918 152.972C133.31 153.222 133.809 153.4 134.38 153.507C134.95 153.614 135.771 153.436 136.841 152.972C137.447 152.509 138.16 151.796 139.052 150.833C139.943 149.87 140.906 148.729 141.941 147.517C142.975 146.269 144.08 144.949 145.222 143.487C146.363 142.061 147.54 140.635 148.717 139.28C149.894 137.925 150.999 136.605 152.033 135.393C153.068 134.181 154.066 133.146 154.958 132.291C154.031 134.323 153.21 136.498 152.426 138.816C151.641 141.134 151.249 143.452 151.249 145.734C151.249 146.839 151.463 147.945 151.891 149.05C152.319 150.155 152.889 151.154 153.603 152.045C154.316 152.937 155.207 153.614 156.242 154.149C157.276 154.684 158.382 154.933 159.558 154.933C160.878 154.933 162.519 154.541 164.551 153.757C166.584 152.972 168.546 151.974 170.472 150.762C172.362 149.585 173.967 148.265 175.322 146.803C176.035 146.269 176.748 145.662 177.426 144.949C178.104 144.236 178.745 143.523 179.352 142.81C179.958 142.097 180.386 141.49 180.707 141.063C180.85 145.555 182.062 149.157 184.345 151.831C186.627 154.506 190.122 155.861 194.83 155.861C199.145 155.861 202.783 155.04 205.743 153.365C208.703 151.689 211.164 149.478 213.09 146.768C215.016 144.022 216.442 140.884 217.405 137.318C218.368 133.753 218.939 130.116 219.117 126.407C220.436 127.513 221.863 128.333 223.432 128.868C225.001 129.402 226.642 129.509 228.318 129.652C230.85 129.866 234.524 129.188 236.307 127.905C237.626 126.942 238.696 125.587 239.873 124.232C241.05 122.877 242.405 121.665 243.939 120.559C245.472 119.454 247.505 118.883 250.073 118.883C251.785 118.883 253.14 119.311 254.174 120.167C255.209 121.023 255.743 122.307 255.743 123.982C255.743 125.017 255.315 125.979 254.424 126.871C253.532 127.762 252.462 128.654 251.143 129.616C249.823 130.579 248.432 131.578 246.935 132.647C245.437 133.717 244.01 134.929 242.726 136.213C241.407 137.532 240.337 139.03 239.445 140.706C238.554 142.418 238.126 144.343 238.126 146.483C238.126 147.909 238.482 149.264 239.16 150.512C239.837 151.76 240.729 152.865 241.87 153.792C242.976 154.755 244.188 155.468 245.544 156.003C246.899 156.538 248.254 156.788 249.609 156.788C250.965 156.788 252.748 156.253 255.102 155.183C257.455 154.113 259.773 152.794 262.056 151.225C263.803 150.013 270.152 144.949 273.825 140.242C273.433 142.061 273.326 143.951 273.54 145.912C273.754 147.873 274.289 149.656 275.145 151.261C276.036 152.865 277.213 154.185 278.711 155.219C280.209 156.253 282.028 156.788 284.203 156.788C287.092 156.788 289.981 156.11 292.976 154.72C295.972 153.329 298.647 151.903 301.072 150.405C301.464 152.117 302.427 153.436 303.925 154.363C305.423 155.326 307.028 155.789 308.74 155.789C309.382 155.789 310.345 155.611 311.593 155.219C312.841 154.826 314.161 154.292 315.623 153.65C317.049 153.008 318.512 152.259 319.974 151.403C321.436 150.548 322.791 149.692 324.004 148.8C328.39 145.555 330.459 142.204 331.957 140.242C333.419 138.281 334.81 136.391 336.058 134.608C337.306 132.826 338.162 131.613 338.555 131.043C338.02 133.075 337.52 135.143 336.985 137.283C336.45 139.422 336.201 141.526 336.201 143.594C336.201 147.267 336.985 150.12 338.555 152.152C340.124 154.22 342.834 155.254 346.686 155.254C348.112 155.254 349.503 155.005 350.787 154.506C352.107 154.006 353.319 153.365 354.496 152.58C355.673 151.796 356.78 150.904 357.814 149.941C358.848 148.979 359.847 147.98 360.738 147.017C360.81 149.3 361.416 151.225 362.557 152.758C363.698 154.292 365.517 155.076 368.014 155.076C369.333 155.076 370.974 154.684 373.006 153.899C375.039 153.115 377.001 152.117 378.927 150.904C380.852 149.692 382.493 148.337 383.884 146.839C385.275 145.342 385.952 143.88 385.952 142.418C385.952 141.883 385.881 141.383 385.774 140.849C385.631 140.314 385.203 140.064 384.49 140.064L384.597 139.886ZM86.0555 134.751C85.6632 137.604 84.8786 140.1 83.7017 142.311C82.5248 144.486 80.8486 146.269 78.6375 147.588C76.462 148.943 73.5375 149.585 69.8642 149.585C67.2607 149.585 65.2279 148.658 63.837 146.839C62.8741 145.591 62.2678 144.2 61.9825 142.667C61.8755 142.132 61.6972 141.277 61.8042 140.028C61.8042 140.028 62.2678 135.179 63.1237 132.683C64.051 130.044 65.2992 127.655 66.9398 125.516C68.5803 123.376 70.5418 121.629 72.8243 120.274C75.1068 118.919 77.6745 118.206 80.4563 118.206C81.4906 118.206 82.4178 118.42 83.2024 118.883C83.987 119.347 84.629 119.953 85.1283 120.702C85.6276 121.451 85.9842 122.271 86.2695 123.198C86.5191 124.125 86.6618 125.017 86.6618 125.944C86.6618 128.939 86.4835 131.863 86.0555 134.715V134.751ZM212.626 124.91C212.626 127.727 212.376 129.581 211.948 132.612C211.52 135.643 210.7 138.424 209.452 140.956C208.204 143.487 206.492 145.555 204.316 147.196C202.141 148.836 199.252 149.656 195.757 149.656C193.154 149.656 191.121 148.729 189.73 146.91C188.339 145.092 187.626 142.952 187.626 140.528C187.626 137.996 188.089 135.393 188.981 132.754C189.908 130.116 191.156 127.727 192.797 125.587C194.438 123.448 196.399 121.7 198.682 120.345C200.964 118.99 203.532 118.277 206.314 118.277C209.095 118.277 212.341 119.418 212.59 122.485C212.626 123.055 212.59 124.945 212.59 124.945L212.626 124.91ZM304.817 137.604C304.103 139.066 303.497 140.385 303.034 141.562C301.714 142.525 300.43 143.523 299.111 144.486C297.791 145.448 296.436 146.376 295.045 147.231C293.654 148.087 292.156 148.765 290.623 149.3C289.089 149.834 287.484 150.084 285.772 150.084C281.778 150.084 279.781 148.052 279.781 144.022C279.781 140.884 280.423 137.782 281.707 134.68C282.991 131.578 284.702 128.796 286.914 126.336C289.125 123.875 291.657 121.879 294.617 120.345C297.577 118.812 300.644 118.028 303.925 118.028C305.744 118.028 307.171 118.705 308.133 120.096C309.096 121.451 309.596 123.02 309.596 124.696C309.596 125.872 309.346 127.192 308.811 128.654C308.276 130.116 307.67 131.613 306.957 133.111C306.243 134.608 305.53 136.106 304.817 137.568V137.604Z" fill="#B71351" />
    <path d="M226.892 182.961C223.717 181.035 220.151 180.5 216.549 181.463C210.7 183.032 205.707 188.274 202.355 192.731C200.821 189.022 198.325 184.85 194.402 182.426C190.586 180.037 185.985 179.609 181.099 181.178C173.681 183.567 168.938 188.416 167.369 195.227C163.446 212.271 180.529 237.624 190.122 246.788C191.549 248.179 193.439 248.856 195.293 248.856C197.005 248.856 198.682 248.286 200.072 247.145C212.341 237.018 234.773 211.13 233.561 194.193C233.204 189.308 230.922 185.421 226.892 182.961ZM195.543 241.653C195.543 241.653 195.186 241.796 195.044 241.653C186.164 233.167 171.185 210.275 174.288 196.832C175.286 192.481 178.211 189.557 183.275 187.953C184.523 187.56 185.664 187.347 186.699 187.347C188.125 187.347 189.445 187.703 190.622 188.452C195.151 191.269 197.184 198.971 197.612 201.717C197.826 203.25 199.003 204.462 200.536 204.712C202.034 204.962 203.567 204.248 204.281 202.893C206.171 199.399 212.376 190.021 218.475 188.381C220.187 187.917 221.685 188.131 223.218 189.058C225.287 190.306 226.321 192.125 226.499 194.692C227.355 207.065 208.774 230.778 195.579 241.653H195.543Z" fill="#B71351" />
    <path d="M199.147 256.63C198.79 256.024 198.327 255.489 197.72 255.097C197.114 254.704 196.436 254.49 195.652 254.49C194.546 254.49 193.548 254.811 192.656 255.453C191.765 256.095 191.016 256.915 190.338 257.913C189.696 258.876 189.197 259.946 188.876 261.087C188.555 262.228 188.377 263.298 188.377 264.261C188.377 264.974 188.448 265.723 188.626 266.471C188.769 267.22 189.054 267.898 189.411 268.54C189.767 269.146 190.231 269.681 190.837 270.108C191.444 270.536 192.157 270.75 192.977 270.75C194.083 270.75 195.081 270.394 195.973 269.716C196.864 269.039 197.613 268.183 198.22 267.185C198.826 266.186 199.325 265.081 199.646 263.94C199.967 262.799 200.146 261.729 200.146 260.766C200.146 260.124 200.074 259.411 199.896 258.662C199.718 257.913 199.468 257.236 199.111 256.594L199.147 256.63Z" fill="#B71351" />
  </g>
  <defs>
    <clipPath id="clip0_69_5597">
      <rect width="403" height="271" fill="white" />
    </clipPath>
  </defs>
</svg>